<svg xmlns="http://www.w3.org/2000/svg" width="22.548" height="33.713" viewBox="0 0 22.548 33.713">
  <g id="surface1" transform="translate(-44.196)">
    <path id="Path_21358" data-name="Path 21358" d="M5.895,33.713c-3.748-12.349,4.171-16.858,4.171-16.858a19.1,19.1,0,0,0,3.191,11.723,20.159,20.159,0,0,0,4.006-2.358,42.783,42.783,0,0,1-1.387,7.489,19.811,19.811,0,0,0,6.384-9.99c1.527-6.236-2.908-12.5-2.908-12.5A16.722,16.722,0,0,1,15.2,23.294a2.393,2.393,0,0,0,.363-.56c.526-1.051,1.369-3.783.875-10.109C15.744,3.745,7.7,0,7.7,0,8.391,5.411,6.311,6.657,1.44,16.928S5.895,33.713,5.895,33.713Zm0,0" transform="translate(44.165 0)" fill="#ee6c4d"/>
  </g>
</svg>
