<svg width="31" height="31" viewBox="0 0 31 31" fill="none" xmlns="http://www.w3.org/2000/svg">
<path d="M30.47 9.12748C30.4446 7.85991 30.2045 6.60582 29.76 5.41848C29.3771 4.39891 28.7765 3.47511 28 2.71148C27.2362 1.93299 26.3117 1.33063 25.291 0.946484C24.1037 0.501909 22.8496 0.261841 21.582 0.236484C19.952 0.164484 19.431 0.146484 15.281 0.146484C11.131 0.146484 10.61 0.164484 8.981 0.238484C7.71321 0.263146 6.45877 0.502537 5.271 0.946484C4.25133 1.33093 3.32784 1.93328 2.565 2.71148C1.78685 3.47437 1.18451 4.39784 0.8 5.41748C0.356126 6.60493 0.116736 7.85903 0.092 9.12648C0.018 10.7565 0 11.2775 0 15.4275C0 19.5775 0.018 20.0985 0.092 21.7275C0.116584 22.9953 0.355978 24.2497 0.8 25.4375C1.18403 26.4582 1.78641 27.3828 2.565 28.1465C3.32858 28.9231 4.2524 29.5237 5.272 29.9065C6.4593 30.3511 7.71342 30.5912 8.981 30.6165C10.611 30.6905 11.131 30.7085 15.281 30.7085C19.431 30.7085 19.952 30.6915 21.581 30.6165C22.8486 30.5912 24.1027 30.3511 25.29 29.9065C26.3051 29.514 27.227 28.9137 27.9966 28.1441C28.7662 27.3745 29.3665 26.4526 29.759 25.4375C30.2036 24.2502 30.4437 22.9961 30.469 21.7285C30.543 20.0985 30.561 19.5785 30.561 15.4285C30.561 11.2785 30.543 10.7575 30.469 9.12848L30.47 9.12748ZM27.72 21.6025C27.7085 22.5713 27.5306 23.5309 27.194 24.4395C26.9398 25.0985 26.5504 25.697 26.051 26.1965C25.5515 26.6959 24.953 27.0853 24.294 27.3395C23.3855 27.6761 22.4258 27.854 21.457 27.8655C19.846 27.9395 19.363 27.9545 15.282 27.9545C11.201 27.9545 10.718 27.9395 9.107 27.8655C8.13819 27.8539 7.17856 27.676 6.27 27.3395C5.60631 27.0945 5.00595 26.7039 4.513 26.1965C4.0055 25.7036 3.61493 25.1032 3.37 24.4395C3.03341 23.5309 2.85549 22.5713 2.844 21.6025C2.771 19.9915 2.755 19.5075 2.755 15.4275C2.755 11.3475 2.771 10.8635 2.844 9.25248C2.85561 8.28368 3.03353 7.32406 3.37 6.41548C3.61476 5.75192 4.00497 5.15157 4.512 4.65848C5.00484 4.15091 5.60524 3.76032 6.269 3.51548C7.17753 3.17886 8.13718 3.00093 9.106 2.98948C10.717 2.91648 11.201 2.90048 15.281 2.90048C19.361 2.90048 19.845 2.91648 21.456 2.98948C22.4248 3.00099 23.3845 3.17891 24.293 3.51548C24.9567 3.76053 25.557 4.15109 26.05 4.65848C26.5576 5.15132 26.9482 5.75172 27.193 6.41548C27.5297 7.32399 27.7077 8.28365 27.719 9.25248C27.792 10.8635 27.808 11.3475 27.808 15.4275C27.808 19.5075 27.793 19.9915 27.719 21.6025H27.72Z" fill="url(#paint0_linear_1197_50)"/>
<path d="M15.281 7.58008C13.729 7.58008 12.2118 8.0403 10.9214 8.90253C9.63097 9.76477 8.6252 10.9903 8.03128 12.4242C7.43736 13.858 7.28196 15.4358 7.58474 16.9579C7.88752 18.4801 8.63487 19.8783 9.7323 20.9757C10.8297 22.0732 12.2279 22.8205 13.7501 23.1233C15.2723 23.4261 16.85 23.2707 18.2839 22.6768C19.7177 22.0828 20.9433 21.0771 21.8055 19.7866C22.6677 18.4962 23.128 16.9791 23.128 15.4271C23.128 14.3966 22.925 13.3762 22.5306 12.4242C22.1363 11.4721 21.5583 10.6071 20.8296 9.87841C20.101 9.14975 19.2359 8.57174 18.2839 8.17739C17.3318 7.78304 16.3114 7.58008 15.281 7.58008V7.58008ZM15.281 20.5211C14.2735 20.5211 13.2886 20.2223 12.4509 19.6626C11.6132 19.1028 10.9603 18.3073 10.5747 17.3765C10.1892 16.4457 10.0883 15.4214 10.2848 14.4333C10.4814 13.4451 10.9665 12.5375 11.679 11.8251C12.3914 11.1127 13.299 10.6275 14.2872 10.431C15.2753 10.2344 16.2995 10.3353 17.2303 10.7208C18.1612 11.1064 18.9567 11.7593 19.5165 12.597C20.0762 13.4347 20.375 14.4196 20.375 15.4271C20.375 16.7781 19.8383 18.0738 18.883 19.0291C17.9277 19.9844 16.632 20.5211 15.281 20.5211Z" fill="url(#paint1_linear_1197_50)"/>
<path d="M25.2751 7.26955C25.2751 7.63228 25.1675 7.98686 24.966 8.28846C24.7644 8.59006 24.478 8.82513 24.1429 8.96394C23.8078 9.10275 23.439 9.13907 23.0833 9.06831C22.7275 8.99754 22.4007 8.82287 22.1442 8.56638C21.8877 8.30989 21.7131 7.9831 21.6423 7.62734C21.5715 7.27158 21.6078 6.90282 21.7466 6.5677C21.8855 6.23258 22.1205 5.94615 22.4221 5.74463C22.7237 5.54311 23.0783 5.43555 23.441 5.43555C23.6819 5.43555 23.9204 5.48298 24.1429 5.57515C24.3654 5.66732 24.5676 5.80241 24.7379 5.97271C24.9082 6.14301 25.0433 6.34519 25.1354 6.5677C25.2276 6.79021 25.2751 7.0287 25.2751 7.26955V7.26955Z" fill="url(#paint2_linear_1197_50)"/>
<defs>
<linearGradient id="paint0_linear_1197_50" x1="2.56712" y1="28.1413" x2="27.9947" y2="2.71452" gradientUnits="userSpaceOnUse">
<stop stop-color="#FFD600"/>
<stop offset="0.5" stop-color="#FF0100"/>
<stop offset="1" stop-color="#D800B9"/>
</linearGradient>
<linearGradient id="paint1_linear_1197_50" x1="9.72528" y1="20.9828" x2="20.8366" y2="9.87141" gradientUnits="userSpaceOnUse">
<stop stop-color="#FF6400"/>
<stop offset="0.5" stop-color="#FF0100"/>
<stop offset="1" stop-color="#FD0056"/>
</linearGradient>
<linearGradient id="paint2_linear_1197_50" x1="22.1426" y1="8.56802" x2="24.7395" y2="5.97108" gradientUnits="userSpaceOnUse">
<stop stop-color="#F30072"/>
<stop offset="1" stop-color="#E50097"/>
</linearGradient>
</defs>
</svg>
