<svg width="22" height="22" viewBox="0 0 22 22" fill="none" xmlns="http://www.w3.org/2000/svg">
<path d="M12.575 21.751H5.1C3.7474 21.751 2.45019 21.2137 1.49376 20.2572C0.53732 19.3008 0 18.0036 0 16.651L0 5.1C0 3.7474 0.53732 2.45019 1.49376 1.49376C2.45019 0.53732 3.7474 0 5.1 0H16.653C18.0056 0 19.3028 0.53732 20.2592 1.49376C21.2157 2.45019 21.753 3.7474 21.753 5.1V9.388C21.753 9.61343 21.6634 9.82963 21.504 9.98904C21.3446 10.1484 21.1284 10.238 20.903 10.238C20.6776 10.238 20.4614 10.1484 20.302 9.98904C20.1426 9.82963 20.053 9.61343 20.053 9.388V5.1C20.053 4.19826 19.6948 3.33346 19.0572 2.69584C18.4195 2.05821 17.5547 1.7 16.653 1.7H5.1C4.19826 1.7 3.33346 2.05821 2.69584 2.69584C2.05821 3.33346 1.7 4.19826 1.7 5.1V16.653C1.7 17.5547 2.05821 18.4195 2.69584 19.0572C3.33346 19.6948 4.19826 20.053 5.1 20.053H12.577C12.795 20.0638 13.0005 20.1581 13.1509 20.3164C13.3013 20.4746 13.385 20.6847 13.3848 20.903C13.3845 21.1213 13.3003 21.3311 13.1495 21.489C12.9988 21.6468 12.7931 21.7407 12.575 21.751ZM11.521 7.481L14.153 4.849C14.297 4.68696 14.3737 4.47603 14.3673 4.25934C14.3609 4.04266 14.272 3.8366 14.1187 3.68331C13.9654 3.53003 13.7593 3.4411 13.5427 3.43472C13.326 3.42834 13.115 3.505 12.953 3.649L10.319 6.279C10.1597 6.43777 9.94392 6.52692 9.719 6.52692C9.49408 6.52692 9.27832 6.43777 9.119 6.279L6.508 3.65C6.4294 3.57068 6.33595 3.50762 6.23299 3.46442C6.13002 3.42121 6.01955 3.39871 5.90789 3.3982C5.68238 3.39717 5.46569 3.48577 5.3055 3.6445C5.14531 3.80323 5.05474 4.0191 5.0537 4.24461C5.05267 4.47012 5.14127 4.68681 5.3 4.847L7.909 7.474C8.14432 7.71232 8.42458 7.90159 8.73355 8.03085C9.04253 8.1601 9.37408 8.22677 9.709 8.227H9.714C10.0496 8.22862 10.3822 8.1635 10.6924 8.03543C11.0026 7.90736 11.2843 7.7189 11.521 7.481V7.481ZM4.9 14.106L6.725 12.255C7.19458 11.776 7.4571 11.1316 7.45598 10.4608C7.45486 9.78997 7.19018 9.14646 6.719 8.669L4.893 6.836C4.81421 6.75681 4.72059 6.69392 4.61749 6.65091C4.51439 6.60791 4.40383 6.58563 4.29212 6.58535C4.18041 6.58507 4.06974 6.6068 3.96643 6.64929C3.86312 6.69178 3.76919 6.75421 3.69 6.833C3.61081 6.91179 3.54792 7.00541 3.50491 7.10851C3.46191 7.21161 3.43963 7.32217 3.43935 7.43388C3.43879 7.65949 3.52787 7.87607 3.687 8.036L5.508 9.87C5.66628 10.0296 5.7551 10.2452 5.7551 10.47C5.7551 10.6948 5.66628 10.9104 5.508 11.07L3.686 12.913C3.60767 12.9927 3.5458 13.0871 3.50393 13.1907C3.46207 13.2943 3.44102 13.4052 3.442 13.5169C3.44297 13.6287 3.46595 13.7391 3.50962 13.842C3.55328 13.9449 3.61679 14.0382 3.6965 14.1165C3.77621 14.1948 3.87057 14.2567 3.97419 14.2986C4.07782 14.3404 4.18867 14.3615 4.30042 14.3605C4.41218 14.3595 4.52265 14.3366 4.62552 14.2929C4.7284 14.2492 4.82167 14.1857 4.9 14.106V14.106ZM19.026 20.89C20.865 18.556 21.797 16.775 21.797 15.598C21.8059 14.9954 21.695 14.397 21.4705 13.8377C21.2461 13.2784 20.9127 12.7693 20.4898 12.34C20.0668 11.9107 19.5627 11.5698 19.0067 11.3371C18.4508 11.1044 17.8542 10.9846 17.2515 10.9846C16.6488 10.9846 16.0522 11.1044 15.4963 11.3371C14.9403 11.5698 14.4362 11.9107 14.0132 12.34C13.5903 12.7693 13.2569 13.2784 13.0325 13.8377C12.808 14.397 12.6971 14.9954 12.706 15.598C12.706 16.775 13.638 18.556 15.477 20.89C15.6884 21.1584 15.9579 21.3753 16.2653 21.5244C16.5727 21.6736 16.9099 21.7511 17.2515 21.7511C17.5931 21.7511 17.9303 21.6736 18.2377 21.5244C18.5451 21.3753 18.8146 21.1584 19.026 20.89ZM20.094 15.6C20.094 16.173 19.462 17.588 17.688 19.84C17.6359 19.9069 17.5693 19.961 17.4931 19.9982C17.4169 20.0355 17.3333 20.0548 17.2485 20.0548C17.1637 20.0548 17.0801 20.0355 17.0039 19.9982C16.9277 19.961 16.8611 19.9069 16.809 19.84C15.033 17.586 14.4 16.171 14.4 15.6C14.4 14.8451 14.6999 14.121 15.2337 13.5872C15.7675 13.0534 16.4916 12.7535 17.2465 12.7535C18.0014 12.7535 18.7255 13.0534 19.2593 13.5872C19.7931 14.121 20.093 14.8451 20.093 15.6H20.094ZM5.14 18.352C4.97261 18.3507 4.80933 18.3 4.67053 18.2064C4.53174 18.1129 4.42359 17.9805 4.35959 17.8258C4.29558 17.6711 4.27856 17.501 4.31065 17.3367C4.34273 17.1724 4.4225 17.0212 4.54 16.902L16.9 4.539C17.062 4.395 17.273 4.31834 17.4897 4.32472C17.7063 4.3311 17.9124 4.42003 18.0657 4.57331C18.219 4.7266 18.3079 4.93266 18.3143 5.14934C18.3207 5.36603 18.244 5.57696 18.1 5.739L5.741 18.1C5.6623 18.1789 5.56878 18.2416 5.46582 18.2843C5.36286 18.327 5.25248 18.349 5.141 18.349L5.14 18.352ZM16.185 15.506C16.185 15.716 16.2473 15.9214 16.364 16.096C16.4807 16.2707 16.6465 16.4068 16.8406 16.4872C17.0346 16.5675 17.2482 16.5886 17.4542 16.5476C17.6602 16.5066 17.8494 16.4055 17.9979 16.2569C18.1465 16.1084 18.2476 15.9192 18.2886 15.7132C18.3296 15.5072 18.3085 15.2936 18.2282 15.0996C18.1478 14.9055 18.0117 14.7397 17.837 14.623C17.6624 14.5063 17.457 14.444 17.247 14.444C16.9653 14.444 16.6952 14.5559 16.4961 14.7551C16.2969 14.9542 16.185 15.2243 16.185 15.506V15.506Z" fill="#45495E"/>
</svg>
