<svg xmlns="http://www.w3.org/2000/svg" width="105.917" height="105.865" viewBox="0 0 105.917 105.865">
  <g id="money" transform="translate(-388.604 -110.09)">
    <path id="Path_21533" data-name="Path 21533" d="M584.188,215.108l-.461,1.006-16.271,12.4-43.117-9.827L507.06,180.956l.461-1.006a5.812,5.812,0,0,1,4.386-3.321l41.3-6.467A8.555,8.555,0,0,1,561.8,174.1l22.046,35.516A5.819,5.819,0,0,1,584.188,215.108Z" transform="translate(-96.61 -49.291)" fill="#fff" stroke="#ee6c4d" stroke-width="1"/>
    <path id="Path_21534" data-name="Path 21534" d="M437.132,274.249,390.217,281.6c-.045-.093-.085-.187-.125-.281a7.276,7.276,0,0,1,.094-5.867l20.265-44.189L434.4,269.853Z" transform="translate(0 -99.594)" fill="#fff" stroke="#ee6c4d" stroke-width="1"/>
    <path id="Path_21535" data-name="Path 21535" d="M706.895,428.71,686.63,472.9a7.278,7.278,0,0,1-4.386,3.9c-.1.032-.2.062-.3.087L656.91,436.541l5.112-.8Z" transform="translate(-219.778 -261.887)" fill="#fff" stroke="#ee6c4d" stroke-width="1"/>
    <path id="Path_21536" data-name="Path 21536" d="M465.1,491.48c-.1.032-.2.062-.3.087a7.26,7.26,0,0,1-4.991-.4L396.4,462.093a7.263,7.263,0,0,1-3.558-3.52c-.044-.093-.085-.187-.125-.281l44.312-11.465.169-.043a6.619,6.619,0,0,1,7.594,3.483l.078.157Z" transform="translate(-2.629 -276.568)" fill="#ffc0b1"/>
    <g id="Group_60035" data-name="Group 60035" transform="translate(431.652 123.69)">
      <g id="Group_60031" data-name="Group 60031" transform="translate(0)">
        <path id="Path_21537" data-name="Path 21537" d="M689.946,214.45l-20.787,22.97-1.334.208-.889.139-.89.141-25.026,3.919-.944.15-.944.148-.627.1-.63.1-4.12.646h0l-3.928-6.33-.31-.5-.31-.5h0l-.465-.75,18.253-20.169.938-1.036v0l.938-1.035,1.407-1.554,1.407-1.558L666.465,193.2Z" transform="translate(-628.275 -192.002)" fill="#ee6c4d"/>
        <path id="Path_21538" data-name="Path 21538" d="M687.742,207.72,665.52,187.608l-1.259-1.138-1.138,1.259L650.2,202.011l-1.407,1.556-1.407,1.554-.937,1.035,0,0-.937,1.036L626.13,228.6l.465.751.465.75h0l17.128-18.926v0l.938-1.036.937-1.036v0l1.407-1.554v0l1.408-1.554v0l13.159-14.54,2.34-2.585,2.585,2.34,17.051,15.431,2.585,2.34-2.34,2.585L665.681,232.1l2.667-.418,19.512-21.559,1.14-1.259Z" transform="translate(-626.13 -186.47)" fill="#ee6c4d"/>
      </g>
      <g id="Group_60033" data-name="Group 60033" transform="translate(0.933 4.738)">
        <path id="Path_21539" data-name="Path 21539" d="M689.211,237l-18.7,20.66-.89.141L644.6,261.719l-.944.148-.944.148-.629.1-.629.1-4.122.646h0l-3.928-6.33-.31-.5,16.38-18.1.937-1.036,0,0,.937-1.036,1.407-1.554,1.408-1.556,13.664-15.1a4,4,0,0,0,1.72.659,4.055,4.055,0,0,0,3.15-.9l16.269,14.726A4.073,4.073,0,0,0,689.211,237Z" transform="translate(-632.784 -216.631)" fill="#fff"/>
        <g id="Group_60032" data-name="Group 60032">
          <path id="Path_21540" data-name="Path 21540" d="M688.324,228.511,671.273,213.08a3.489,3.489,0,0,1-4.927.246l-13.159,14.54v0l-1.408,1.554v0l-1.407,1.554v0l-.937,1.036-.938,1.036v0L631.37,251.981l.31.5.31.5,15.632-17.272.937-1.036,0,0,.937-1.036,1.407-1.554,1.408-1.556,14.209-15.7a4.563,4.563,0,0,0,1.537.495,4.619,4.619,0,0,0,3.193-.734l15.578,14.1a4.635,4.635,0,0,0,.235,4.731l-18.855,20.831.89-.141.889-.139,18.582-20.532A3.486,3.486,0,0,1,688.324,228.511Z" transform="translate(-631.37 -213.08)" fill="#ee6c4d"/>
        </g>
      </g>
      <g id="Group_60034" data-name="Group 60034" transform="translate(21.122 28.371)">
        <path id="Path_21541" data-name="Path 21541" d="M755.306,350.575a10.9,10.9,0,0,0-3.68,1.214,4.638,4.638,0,0,1-1.857.588,1.851,1.851,0,0,1-1.268-.532,2.016,2.016,0,0,1-.716-1.23,1.645,1.645,0,0,1,.5-1.318,1.626,1.626,0,0,1,1.4-.573,2.28,2.28,0,0,1,.844.26,1.481,1.481,0,0,0,1.747-.369l.02-.021a1.427,1.427,0,0,0-.422-2.235,4.148,4.148,0,0,0-4.373.515l-.857-.775a1.114,1.114,0,0,0-.773-.292.131.131,0,0,0-.046,0,1.14,1.14,0,0,0-.787.374,1.128,1.128,0,0,0-.294.819,1.141,1.141,0,0,0,.374.787l.83.751a4.6,4.6,0,0,0-.842,2.8,3.83,3.83,0,0,0,1.36,2.724,3.73,3.73,0,0,0,2.883,1.115,10.138,10.138,0,0,0,3.652-1.264,4.414,4.414,0,0,1,1.825-.561,1.94,1.94,0,0,1,1.328.554,1.821,1.821,0,0,1,.662,1.271,1.962,1.962,0,0,1-.6,1.4,2.27,2.27,0,0,1-1.524.792,1.9,1.9,0,0,1-1.027-.242,1.437,1.437,0,0,0-1.7.353l-.02.021a1.488,1.488,0,0,0,.54,2.343,3.563,3.563,0,0,0,1.738.3,5.265,5.265,0,0,0,3.045-1.36l.671.609a1.023,1.023,0,0,0,.47.249.92.92,0,0,0,.3.043.131.131,0,0,0,.046,0,1.14,1.14,0,0,0,.787-.374,1.178,1.178,0,0,0,.285-.589,1.464,1.464,0,0,0,.009-.232,1.14,1.14,0,0,0-.374-.787l-.725-.655a4.65,4.65,0,0,0,.791-2.639,3.837,3.837,0,0,0-1.385-2.731A3.693,3.693,0,0,0,755.306,350.575Z" transform="translate(-744.751 -345.803)" fill="#ee6c4d"/>
      </g>
    </g>
    <g id="Group_60040" data-name="Group 60040" transform="translate(418.694 110.09)">
      <g id="Group_60036" data-name="Group 60036" transform="translate(0)">
        <path id="Path_21542" data-name="Path 21542" d="M598.158,126.049l-6.5,19.693L591,147.735l-.659,1.991v0l-.438,1.327-.438,1.328L580.8,178.621l-.944.148-.627.1-.63.1-4.12.646h0l-3.928-6.33-.31-.5-.31-.5h0l-.465-.75-.465-.751-11.015-17.745-.39-.627-.388-.625v0l-.584-.938,11.465-34.722Z" transform="translate(-556.039 -115.046)" fill="#ee6c4d"/>
        <path id="Path_21543" data-name="Path 21543" d="M594.939,120.02l-28.459-9.4-1.611-.532-.532,1.613L553.36,144.945l.582.94.584.94,10.327-31.276,1.093-3.312,3.312,1.093,21.837,7.21,3.312,1.093-1.093,3.312-5.744,17.4-.657,1.991-.659,1.991v0l-.438,1.327-.438,1.328-8.2,24.83.944-.148.944-.148,9.129-27.647.438-1.327.438-1.327v0l.657-1.992.657-1.991,5.636-17.063.532-1.613Z" transform="translate(-553.36 -110.09)" fill="#ee6c4d"/>
      </g>
      <g id="Group_60038" data-name="Group 60038" transform="translate(1.166 3.241)">
        <path id="Path_21544" data-name="Path 21544" d="M599.769,143.474l-5.979,18.109,0,0-.657,1.991,0,0-1.1,3.321,0,0-.436,1.327,0,0L583.7,192.12l-.629.1-4.122.646h0l-3.928-6.33-.31-.5-.31-.5h0l-.465-.75-.465-.751-11.015-17.745-.388-.627,10.311-31.226a4.058,4.058,0,0,0,4.355-2.194l20.837,6.88A4.068,4.068,0,0,0,599.769,143.474Z" transform="translate(-561.685 -131.537)" fill="#fff"/>
        <g id="Group_60037" data-name="Group 60037">
          <path id="Path_21545" data-name="Path 21545" d="M589.76,163.355h0l-.438,1.33.937-1.036,0,0,.438-1.328Zm6.718-27.856-21.837-7.21a3.484,3.484,0,0,1-4.4,2.219L559.91,161.785v0l.388.625.388.627L571,131.8a4.624,4.624,0,0,0,4.227-2.13l19.953,6.588a4.625,4.625,0,0,0,2.13,4.229l-6.234,18.881-.657,1.991-.659,1.991v0l-.438,1.328-.438,1.327L581.3,188.967l.629-.1.629-.1,8.2-24.83.438-1.328.438-1.327v0l.659-1.991.657-1.991,5.744-17.4A3.49,3.49,0,0,1,596.478,135.5Z" transform="translate(-559.91 -128.29)" fill="#ee6c4d"/>
        </g>
      </g>
      <g id="Group_60039" data-name="Group 60039" transform="translate(7.799 30.453)">
        <path id="Path_21546" data-name="Path 21546" d="M608.38,283.586a10.9,10.9,0,0,0-2.874,2.6,4.618,4.618,0,0,1-1.462,1.289,1.849,1.849,0,0,1-1.375.027,2.015,2.015,0,0,1-1.152-.835,1.642,1.642,0,0,1-.071-1.408,1.626,1.626,0,0,1,1.054-1.093,2.266,2.266,0,0,1,.876-.1,1.483,1.483,0,0,0,1.449-1.043l.009-.029a1.428,1.428,0,0,0-1.291-1.873,4.146,4.146,0,0,0-3.789,2.242l-1.1-.361a1.119,1.119,0,0,0-.826.046.123.123,0,0,0-.043.018,1.137,1.137,0,0,0,.155,2.1l1.063.351a4.6,4.6,0,0,0,.363,2.9,3.83,3.83,0,0,0,2.347,1.941,3.725,3.725,0,0,0,3.086-.148,10.158,10.158,0,0,0,2.829-2.633,4.387,4.387,0,0,1,1.442-1.252,1.929,1.929,0,0,1,1.439-.03,1.818,1.818,0,0,1,1.12.894,1.965,1.965,0,0,1,.021,1.522,2.275,2.275,0,0,1-1.074,1.343,1.892,1.892,0,0,1-1.038.194,1.436,1.436,0,0,0-1.414,1.011l-.009.029a1.485,1.485,0,0,0,1.442,1.923,3.543,3.543,0,0,0,1.709-.434A5.247,5.247,0,0,0,613.5,290.3l.86.285a1.019,1.019,0,0,0,.531.037.875.875,0,0,0,.3-.084.121.121,0,0,0,.043-.018,1.139,1.139,0,0,0,.568-.661,1.188,1.188,0,0,0,.023-.653,1.557,1.557,0,0,0-.086-.215,1.139,1.139,0,0,0-.661-.568l-.928-.306a4.637,4.637,0,0,0-.345-2.733,3.835,3.835,0,0,0-2.374-1.937A3.67,3.67,0,0,0,608.38,283.586Z" transform="translate(-597.162 -281.118)" fill="#ee6c4d"/>
      </g>
    </g>
    <g id="Group_60041" data-name="Group 60041" transform="translate(389.697 169.611)">
      <path id="Path_21547" data-name="Path 21547" d="M392.72,458.29l44.312-11.464.169-.043a6.619,6.619,0,0,1,7.594,3.483l.078.157L465.1,491.482Z" transform="translate(-392.326 -446.18)" fill="#fff" stroke="#ee6c4d" stroke-width="1"/>
      <path id="Path_21548" data-name="Path 21548" d="M463.28,490.062a.394.394,0,0,1-.354-.221L442.7,448.784l-.077-.157a6.243,6.243,0,0,0-7.14-3.275l-.171.044L391,456.861a.4.4,0,0,1-.2-.766l44.481-11.508a7.041,7.041,0,0,1,8.048,3.691l.077.157,20.224,41.057a.4.4,0,0,1-.354.57Z" transform="translate(-390.508 -444.366)" fill="#fff" stroke="#ee6c4d" stroke-width="1"/>
    </g>
    <g id="Group_60042" data-name="Group 60042" transform="translate(441.85 166.425)">
      <path id="Path_21549" data-name="Path 21549" d="M683.8,434.3a.4.4,0,0,1-.061-.787l2.153-.338,25.026-3.921,4.446-.7,13.248-2.076a.4.4,0,1,1,.123.782l-17.694,2.772-27.179,4.257A.268.268,0,0,1,683.8,434.3Z" transform="translate(-683.403 -426.473)" fill="#ee6c4d"/>
    </g>
    <g id="Group_60043" data-name="Group 60043" transform="translate(410.055 131.269)">
      <path id="Path_21550" data-name="Path 21550" d="M529.191,268.418a.4.4,0,0,1-.336-.187l-1.806-2.911a.15.15,0,0,1-.014-.021l-12.722-20.5a.184.184,0,0,1-.011-.02l-1.156-1.863-8.242-13.28a.4.4,0,1,1,.673-.417l9.409,15.16.011.02,12.7,20.459a.262.262,0,0,1,.016.023l1.82,2.933a.394.394,0,0,1-.128.545A.433.433,0,0,1,529.191,268.418Z" transform="translate(-504.844 -229.034)" fill="#ee6c4d"/>
    </g>
  </g>
</svg>
