<svg width="25" height="21" viewBox="0 0 25 21" fill="none" xmlns="http://www.w3.org/2000/svg">
<path d="M20.6241 0.233141C20.5597 0.161958 20.4815 0.104606 20.3943 0.0645658C20.3071 0.0245261 20.2126 0.0026337 20.1167 0.000223347C20.0208 -0.00218701 19.9253 0.0149335 19.8362 0.050543C19.7471 0.0861526 19.6662 0.139508 19.5983 0.207369C19.5304 0.27523 19.4771 0.356181 19.4415 0.445299C19.4059 0.534418 19.3887 0.629843 19.3912 0.725783C19.3936 0.821722 19.4154 0.916172 19.4555 1.00339C19.4955 1.09061 19.5529 1.16877 19.6241 1.23314C20.6174 2.22139 21.405 3.39679 21.9412 4.69134C22.4775 5.9859 22.7517 7.37393 22.7481 8.77514C22.7481 8.96291 22.8227 9.143 22.9555 9.27577C23.0882 9.40855 23.2683 9.48314 23.4561 9.48314C23.6438 9.48314 23.8239 9.40855 23.9567 9.27577C24.0895 9.143 24.1641 8.96291 24.1641 8.77514C24.1682 7.18797 23.8575 5.61574 23.2499 4.14949C22.6422 2.68324 21.7497 1.3521 20.6241 0.233141V0.233141Z" fill="white"/>
<path d="M4.54005 0.232128C4.40733 0.0997383 4.22751 0.0253906 4.04005 0.0253906C3.85259 0.0253906 3.67277 0.0997383 3.54005 0.232128C2.41405 1.35144 1.52136 2.68307 0.913696 4.14986C0.306036 5.61665 -0.00451022 7.18945 4.94925e-05 8.77713C4.94925e-05 8.9649 0.0746421 9.14498 0.207418 9.27776C0.340194 9.41054 0.520276 9.48513 0.708049 9.48513C0.895823 9.48513 1.07591 9.41054 1.20868 9.27776C1.34146 9.14498 1.41605 8.9649 1.41605 8.77713C1.41204 7.37541 1.68608 5.98681 2.22231 4.69172C2.75855 3.39662 3.54633 2.22073 4.54005 1.23213C4.67244 1.0994 4.74679 0.919592 4.74679 0.732128C4.74679 0.544664 4.67244 0.364852 4.54005 0.232128V0.232128Z" fill="white"/>
<path d="M17.478 2.37766C17.3456 2.51039 17.2713 2.6902 17.2713 2.87766C17.2713 3.06513 17.3456 3.24494 17.478 3.37766C18.1894 4.08509 18.7534 4.92664 19.1372 5.85358C19.521 6.78051 19.7171 7.7744 19.714 8.77766C19.714 8.96543 19.7886 9.14551 19.9214 9.27829C20.0542 9.41107 20.2343 9.48566 20.422 9.48566C20.6098 9.48566 20.7899 9.41107 20.9227 9.27829C21.0554 9.14551 21.13 8.96543 21.13 8.77766C21.1336 7.58863 20.9011 6.41073 20.4463 5.31215C19.9914 4.21357 19.3231 3.21616 18.48 2.37766C18.4143 2.31181 18.3362 2.25956 18.2502 2.22392C18.1642 2.18827 18.0721 2.16992 17.979 2.16992C17.886 2.16992 17.7938 2.18827 17.7079 2.22392C17.6219 2.25956 17.5438 2.31181 17.478 2.37766V2.37766Z" fill="white"/>
<path d="M6.68404 2.37861C6.55131 2.24622 6.3715 2.17188 6.18404 2.17188C5.99657 2.17188 5.81676 2.24622 5.68404 2.37861C4.84104 3.21713 4.17276 4.21456 3.71788 5.31313C3.263 6.4117 3.03057 7.58959 3.03403 8.77861C3.03403 8.96638 3.10863 9.14647 3.2414 9.27924C3.37418 9.41202 3.55426 9.48661 3.74204 9.48661C3.92981 9.48661 4.10989 9.41202 4.24267 9.27924C4.37544 9.14647 4.45004 8.96638 4.45004 8.77861C4.44699 7.77535 4.64306 6.78147 5.02688 5.85453C5.4107 4.92759 5.97464 4.08603 6.68604 3.37861C6.81816 3.24562 6.89215 3.06566 6.89178 2.8782C6.8914 2.69073 6.81669 2.51107 6.68404 2.37861Z" fill="white"/>
<path d="M18.0971 13.9215V10.2975C18.1012 8.98725 17.6734 7.71219 16.8801 6.66947C16.211 5.78943 15.3145 5.10865 14.2871 4.70047C14.2167 4.16523 13.9541 3.67384 13.5482 3.31787C13.1424 2.9619 12.6209 2.76563 12.0811 2.76562C11.5412 2.76563 11.0198 2.9619 10.6139 3.31787C10.2081 3.67384 9.94548 4.16523 9.87508 4.70047C8.84771 5.10869 7.9512 5.78947 7.28208 6.66947C6.48866 7.71216 6.06093 8.98724 6.06508 10.2975V13.9215L4.62308 16.8055C4.56926 16.9134 4.54389 17.0332 4.54938 17.1537C4.55486 17.2741 4.59102 17.3912 4.65442 17.4937C4.71782 17.5963 4.80637 17.681 4.91166 17.7397C5.01695 17.7985 5.13551 17.8294 5.25608 17.8295H8.40708C8.57095 18.6835 9.02731 19.4538 9.69766 20.0077C10.368 20.5617 11.2105 20.8647 12.0801 20.8647C12.9497 20.8647 13.7921 20.5617 14.4625 20.0077C15.1328 19.4538 15.5892 18.6835 15.7531 17.8295H18.9041C19.0247 17.8294 19.1432 17.7985 19.2485 17.7397C19.3538 17.681 19.4423 17.5963 19.5057 17.4937C19.5691 17.3912 19.6053 17.2741 19.6108 17.1537C19.6163 17.0332 19.5909 16.9134 19.5371 16.8055L18.0971 13.9215ZM12.0811 19.4465C11.5883 19.4459 11.1084 19.2891 10.7103 18.9986C10.3123 18.708 10.0167 18.2987 9.86608 17.8295H14.2961C14.1448 18.2978 13.849 18.7061 13.4513 18.9959C13.0535 19.2857 12.5742 19.442 12.0821 19.4425L12.0811 19.4465ZM15.1141 16.4135H6.40308L7.40308 14.4055C7.45241 14.3071 7.4781 14.1985 7.47808 14.0885V10.2975C7.48238 9.30805 7.80373 8.34607 8.39497 7.55272C8.9862 6.75937 9.81618 6.17643 10.7631 5.88947C10.9092 5.84598 11.0373 5.75651 11.1285 5.63435C11.2196 5.5122 11.269 5.36389 11.2691 5.21147V4.99047C11.2765 4.78096 11.3649 4.5825 11.5157 4.43689C11.6665 4.29128 11.8679 4.20991 12.0776 4.20991C12.2872 4.20991 12.4887 4.29128 12.6395 4.43689C12.7903 4.5825 12.8787 4.78096 12.8861 4.99047V5.21147C12.8862 5.36389 12.9355 5.5122 13.0267 5.63435C13.1178 5.75651 13.246 5.84598 13.3921 5.88947C14.339 6.17643 15.169 6.75937 15.7602 7.55272C16.3514 8.34607 16.6728 9.30805 16.6771 10.2975V14.0885C16.6771 14.1985 16.7028 14.3071 16.7521 14.4055L17.7521 16.4135H15.1141Z" fill="white"/>
</svg>
