<svg width="24" height="24" viewBox="0 0 24 24" fill="none" xmlns="http://www.w3.org/2000/svg">
<path d="M0 10.4154C0.0750195 10.2811 0.187549 10.2107 0.318833 10.1532C4.95129 8.13209 9.58375 6.1046 14.21 4.08352C17.2607 2.74679 20.3115 1.41645 23.3623 0.0797215C23.6749 -0.0609871 23.8062 -0.022612 24 0.252409C24 0.380326 24 0.508243 24 0.63616C23.7437 1.67868 23.4811 2.7276 23.231 3.77012C22.1558 8.22163 21.0805 12.6731 20.0115 17.1246C19.6301 18.7044 19.2488 20.2906 18.8674 21.8704C18.7611 22.3053 18.5361 22.414 18.1422 22.2029C16.7731 21.4866 15.3978 20.7703 14.0349 20.0475C13.8536 19.9516 13.7348 19.9452 13.566 20.0987C12.2657 21.3395 10.9466 22.5739 9.64001 23.8083C9.29617 24.1345 8.97109 24.0385 8.8523 23.5653C8.16463 20.8598 7.47695 18.1544 6.78927 15.4489C6.74551 15.289 6.67049 15.1867 6.53295 15.1036C4.45741 13.7412 2.38812 12.3853 0.318833 11.0294C0.200052 10.9527 0.0812712 10.8759 0 10.7544C0 10.6393 0 10.5305 0 10.4154ZM22.7184 2.43339C22.6559 2.49095 22.6434 2.50375 22.6371 2.51654C19.03 7.57565 15.4228 12.6412 11.8156 17.7003C11.6968 17.873 11.7406 17.9241 11.8968 18.0073C13.0409 18.6021 14.1787 19.2033 15.3165 19.7981C16.198 20.2586 17.0857 20.7191 17.9672 21.186C18.1297 21.2755 18.1985 21.25 18.2297 21.0581C18.2548 20.8854 18.311 20.7191 18.3485 20.5464C19.5801 15.4297 20.8179 10.3131 22.0495 5.1964C22.2683 4.29458 22.4871 3.38637 22.7184 2.43339ZM21.2618 1.94091C21.2555 1.93452 21.2493 1.92172 21.243 1.91533C21.1368 1.9601 21.0242 2.00487 20.9179 2.05604C16.6793 3.91083 12.4407 5.75923 8.20214 7.61402C5.95155 8.59898 3.70722 9.57755 1.45663 10.5625C1.40036 10.5881 1.31909 10.5881 1.30659 10.6648C1.30034 10.7416 1.38161 10.7608 1.43162 10.7928C1.76921 11.0166 2.10055 11.2341 2.43813 11.4515C3.90727 12.4109 5.37015 13.3703 6.83928 14.3361C6.97682 14.4256 7.07684 14.4384 7.20813 14.3169C8.23339 13.4023 9.26491 12.5004 10.2964 11.5922C12.4782 9.67348 14.6538 7.75473 16.8356 5.83598C18.3173 4.53123 19.7864 3.23287 21.2618 1.94091ZM21.0742 3.27125C20.9555 3.27764 20.9117 3.35439 20.8554 3.40556C18.7986 5.21558 16.7481 7.01921 14.6913 8.82923C12.3845 10.8631 10.0776 12.897 7.76452 14.9245C7.58948 15.078 7.55822 15.2187 7.61448 15.4361C8.13337 17.4508 8.646 19.4719 9.15863 21.4866C9.2024 21.6593 9.25241 21.832 9.30242 22.0175C9.38369 21.9407 9.38994 21.8576 9.41495 21.7872C9.82131 20.5464 10.2214 19.2992 10.6215 18.0584C10.6653 17.9305 10.7153 17.809 10.7903 17.6939C13.9724 13.2488 17.142 8.79725 20.3115 4.35214C20.5616 4.00037 20.8117 3.64221 21.0742 3.27125ZM10.1902 22.0814C10.2027 22.0942 10.2214 22.107 10.2339 22.1198C11.1154 21.2883 11.9969 20.4505 12.8784 19.619C12.9909 19.5167 12.9034 19.4719 12.8221 19.4335C12.372 19.1969 11.9156 18.9602 11.4655 18.7236C11.3405 18.6596 11.2904 18.6852 11.2467 18.8195C10.9028 19.9004 10.5465 20.9941 10.1902 22.0814Z" fill="white"/>
</svg>
