<svg width="18" height="21" viewBox="0 0 18 21" fill="none" xmlns="http://www.w3.org/2000/svg">
<path d="M14.4551 13.8085C14.0218 13.809 13.5933 13.9001 13.1972 14.0759C12.8011 14.2518 12.4462 14.5084 12.1551 14.8295L7.02012 11.6515C7.3045 10.925 7.3045 10.118 7.02012 9.39153L12.1511 6.21353C12.6746 6.78768 13.3938 7.14552 14.1675 7.21688C14.9412 7.28824 15.7136 7.06796 16.3333 6.59925C16.953 6.13054 17.3753 5.44722 17.5172 4.68331C17.6592 3.91939 17.5106 3.13001 17.1006 2.46997C16.6907 1.80993 16.0489 1.32687 15.3012 1.11553C14.5535 0.904191 13.7538 0.979818 13.059 1.32758C12.3642 1.67534 11.8244 2.27015 11.5454 2.99533C11.2664 3.72052 11.2685 4.52377 11.5511 5.24753L6.42112 8.42553C5.99802 7.95982 5.44388 7.63307 4.83157 7.48823C4.21926 7.3434 3.57745 7.38726 2.99054 7.61406C2.40364 7.84086 1.89911 8.23997 1.5433 8.75891C1.18749 9.27785 0.99707 9.89232 0.99707 10.5215C0.99707 11.1507 1.18749 11.7652 1.5433 12.2841C1.89911 12.8031 2.40364 13.2022 2.99054 13.429C3.57745 13.6558 4.21926 13.6997 4.83157 13.5548C5.44388 13.41 5.99802 13.0832 6.42112 12.6175L11.5521 15.7955C11.3107 16.416 11.2743 17.0975 11.4484 17.7401C11.6224 18.3827 11.9977 18.9527 12.5193 19.3665C13.0408 19.7803 13.6812 20.0162 14.3466 20.0396C15.012 20.063 15.6673 19.8726 16.2166 19.4964C16.766 19.1203 17.1803 18.578 17.3991 17.9492C17.6178 17.3204 17.6293 16.638 17.432 16.0021C17.2347 15.3663 16.839 14.8103 16.3027 14.4157C15.7664 14.0211 15.1179 13.8087 14.4521 13.8095L14.4551 13.8085ZM12.4751 4.11753C12.4751 3.72592 12.5912 3.34311 12.8088 3.0175C13.0264 2.69189 13.3356 2.43811 13.6974 2.28825C14.0592 2.13839 14.4573 2.09918 14.8414 2.17557C15.2255 2.25197 15.5783 2.44055 15.8552 2.71746C16.1321 2.99437 16.3207 3.34717 16.3971 3.73125C16.4735 4.11533 16.4343 4.51344 16.2844 4.87524C16.1345 5.23704 15.8808 5.54627 15.5551 5.76384C15.2295 5.9814 14.8467 6.09753 14.4551 6.09753C13.9302 6.097 13.4268 5.88822 13.0556 5.51702C12.6844 5.14581 12.4756 4.6425 12.4751 4.11753V4.11753ZM4.11612 12.5005C3.72464 12.4997 3.34218 12.3829 3.01708 12.1648C2.69197 11.9467 2.43882 11.6372 2.2896 11.2752C2.14038 10.9133 2.1018 10.5153 2.17873 10.1314C2.25566 9.74759 2.44465 9.39516 2.72182 9.1187C2.99898 8.84223 3.35188 8.65413 3.73592 8.57817C4.11996 8.5022 4.5179 8.54179 4.87945 8.69192C5.24099 8.84205 5.54992 9.09599 5.76719 9.42165C5.98446 9.7473 6.10032 10.1301 6.10012 10.5215C6.09932 11.047 5.88988 11.5507 5.51784 11.9218C5.14579 12.2929 4.64161 12.5011 4.11612 12.5005ZM12.4751 16.9245C12.4751 16.5329 12.5912 16.1501 12.8088 15.8245C13.0264 15.4989 13.3356 15.2451 13.6974 15.0952C14.0592 14.9454 14.4573 14.9062 14.8414 14.9826C15.2255 15.059 15.5783 15.2475 15.8552 15.5245C16.1321 15.8014 16.3207 16.1542 16.3971 16.5383C16.4735 16.9223 16.4343 17.3204 16.2844 17.6822C16.1345 18.044 15.8808 18.3533 15.5551 18.5708C15.2295 18.7884 14.8467 18.9045 14.4551 18.9045C13.9303 18.904 13.4272 18.6954 13.056 18.3244C12.6848 17.9534 12.4759 17.4503 12.4751 16.9255V16.9245Z" fill="#293241"/>
</svg>
