<svg width="17" height="20" viewBox="0 0 17 20" fill="none" xmlns="http://www.w3.org/2000/svg">
<path d="M13.458 12.8105C13.0247 12.811 12.5962 12.9021 12.2001 13.0779C11.804 13.2537 11.4491 13.5104 11.158 13.8315L6.02305 10.6535C6.30743 9.92699 6.30743 9.11998 6.02305 8.39348L11.154 5.21548C11.6776 5.78963 12.3967 6.14748 13.1704 6.21883C13.9441 6.29019 14.7166 6.06992 15.3363 5.60121C15.956 5.1325 16.3782 4.44918 16.5201 3.68526C16.6621 2.92135 16.5135 2.13196 16.1035 1.47192C15.6936 0.811887 15.0518 0.328826 14.3041 0.117485C13.5564 -0.0938562 12.7568 -0.0182293 12.0619 0.329533C11.3671 0.677295 10.8273 1.2721 10.5483 1.99729C10.2694 2.72248 10.2714 3.52572 10.554 4.24948L5.42405 7.42748C5.00095 6.96178 4.44681 6.63502 3.8345 6.49019C3.22219 6.34535 2.58038 6.38921 1.99347 6.61601C1.40657 6.84281 0.902036 7.24192 0.54623 7.76086C0.190423 8.2798 0 8.89428 0 9.52348C0 10.1527 0.190423 10.7672 0.54623 11.2861C0.902036 11.805 1.40657 12.2042 1.99347 12.431C2.58038 12.6577 3.22219 12.7016 3.8345 12.5568C4.44681 12.4119 5.00095 12.0852 5.42405 11.6195L10.555 14.7975C10.3136 15.4179 10.2772 16.0994 10.4513 16.7421C10.6253 17.3847 11.0006 17.9547 11.5222 18.3685C12.0438 18.7823 12.6841 19.0182 13.3495 19.0416C14.0149 19.0649 14.6703 18.8746 15.2196 18.4984C15.7689 18.1222 16.1833 17.58 16.402 16.9511C16.6207 16.3223 16.6323 15.64 16.435 15.0041C16.2377 14.3682 15.8419 13.8122 15.3056 13.4177C14.7694 13.0231 14.1208 12.8107 13.455 12.8115L13.458 12.8105ZM11.478 3.11948C11.478 2.72788 11.5942 2.34506 11.8117 2.01945C12.0293 1.69384 12.3385 1.44006 12.7003 1.2902C13.0621 1.14034 13.4602 1.10113 13.8443 1.17753C14.2284 1.25393 14.5812 1.4425 14.8581 1.71941C15.135 1.99632 15.3236 2.34912 15.4 2.7332C15.4764 3.11729 15.4372 3.5154 15.2873 3.8772C15.1375 4.23899 14.8837 4.54823 14.5581 4.76579C14.2325 4.98336 13.8497 5.09948 13.458 5.09948C12.9331 5.09895 12.4298 4.89018 12.0586 4.51897C11.6874 4.14776 11.4786 3.64445 11.478 3.11948V3.11948ZM3.11905 11.5025C2.72757 11.5017 2.34511 11.3849 2.02001 11.1668C1.6949 10.9487 1.44175 10.6391 1.29253 10.2772C1.14331 9.91527 1.10473 9.51724 1.18166 9.13339C1.25859 8.74954 1.44758 8.39712 1.72474 8.12065C2.00191 7.84418 2.35481 7.65608 2.73885 7.58012C3.12289 7.50416 3.52083 7.54374 3.88238 7.69387C4.24392 7.84401 4.55285 8.09794 4.77012 8.4236C4.98739 8.74925 5.10325 9.132 5.10305 9.52348C5.10225 10.049 4.89281 10.5526 4.52077 10.9237C4.14872 11.2948 3.64453 11.503 3.11905 11.5025ZM11.478 15.9265C11.478 15.5349 11.5942 15.1521 11.8117 14.8265C12.0293 14.5008 12.3385 14.2471 12.7003 14.0972C13.0621 13.9473 13.4602 13.9081 13.8443 13.9845C14.2284 14.0609 14.5812 14.2495 14.8581 14.5264C15.135 14.8033 15.3236 15.1561 15.4 15.5402C15.4764 15.9243 15.4372 16.3224 15.2873 16.6842C15.1375 17.046 14.8837 17.3552 14.5581 17.5728C14.2325 17.7904 13.8497 17.9065 13.458 17.9065C12.9333 17.906 12.4301 17.6973 12.0589 17.3263C11.6877 16.9553 11.4788 16.4523 11.478 15.9275V15.9265Z" fill="white"/>
</svg>
