<svg width="33" height="33" viewBox="0 0 33 33" fill="none" xmlns="http://www.w3.org/2000/svg">
<path d="M31.137 18.7389C31.3045 17.8298 31.3891 16.9073 31.39 15.9829C31.3914 13.9864 30.9991 12.0093 30.2357 10.1645C29.4723 8.3198 28.3527 6.64364 26.941 5.23193C25.5293 3.82022 23.8531 2.70065 22.0084 1.93724C20.1636 1.17383 18.1865 0.781572 16.19 0.782887C15.2239 0.782455 14.26 0.873528 13.311 1.05489H13.303C11.5899 0.142878 9.62763 -0.190498 7.70938 0.104546C5.79113 0.399589 4.01977 1.30722 2.65984 2.6919C1.29992 4.07658 0.424376 5.86401 0.163975 7.78727C-0.0964257 9.71054 0.272283 11.6664 1.21504 13.3629C1.06273 14.228 0.985112 15.1045 0.98304 15.9829C0.98304 20.0142 2.58446 23.8804 5.43502 26.7309C8.28557 29.5815 12.1518 31.1829 16.183 31.1829C17.0756 31.1818 17.9663 31.1024 18.845 30.9459C20.5528 31.908 22.528 32.2862 24.4705 32.0231C26.4129 31.76 28.2163 30.87 29.6066 29.4882C30.997 28.1065 31.8982 26.3086 32.1733 24.3679C32.4485 22.4271 32.0825 20.4496 31.131 18.7359L31.137 18.7389Z" fill="#00AFF0"/>
<path d="M16.2501 25.2938C10.8501 25.2938 8.43305 22.6388 8.43305 20.6488C8.42775 20.4146 8.47091 20.1818 8.55982 19.965C8.64874 19.7483 8.7815 19.5523 8.94976 19.3893C9.11803 19.2262 9.31816 19.0998 9.53762 19.0178C9.75708 18.9358 9.99112 18.9 10.225 18.9128C12.536 18.9128 11.9381 22.2318 16.2501 22.2318C18.4581 22.2318 19.6771 21.0318 19.6771 19.8068C19.6771 19.0688 19.313 18.2508 17.859 17.8928L13.059 16.6928C9.19005 15.7228 8.48805 13.6308 8.48805 11.6648C8.48805 7.58278 12.3311 6.05078 15.9401 6.05078C19.2651 6.05078 23.184 7.88778 23.184 10.3368C23.1721 10.5761 23.1114 10.8104 23.0056 11.0253C22.8998 11.2403 22.7511 11.4313 22.5688 11.5867C22.3864 11.7421 22.1742 11.8585 21.9452 11.9289C21.7162 11.9992 21.4752 12.022 21.2371 11.9958C19.2651 11.9958 19.627 9.26578 15.654 9.26578C13.682 9.26578 12.5901 10.1588 12.5901 11.4358C12.5901 12.7128 14.147 13.1178 15.499 13.4258L19.055 14.2148C22.95 15.0828 23.9371 17.3568 23.9371 19.4978C23.9371 22.8148 21.3911 25.2918 16.2521 25.2918L16.2501 25.2938Z" fill="white"/>
</svg>
