<svg width="26" height="26" viewBox="0 0 26 26" fill="none" xmlns="http://www.w3.org/2000/svg">
<path d="M13.149 0.578125C15.5364 0.578125 17.8702 1.28608 19.8553 2.61246C21.8404 3.93883 23.3875 5.82407 24.3012 8.02975C25.2148 10.2354 25.4538 12.6625 24.9881 15.0041C24.5223 17.3456 23.3726 19.4965 21.6845 21.1846C19.9963 22.8728 17.8455 24.0224 15.5039 24.4882C13.1624 24.9539 10.7353 24.7149 8.52963 23.8013C6.32394 22.8876 4.43871 21.3405 3.11233 19.3554C1.78595 17.3703 1.078 15.0365 1.078 12.6491C1.078 9.4477 2.34977 6.37739 4.61352 4.11364C6.87727 1.84989 9.94757 0.578125 13.149 0.578125V0.578125ZM18.636 10.4541C18.636 10.2366 18.5715 10.0239 18.4506 9.843C18.3297 9.6621 18.158 9.52111 17.957 9.43786C17.756 9.3546 17.5348 9.33282 17.3214 9.37526C17.108 9.41771 16.912 9.52247 16.7582 9.67631C16.6043 9.83015 16.4996 10.0261 16.4571 10.2395C16.4147 10.4529 16.4365 10.6741 16.5197 10.8751C16.603 11.0761 16.744 11.2479 16.9249 11.3687C17.1058 11.4896 17.3184 11.5541 17.536 11.5541C17.8276 11.5539 18.1071 11.4379 18.3132 11.2316C18.5192 11.0253 18.635 10.7457 18.635 10.4541H18.636ZM9.857 10.4541C9.857 10.2366 9.79249 10.0239 9.67162 9.843C9.55075 9.6621 9.37895 9.52111 9.17795 9.43786C8.97696 9.3546 8.75578 9.33282 8.5424 9.37526C8.32902 9.41771 8.13302 9.52247 7.97919 9.67631C7.82535 9.83015 7.72058 10.0261 7.67814 10.2395C7.6357 10.4529 7.65748 10.6741 7.74074 10.8751C7.82399 11.0761 7.96498 11.2479 8.14588 11.3687C8.32677 11.4896 8.53944 11.5541 8.757 11.5541C9.04874 11.5541 9.32853 11.4382 9.53482 11.2319C9.74111 11.0257 9.857 10.7459 9.857 10.4541Z" fill="#FFE5DF"/>
<path d="M18.636 10.4574C18.636 10.6752 18.5714 10.8881 18.4503 11.0691C18.3292 11.2501 18.1571 11.3911 17.9558 11.4742C17.7545 11.5573 17.5331 11.5788 17.3196 11.5359C17.1061 11.4931 16.9101 11.3878 16.7564 11.2335C16.6028 11.0791 16.4984 10.8827 16.4566 10.669C16.4147 10.4552 16.4372 10.2339 16.5212 10.033C16.6052 9.8321 16.747 9.66065 16.9286 9.54038C17.1101 9.42011 17.3233 9.35644 17.541 9.35743C17.8319 9.35876 18.1104 9.47523 18.3156 9.68138C18.5208 9.88753 18.636 10.1666 18.636 10.4574V10.4574Z" fill="#FFE5DF"/>
<path d="M9.85698 10.4574C9.85698 10.6752 9.79234 10.8881 9.67125 11.0691C9.55015 11.2501 9.37806 11.3911 9.17677 11.4742C8.97548 11.5573 8.75405 11.5788 8.54054 11.5359C8.32702 11.4931 8.13103 11.3878 7.9774 11.2335C7.82376 11.0791 7.71939 10.8827 7.67751 10.669C7.63564 10.4552 7.65813 10.2339 7.74216 10.033C7.82618 9.8321 7.96795 9.66065 8.1495 9.54038C8.33105 9.42011 8.54421 9.35644 8.76198 9.35743C9.05285 9.35876 9.33136 9.47523 9.53657 9.68138C9.74178 9.88753 9.85699 10.1666 9.85698 10.4574V10.4574Z" fill="#FFE5DF"/>
<path d="M13.148 0.0292969C10.6523 0.0294947 8.21262 0.769754 6.13757 2.15647C4.06251 3.54318 2.44526 5.51407 1.49031 7.81991C0.535363 10.1257 0.285608 12.663 0.772627 15.1108C1.25965 17.5585 2.46157 19.8069 4.22641 21.5716C5.99125 23.3363 8.23974 24.5381 10.6876 25.0249C13.1354 25.5117 15.6726 25.2618 17.9783 24.3066C20.2841 23.3515 22.2549 21.7341 23.6414 19.6589C25.028 17.5838 25.768 15.1441 25.768 12.6483C25.7641 9.30258 24.4332 6.09504 22.0673 3.72935C19.7014 1.36366 16.4938 0.033002 13.148 0.0292969V0.0292969ZM13.148 24.1703C10.8692 24.1703 8.64154 23.4945 6.74675 22.2285C4.85197 20.9624 3.37517 19.1629 2.5031 17.0576C1.63102 14.9522 1.40285 12.6355 1.84743 10.4005C2.29201 8.16542 3.38937 6.11239 5.00075 4.50101C6.61213 2.88963 8.66515 1.79227 10.9002 1.34769C13.1353 0.90311 15.4519 1.13128 17.5573 2.00336C19.6627 2.87543 21.4622 4.35223 22.7282 6.24702C23.9943 8.1418 24.67 10.3695 24.67 12.6483C24.6666 15.7031 23.4516 18.6317 21.2915 20.7918C19.1315 22.9518 16.2028 24.1669 13.148 24.1703V24.1703Z" fill="#E25D3E"/>
<path d="M10.405 10.4546C10.405 10.129 10.3085 9.81081 10.1276 9.54013C9.94677 9.26944 9.6897 9.05847 9.38893 8.93389C9.08817 8.80931 8.75721 8.77671 8.43792 8.84022C8.11863 8.90373 7.82534 9.0605 7.59514 9.2907C7.36494 9.52089 7.20818 9.81418 7.14467 10.1335C7.08115 10.4528 7.11375 10.7837 7.23833 11.0845C7.36291 11.3853 7.57389 11.6423 7.84457 11.8232C8.11525 12.0041 8.43349 12.1006 8.75904 12.1006C9.19542 12.1001 9.61378 11.9265 9.92235 11.6179C10.2309 11.3093 10.4045 10.891 10.405 10.4546V10.4546ZM8.21004 10.4546C8.21004 10.346 8.24224 10.2399 8.30256 10.1496C8.36289 10.0593 8.44863 9.98894 8.54894 9.94738C8.64926 9.90583 8.75965 9.89496 8.86614 9.91614C8.97264 9.93733 9.07046 9.98961 9.14724 10.0664C9.22402 10.1432 9.27631 10.241 9.29749 10.3475C9.31867 10.454 9.3078 10.5644 9.26625 10.6647C9.2247 10.765 9.15433 10.8507 9.06405 10.9111C8.97376 10.9714 8.86762 11.0036 8.75904 11.0036C8.61404 11.0025 8.47532 10.9443 8.37306 10.8415C8.27081 10.7386 8.2133 10.5996 8.21304 10.4546H8.21004Z" fill="#E25D3E"/>
<path d="M17.5381 8.80859C17.2125 8.80859 16.8943 8.90513 16.6236 9.08599C16.3529 9.26686 16.142 9.52393 16.0174 9.8247C15.8928 10.1255 15.8602 10.4564 15.9237 10.7757C15.9872 11.095 16.144 11.3883 16.3742 11.6185C16.6044 11.8487 16.8977 12.0055 17.217 12.069C17.5363 12.1325 17.8672 12.0999 18.168 11.9753C18.4688 11.8507 18.7258 11.6397 18.9067 11.3691C19.0876 11.0984 19.1841 10.7801 19.1841 10.4546C19.1836 10.0182 19.01 9.59985 18.7014 9.29128C18.3928 8.98271 17.9745 8.80912 17.5381 8.80859V8.80859ZM17.5381 11.0036C17.4295 11.0036 17.3234 10.9714 17.2331 10.9111C17.1428 10.8507 17.0724 10.765 17.0309 10.6647C16.9893 10.5644 16.9785 10.454 16.9996 10.3475C17.0208 10.241 17.0731 10.1432 17.1499 10.0664C17.2267 9.98961 17.3245 9.93733 17.431 9.91614C17.5375 9.89496 17.6479 9.90583 17.7482 9.94738C17.8485 9.98894 17.9342 10.0593 17.9946 10.1496C18.0549 10.2399 18.0871 10.346 18.0871 10.4546C18.0868 10.6001 18.0289 10.7396 17.926 10.8425C17.8231 10.9454 17.6836 11.0033 17.5381 11.0036V11.0036Z" fill="#E25D3E"/>
<path d="M17.677 15.5738C17.1065 16.2095 16.4084 16.7177 15.6282 17.0653C14.8479 17.4128 14.0032 17.5919 13.149 17.5908C12.2948 17.591 11.45 17.4115 10.6696 17.064C9.88916 16.7165 9.19053 16.2088 8.61905 15.5738C8.52072 15.4699 8.38567 15.4084 8.24267 15.4025C8.09968 15.3966 7.96004 15.4468 7.85352 15.5424C7.74699 15.638 7.682 15.7714 7.67238 15.9142C7.66277 16.057 7.70929 16.1979 7.80205 16.3068C8.47699 17.0555 9.3018 17.6539 10.223 18.0633C11.1441 18.4726 12.141 18.6837 13.149 18.6828C14.1573 18.6844 15.1545 18.4735 16.0758 18.0639C16.997 17.6544 17.8217 17.0554 18.496 16.3058C18.5931 16.1972 18.6431 16.0545 18.6349 15.9091C18.6268 15.7637 18.5612 15.6274 18.4525 15.5303C18.3439 15.4333 18.2012 15.3833 18.0558 15.3915C17.9104 15.3996 17.7741 15.4652 17.677 15.5738V15.5738Z" fill="#E25D3E"/>
</svg>
