<svg width="22" height="21" viewBox="0 0 22 21" fill="none" xmlns="http://www.w3.org/2000/svg">
<path d="M4.79162 20.5189C4.62074 20.5185 4.45214 20.4797 4.29829 20.4053C4.14444 20.3309 4.00927 20.2229 3.90279 20.0893C3.79631 19.9556 3.72124 19.7997 3.68313 19.6332C3.64502 19.4666 3.64485 19.2936 3.68262 19.1269L5.06062 13.0589L0.388621 8.96292C0.221077 8.8162 0.100221 8.62358 0.0410038 8.4089C-0.0182137 8.19421 -0.0131944 7.96687 0.0554408 7.75501C0.124076 7.54314 0.253315 7.35605 0.427171 7.21686C0.601027 7.07768 0.811872 6.99252 1.03362 6.97192L7.21462 6.40692L9.65862 0.690919C9.7462 0.485909 9.89207 0.31114 10.0781 0.18831C10.2642 0.06548 10.4822 0 10.7051 0C10.9281 0 11.1461 0.06548 11.3321 0.18831C11.5182 0.31114 11.664 0.485909 11.7516 0.690919L14.1986 6.40692L20.3786 6.96792C20.6005 6.98818 20.8116 7.07309 20.9858 7.21214C21.1599 7.35119 21.2894 7.53826 21.3583 7.75019C21.4272 7.96212 21.4323 8.18959 21.3732 8.40444C21.3141 8.61929 21.1932 8.81207 21.0256 8.95892L16.3536 13.0589L17.7316 19.1269C17.7812 19.3442 17.7658 19.5712 17.6875 19.7799C17.6091 19.9885 17.4713 20.1696 17.291 20.3005C17.1107 20.4315 16.8959 20.5067 16.6733 20.5167C16.4506 20.5267 16.23 20.4712 16.0386 20.3569L10.7086 17.1719L5.37862 20.3589C5.20212 20.4646 5.00033 20.5205 4.79462 20.5209L4.79162 20.5189ZM10.7056 15.7979C10.9112 15.798 11.113 15.8536 11.2896 15.9589L16.3196 18.9679L15.0196 13.2409C14.9742 13.0407 14.9837 12.8319 15.0473 12.6367C15.1108 12.4414 15.226 12.267 15.3806 12.1319L19.7916 8.26292L13.9556 7.73292C13.7502 7.71453 13.5536 7.6406 13.387 7.51905C13.2203 7.39751 13.0899 7.23292 13.0096 7.04292L10.7096 1.64292L8.39862 7.04492C8.31844 7.23413 8.18834 7.39799 8.02225 7.51899C7.85615 7.64 7.6603 7.7136 7.45562 7.73192L1.61862 8.26192L6.02962 12.1309C6.18459 12.266 6.30001 12.4405 6.36359 12.636C6.42716 12.8315 6.4365 13.0405 6.39062 13.2409L5.09062 18.9679L10.1206 15.9599C10.2972 15.8546 10.499 15.7989 10.7046 15.7989L10.7056 15.7979Z" fill="#293241"/>
</svg>
