<svg width="45" height="31" viewBox="0 0 45 31" fill="none" xmlns="http://www.w3.org/2000/svg">
<path d="M43.421 4.92148C43.1716 4.00178 42.6858 3.16336 42.012 2.48954C41.3382 1.81571 40.4997 1.32994 39.58 1.08048C36.169 0.146484 22.526 0.146484 22.526 0.146484C22.526 0.146484 8.88303 0.146484 5.47203 1.04648C4.55365 1.30916 3.71821 1.80352 3.04594 2.4821C2.37366 3.16068 1.88712 4.00069 1.63303 4.92148C0.733032 8.33248 0.733032 15.4055 0.733032 15.4055C0.733032 15.4055 0.733032 22.5145 1.63303 25.8885C1.88251 26.8084 2.3684 27.6471 3.04241 28.3211C3.71642 28.9951 4.55507 29.481 5.47503 29.7305C8.92103 30.6635 22.529 30.6635 22.529 30.6635C22.529 30.6635 36.172 30.6635 39.583 29.7635C40.5029 29.5142 41.3415 29.0285 42.0156 28.3546C42.6896 27.6808 43.1755 26.8423 43.425 25.9225C44.325 22.5115 44.325 15.4395 44.325 15.4395C44.325 15.4395 44.361 8.33048 43.425 4.92048L43.421 4.92148Z" fill="#FF0000"/>
<path d="M18.182 21.9391L29.527 15.4051L18.182 8.87109V21.9391Z" fill="white"/>
</svg>
