<svg id="notification_8_" data-name="notification (8)" xmlns="http://www.w3.org/2000/svg" width="22.514" height="26.198" viewBox="0 0 22.514 26.198">
  <path id="Path_21314" data-name="Path 21314" d="M19.07,24.151h7.163v1.023a1.023,1.023,0,0,0,2.047,0V24.151h7.163a3.07,3.07,0,0,0,1.428-5.788.919.919,0,0,1-.4-.817v-.558a1.023,1.023,0,1,0-2.047,0v.558a2.923,2.923,0,0,0,1.5,2.628,1.024,1.024,0,0,1-.475,1.93H19.07a1.024,1.024,0,0,1-.475-1.93,2.923,2.923,0,0,0,1.5-2.628V11.257a7.17,7.17,0,0,1,9.262-6.851,1.023,1.023,0,0,0,.6-1.957A9.174,9.174,0,0,0,28.28,2.1V1.023a1.023,1.023,0,0,0-2.047,0V2.1a9.223,9.223,0,0,0-8.187,9.153v6.289a.919.919,0,0,1-.4.817,3.07,3.07,0,0,0,1.428,5.788Z" transform="translate(-16 0)"/>
</svg>
