<svg xmlns="http://www.w3.org/2000/svg" width="28.005" height="28" viewBox="0 0 28.005 28">
  <path id="_046-shopping" data-name="046-shopping" d="M20.015,23.67H11.539a6.57,6.57,0,0,1-6.562-6.562V10.381A9.95,9.95,0,0,0,.492,2.052,1.094,1.094,0,1,1,1.7.226,12.156,12.156,0,0,1,5.53,4.282a6.243,6.243,0,0,0,4.478,1.943H22.6a5.41,5.41,0,0,1,5.227,6.7L26.38,18.7A6.554,6.554,0,0,1,20.015,23.67ZM6.888,7.794a12.221,12.221,0,0,1,.276,2.587v6.726a4.38,4.38,0,0,0,4.375,4.375h8.476a4.369,4.369,0,0,0,4.243-3.31l1.45-5.779A3.214,3.214,0,0,0,22.6,8.412H10.008a8.154,8.154,0,0,1-3.12-.618Zm4.1,18.883a1.367,1.367,0,1,0-1.367,1.367,1.367,1.367,0,0,0,1.367-1.367Zm10.883,0a1.367,1.367,0,1,0-1.367,1.367,1.367,1.367,0,0,0,1.367-1.367ZM23.7,11.693A1.094,1.094,0,0,0,22.6,10.6H10.445a1.094,1.094,0,0,0,0,2.187H22.6A1.094,1.094,0,0,0,23.7,11.693Z" transform="translate(0 -0.045)" fill="#293241"/>
</svg>
