<svg xmlns="http://www.w3.org/2000/svg" width="27.131" height="26" viewBox="0 0 27.131 26">
  <path id="star_26_" data-name="star (26)" d="M6.073,26.493a1.444,1.444,0,0,1-1.405-1.764L6.413,17.04.494,11.849a1.443,1.443,0,0,1,.817-2.523l7.832-.711,3.1-7.246a1.442,1.442,0,0,1,2.652,0l3.1,7.248,7.831.711a1.444,1.444,0,0,1,.82,2.523l-5.919,5.19,1.745,7.688a1.442,1.442,0,0,1-2.146,1.558L13.566,22.25,6.812,26.288a1.445,1.445,0,0,1-.739.2Zm7.493-5.981a1.446,1.446,0,0,1,.739.2l6.374,3.812-1.647-7.257a1.442,1.442,0,0,1,.457-1.405l5.589-4.9-7.395-.672a1.44,1.44,0,0,1-1.2-.874L13.566,2.58,10.644,9.42a1.436,1.436,0,0,1-1.195.871l-7.4.672,5.589,4.9A1.439,1.439,0,0,1,8.1,17.27L6.453,24.527l6.374-3.811a1.445,1.445,0,0,1,.739-.2ZM9.084,8.755a0,0,0,0,1,0,0Zm8.962,0v0S18.047,8.753,18.046,8.752Zm0,0" transform="translate(-0.001 -0.492)" fill="#293241"/>
</svg>
