<svg width="54" height="54" viewBox="0 0 54 54" fill="none" xmlns="http://www.w3.org/2000/svg">
<rect width="54" height="54" rx="27" fill="#FFE5DF"/>
<path d="M15.2511 18.7761C15.5258 16.8498 16.4196 16.1234 18.2875 16.1234H35.1253C35.4025 16.1356 35.6642 16.2528 35.8559 16.4505C36.0476 16.6482 36.1544 16.9112 36.1541 17.1847V18.7761H15.2511ZM38.3071 18.8235V17.1837C38.3072 16.3475 37.9734 15.5448 37.3779 14.9491C36.7824 14.3534 35.9729 14.0125 35.1244 14H18.2875C13.6031 14 13.0698 17.7623 13.0018 19.7145C12.9994 19.734 12.9994 19.7537 13.0018 19.7731V36.8163C13.0018 37.6606 13.3422 38.4704 13.9481 39.0675C14.554 39.6646 15.3758 40 16.2327 40H37.7691C38.1934 40 38.6135 39.9177 39.0055 39.7577C39.3975 39.5977 39.7537 39.3631 40.0537 39.0675C40.3537 38.7719 40.5917 38.4209 40.7541 38.0346C40.9164 37.6484 41 37.2344 41 36.8163V21.9598C40.9991 21.2081 40.7284 20.481 40.2357 19.9072C39.743 19.3334 39.0602 18.9498 38.3081 18.8244L38.3071 18.8235ZM34.8072 32.0402C34.2482 32.0389 33.707 31.8467 33.2756 31.4963C32.8443 31.146 32.5495 30.6591 32.4414 30.1187C32.3334 29.5782 32.4187 29.0176 32.683 28.5322C32.9473 28.0468 33.3741 27.6666 33.8908 27.4564C34.4075 27.2463 34.9822 27.2191 35.5169 27.3795C36.0517 27.5399 36.5136 27.8779 36.8238 28.3361C37.1341 28.7944 37.2736 29.3444 37.2186 29.8925C37.1636 30.4407 36.9176 30.9532 36.5223 31.3426C36.2969 31.5642 36.0295 31.7399 35.7352 31.8596C35.4409 31.9793 35.1256 32.0407 34.8072 32.0402V32.0402Z" fill="#EE6C4D"/>
</svg>
