<svg id="checked_9_" data-name="checked (9)" xmlns="http://www.w3.org/2000/svg" width="39.066" height="39.066" viewBox="0 0 39.066 39.066">
  <circle id="Ellipse_2987" data-name="Ellipse 2987" cx="19.533" cy="19.533" r="19.533" transform="translate(0 0)" fill="#ee6c4d"/>
  <path id="Path_21440" data-name="Path 21440" d="M188.8,168.637l10.044,10.044a19.52,19.52,0,0,0,14.48-18.855v-.555L205.437,152Z" transform="translate(-174.258 -140.292)" fill="#c85f46"/>
  <g id="Group_59908" data-name="Group 59908" transform="translate(6.562 9.643)">
    <path id="Path_21441" data-name="Path 21441" d="M98.664,208.134a2.307,2.307,0,0,1,0,3.2l-1.787,1.787a2.307,2.307,0,0,1-3.2,0l-7.826-7.887a2.307,2.307,0,0,1,0-3.2l1.787-1.787a2.307,2.307,0,0,1,3.2,0Z" transform="translate(-85.2 -193.869)" fill="#fff"/>
    <path id="Path_21442" data-name="Path 21442" d="M178.6,125.847a2.307,2.307,0,0,1,3.2,0l1.787,1.787a2.307,2.307,0,0,1,0,3.2l-13.556,13.495a2.307,2.307,0,0,1-3.2,0l-1.787-1.787a2.307,2.307,0,0,1,0-3.2Z" transform="translate(-158.3 -125.2)" fill="#fff"/>
  </g>
</svg>
