<svg width="99" height="99" viewBox="0 0 99 99" fill="none" xmlns="http://www.w3.org/2000/svg">
<g filter="url(#filter0_d_1334_55)">
<path d="M49.5 73C65.7924 73 79 59.7924 79 43.5C79 27.2076 65.7924 14 49.5 14C33.2076 14 20 27.2076 20 43.5C20 59.7924 33.2076 73 49.5 73Z" fill="white"/>
<path d="M49.5001 72.8996C65.7373 72.8996 78.9001 59.7368 78.9001 43.4996C78.9001 27.2624 65.7373 14.0996 49.5001 14.0996C33.2629 14.0996 20.1001 27.2624 20.1001 43.4996C20.1001 59.7368 33.2629 72.8996 49.5001 72.8996Z" stroke="#D6D6D6" stroke-width="0.2"/>
</g>
<g opacity="0.4">
<path d="M63.7029 26.3707C63.5943 26.2482 63.4618 26.1493 63.3136 26.0799C63.1654 26.0106 63.0046 25.9722 62.841 25.9673C62.6774 25.9624 62.5146 25.991 62.3624 26.0514C62.2103 26.1117 62.0722 26.2026 61.9564 26.3183C61.8407 26.434 61.7499 26.5721 61.6896 26.7243C61.6292 26.8764 61.6006 27.0392 61.6055 27.2028C61.6104 27.3664 61.6487 27.5272 61.7181 27.6754C61.7875 27.8237 61.8864 27.9561 62.0089 28.0647C63.6902 29.7367 65.0232 31.7255 65.9307 33.9161C66.8383 36.1067 67.3023 38.4556 67.2959 40.8267C67.2959 40.9843 67.3269 41.1403 67.3872 41.2859C67.4475 41.4315 67.5359 41.5638 67.6474 41.6752C67.7588 41.7867 67.8911 41.875 68.0367 41.9354C68.1823 41.9957 68.3383 42.0267 68.4959 42.0267C68.6535 42.0267 68.8095 41.9957 68.9551 41.9354C69.1007 41.875 69.233 41.7867 69.3444 41.6752C69.4558 41.5638 69.5442 41.4315 69.6045 41.2859C69.6648 41.1403 69.6959 40.9843 69.6959 40.8267C69.7025 38.1405 69.1763 35.4797 68.1476 32.9983C67.1189 30.5169 65.6081 28.2642 63.7029 26.3707V26.3707Z" fill="black"/>
<path d="M36.4848 26.3714C36.2599 26.1473 35.9553 26.0215 35.6378 26.0215C35.3203 26.0215 35.0157 26.1473 34.7908 26.3714C32.8866 28.2653 31.3769 30.518 30.3491 32.9992C29.3212 35.4804 28.7957 38.1408 28.8028 40.8264C28.8028 41.1447 28.9292 41.4499 29.1543 41.675C29.3793 41.9 29.6845 42.0264 30.0028 42.0264C30.3211 42.0264 30.6263 41.9 30.8513 41.675C31.0764 41.4499 31.2028 41.1447 31.2028 40.8264C31.196 38.4558 31.6593 36.1074 32.5659 33.917C33.4726 31.7266 34.8045 29.7377 36.4848 28.0654C36.7089 27.8405 36.8348 27.5359 36.8348 27.2184C36.8348 26.9009 36.7089 26.5963 36.4848 26.3714V26.3714Z" fill="black"/>
<path d="M58.3788 29.9989C58.1546 30.2239 58.0288 30.5284 58.0288 30.8459C58.0288 31.1634 58.1546 31.468 58.3788 31.6929C59.5819 32.8895 60.5357 34.3128 61.1851 35.8805C61.8344 37.4482 62.1664 39.1291 62.1617 40.8259C62.1617 41.1442 62.2882 41.4494 62.5132 41.6745C62.7383 41.8995 63.0435 42.0259 63.3618 42.0259C63.68 42.0259 63.9852 41.8995 64.2103 41.6745C64.4353 41.4494 64.5617 41.1442 64.5617 40.8259C64.5673 38.8142 64.1738 36.8213 63.4039 34.9627C62.634 33.104 61.5032 31.4166 60.0768 29.9979C59.9652 29.8864 59.8328 29.798 59.6871 29.7377C59.5414 29.6774 59.3852 29.6464 59.2275 29.6465C59.0698 29.6466 58.9137 29.6778 58.7681 29.7382C58.6224 29.7987 58.4901 29.8873 58.3788 29.9989V29.9989Z" fill="black"/>
<path d="M40.1136 30.0003C39.8887 29.7762 39.5841 29.6504 39.2666 29.6504C38.9491 29.6504 38.6445 29.7762 38.4196 30.0003C36.9933 31.4188 35.8625 33.1062 35.0927 34.9646C34.3228 36.8231 33.9292 38.8157 33.9346 40.8273C33.9346 41.1456 34.0611 41.4508 34.2861 41.6759C34.5111 41.9009 34.8164 42.0273 35.1346 42.0273C35.4529 42.0273 35.7581 41.9009 35.9832 41.6759C36.2082 41.4508 36.3346 41.1456 36.3346 40.8273C36.33 39.1305 36.662 37.4496 37.3113 35.8819C37.9607 34.3143 38.9145 32.8909 40.1176 31.6943C40.3412 31.4689 40.4663 31.164 40.4656 30.8465C40.4648 30.529 40.3383 30.2247 40.1136 30.0003V30.0003Z" fill="black"/>
<path d="M59.4268 49.5256V43.3926C59.4335 41.1759 58.7099 39.0188 57.3678 37.2546C56.2357 35.7656 54.719 34.6136 52.9808 33.9226C52.8628 33.0161 52.4189 32.1836 51.7321 31.5804C51.0453 30.9772 50.1624 30.6445 49.2483 30.6445C48.3342 30.6445 47.4513 30.9772 46.7645 31.5804C46.0777 32.1836 45.6338 33.0161 45.5158 33.9226C43.7776 34.6135 42.2608 35.7656 41.1288 37.2546C39.7863 39.0186 39.0623 41.1758 39.0688 43.3926V49.5256L36.6278 54.4076C36.537 54.5903 36.4943 54.7931 36.5037 54.9968C36.5131 55.2006 36.5743 55.3986 36.6815 55.5722C36.7887 55.7457 36.9383 55.8891 37.1163 55.9887C37.2944 56.0884 37.4948 56.141 37.6988 56.1416H60.7988C61.0025 56.1405 61.2026 56.0875 61.3802 55.9876C61.5578 55.8878 61.7071 55.7444 61.8139 55.5709C61.9208 55.3974 61.9817 55.1996 61.9909 54.9961C62.0002 54.7926 61.9575 54.59 61.8668 54.4076L59.4268 49.5256Z" fill="black"/>
<path d="M49.2449 61.2722C50.2696 61.2717 51.2788 61.0224 52.1859 60.5456C53.0929 60.0688 53.8705 59.3789 54.4519 58.5352H44.0449C44.6257 59.3779 45.4022 60.0673 46.3079 60.544C47.2136 61.0207 48.2214 61.2706 49.2449 61.2722V61.2722Z" fill="black"/>
</g>
<defs>
<filter id="filter0_d_1334_55" x="0" y="0" width="99" height="99" filterUnits="userSpaceOnUse" color-interpolation-filters="sRGB">
<feFlood flood-opacity="0" result="BackgroundImageFix"/>
<feColorMatrix in="SourceAlpha" type="matrix" values="0 0 0 0 0 0 0 0 0 0 0 0 0 0 0 0 0 0 127 0" result="hardAlpha"/>
<feOffset dy="6"/>
<feGaussianBlur stdDeviation="10"/>
<feColorMatrix type="matrix" values="0 0 0 0 0.898039 0 0 0 0 0.898039 0 0 0 0 0.898039 0 0 0 0.278 0"/>
<feBlend mode="normal" in2="BackgroundImageFix" result="effect1_dropShadow_1334_55"/>
<feBlend mode="normal" in="SourceGraphic" in2="effect1_dropShadow_1334_55" result="shape"/>
</filter>
</defs>
</svg>
