<svg width="41" height="36" viewBox="0 0 41 36" fill="none" xmlns="http://www.w3.org/2000/svg">
<path d="M34.9001 0.403903C34.7916 0.281452 34.6591 0.182502 34.5109 0.113135C34.3627 0.0437685 34.2018 0.00545118 34.0383 0.000540442C33.8747 -0.0043703 33.7118 0.0242282 33.5597 0.0845782C33.4076 0.144928 33.2694 0.235756 33.1537 0.351474C33.038 0.467191 32.9472 0.605353 32.8868 0.757468C32.8265 0.909583 32.7979 1.07243 32.8028 1.23601C32.8077 1.39959 32.846 1.56043 32.9154 1.70865C32.9847 1.85687 33.0837 1.98934 33.2061 2.0979C34.8875 3.76986 36.2205 5.75871 37.128 7.94931C38.0355 10.1399 38.4995 12.4888 38.4932 14.8599C38.4932 15.0175 38.5242 15.1735 38.5845 15.3191C38.6448 15.4647 38.7332 15.597 38.8446 15.7084C38.9561 15.8199 39.0883 15.9083 39.2339 15.9686C39.3795 16.0289 39.5356 16.0599 39.6931 16.0599C39.8507 16.0599 40.0068 16.0289 40.1524 15.9686C40.298 15.9083 40.4302 15.8199 40.5417 15.7084C40.6531 15.597 40.7415 15.4647 40.8018 15.3191C40.8621 15.1735 40.8931 15.0175 40.8931 14.8599C40.8998 12.1737 40.3735 9.51292 39.3448 7.03152C38.3161 4.55013 36.8054 2.29745 34.9001 0.403903V0.403903Z" fill="white"/>
<path d="M7.68207 0.404633C7.45715 0.180522 7.15258 0.0546875 6.83507 0.0546875C6.51756 0.0546875 6.21299 0.180522 5.98807 0.404633C4.08387 2.2985 2.57417 4.55122 1.54633 7.03241C0.518497 9.51359 -0.00706105 12.174 7.16388e-05 14.8596C7.16388e-05 15.1779 0.1265 15.4831 0.351544 15.7082C0.576587 15.9332 0.881812 16.0596 1.20007 16.0596C1.51833 16.0596 1.82356 15.9332 2.0486 15.7082C2.27364 15.4831 2.40007 15.1779 2.40007 14.8596C2.39323 12.489 2.85654 10.1406 3.76318 7.95019C4.66982 5.7598 6.00181 3.77092 7.68207 2.09863C7.90618 1.87371 8.03202 1.56914 8.03202 1.25163C8.03202 0.934121 7.90618 0.629551 7.68207 0.404633V0.404633Z" fill="white"/>
<path d="M29.576 4.03214C29.3519 4.25705 29.2261 4.56162 29.2261 4.87914C29.2261 5.19665 29.3519 5.50122 29.576 5.72614C30.7792 6.92269 31.733 8.346 32.3824 9.91369C33.0317 11.4814 33.3637 13.1623 33.359 14.8591C33.359 15.1774 33.4854 15.4826 33.7105 15.7077C33.9355 15.9327 34.2408 16.0591 34.559 16.0591C34.8773 16.0591 35.1825 15.9327 35.4075 15.7077C35.6326 15.4826 35.759 15.1774 35.759 14.8591C35.7646 12.8474 35.371 10.8545 34.6012 8.99586C33.8313 7.13723 32.7004 5.44976 31.274 4.03114C31.1625 3.91963 31.0301 3.83119 30.8844 3.77089C30.7387 3.71059 30.5825 3.67959 30.4248 3.67969C30.2671 3.67978 30.111 3.71096 29.9653 3.77143C29.8197 3.83191 29.6874 3.9205 29.576 4.03214V4.03214Z" fill="white"/>
<path d="M11.3109 4.03355C11.086 3.80944 10.7814 3.68359 10.4639 3.68359C10.1464 3.68359 9.84181 3.80944 9.61689 4.03355C8.19058 5.45205 7.05978 7.13936 6.28993 8.99781C5.52008 10.8563 5.12647 12.849 5.13189 14.8605C5.13189 15.1788 5.25832 15.484 5.48336 15.7091C5.70841 15.9341 6.01364 16.0605 6.3319 16.0605C6.65016 16.0605 6.95538 15.9341 7.18042 15.7091C7.40547 15.484 7.53189 15.1788 7.53189 14.8605C7.52729 13.1637 7.85926 11.4828 8.50862 9.91513C9.15797 8.34745 10.1118 6.92414 11.3149 5.72755C11.5385 5.5021 11.6636 5.19723 11.6628 4.87971C11.6621 4.5622 11.5355 4.25794 11.3109 4.03355V4.03355Z" fill="white"/>
<path d="M30.6241 23.5588V17.4258C30.6308 15.2091 29.9072 13.052 28.5651 11.2878C27.433 9.7988 25.9162 8.64679 24.1781 7.9558C24.0601 7.04934 23.6162 6.2168 22.9294 5.61359C22.2426 5.01039 21.3597 4.67773 20.4456 4.67773C19.5315 4.67773 18.6486 5.01039 17.9618 5.61359C17.2749 6.2168 16.8311 7.04934 16.7131 7.9558C14.9749 8.64675 13.4581 9.79877 12.3261 11.2878C10.9835 13.0518 10.2595 15.209 10.2661 17.4258V23.5588L7.82507 28.4408C7.7343 28.6235 7.69159 28.8263 7.70098 29.0301C7.71037 29.2338 7.77155 29.4318 7.87874 29.6054C7.98594 29.7789 8.13561 29.9223 8.31361 30.0219C8.49162 30.1216 8.69208 30.1742 8.89607 30.1748H31.9961C32.1998 30.1737 32.3999 30.1207 32.5775 30.0209C32.7551 29.921 32.9043 29.7776 33.0112 29.6041C33.118 29.4307 33.179 29.2328 33.1882 29.0293C33.1975 28.8258 33.1547 28.6232 33.0641 28.4408L30.6241 23.5588Z" fill="white"/>
<path d="M20.4422 35.3054C21.4669 35.3049 22.4761 35.0556 23.3831 34.5788C24.2901 34.102 25.0678 33.4121 25.6492 32.5684H15.2422C15.8229 33.4111 16.5995 34.1005 17.5052 34.5772C18.4109 35.0539 19.4187 35.3038 20.4422 35.3054V35.3054Z" fill="white"/>
</svg>
