<svg width="100" height="100" viewBox="0 0 100 100" fill="none" xmlns="http://www.w3.org/2000/svg">
<g filter="url(#filter0_d_1334_43)">
<path d="M50.4961 73.0039C66.7885 73.0039 79.9961 59.7963 79.9961 43.5039C79.9961 27.2115 66.7885 14.0039 50.4961 14.0039C34.2037 14.0039 20.9961 27.2115 20.9961 43.5039C20.9961 59.7963 34.2037 73.0039 50.4961 73.0039Z" fill="white"/>
<path d="M50.4962 72.9035C66.7334 72.9035 79.8962 59.7407 79.8962 43.5035C79.8962 27.2663 66.7334 14.1035 50.4962 14.1035C34.259 14.1035 21.0962 27.2663 21.0962 43.5035C21.0962 59.7407 34.259 72.9035 50.4962 72.9035Z" stroke="#D6D6D6" stroke-width="0.2"/>
</g>
<path d="M64.699 26.3746C64.5904 26.2522 64.4579 26.1532 64.3097 26.0838C64.1615 26.0145 64.0007 25.9762 63.8371 25.9712C63.6735 25.9663 63.5107 25.9949 63.3585 26.0553C63.2064 26.1156 63.0683 26.2065 62.9525 26.3222C62.8368 26.4379 62.746 26.5761 62.6857 26.7282C62.6253 26.8803 62.5967 27.0431 62.6016 27.2067C62.6065 27.3703 62.6448 27.5311 62.7142 27.6794C62.7836 27.8276 62.8825 27.96 63.005 28.0686C64.6863 29.7406 66.0193 31.7294 66.9268 33.92C67.8344 36.1106 68.2984 38.4595 68.292 40.8306C68.292 40.9882 68.323 41.1442 68.3833 41.2898C68.4436 41.4354 68.532 41.5677 68.6435 41.6791C68.7549 41.7906 68.8872 41.879 69.0328 41.9393C69.1784 41.9996 69.3344 42.0306 69.492 42.0306C69.6496 42.0306 69.8056 41.9996 69.9512 41.9393C70.0968 41.879 70.2291 41.7906 70.3405 41.6791C70.4519 41.5677 70.5403 41.4354 70.6006 41.2898C70.6609 41.1442 70.692 40.9882 70.692 40.8306C70.6986 38.1444 70.1724 35.4836 69.1437 33.0022C68.115 30.5208 66.6042 28.2681 64.699 26.3746V26.3746Z" fill="#EE6C4D"/>
<path d="M37.4809 26.3753C37.256 26.1512 36.9514 26.0254 36.6339 26.0254C36.3164 26.0254 36.0118 26.1512 35.7869 26.3753C33.8827 28.2692 32.373 30.5219 31.3452 33.0031C30.3173 35.4843 29.7918 38.1447 29.7989 40.8303C29.7989 41.1486 29.9253 41.4538 30.1504 41.6789C30.3754 41.9039 30.6806 42.0303 30.9989 42.0303C31.3172 42.0303 31.6224 41.9039 31.8474 41.6789C32.0725 41.4538 32.1989 41.1486 32.1989 40.8303C32.1921 38.4597 32.6554 36.1113 33.562 33.9209C34.4687 31.7305 35.8006 29.7416 37.4809 28.0693C37.705 27.8444 37.8308 27.5398 37.8308 27.2223C37.8308 26.9048 37.705 26.6003 37.4809 26.3753V26.3753Z" fill="#EE6C4D"/>
<path d="M59.3748 30.0028C59.1507 30.2278 59.0249 30.5323 59.0249 30.8498C59.0249 31.1674 59.1507 31.4719 59.3748 31.6968C60.578 32.8934 61.5318 34.3167 62.1812 35.8844C62.8305 37.4521 63.1625 39.133 63.1578 40.8298C63.1578 41.1481 63.2843 41.4533 63.5093 41.6784C63.7344 41.9034 64.0396 42.0298 64.3578 42.0298C64.6761 42.0298 64.9813 41.9034 65.2064 41.6784C65.4314 41.4533 65.5578 41.1481 65.5578 40.8298C65.5634 38.8181 65.1698 36.8252 64.4 34.9666C63.6301 33.1079 62.4993 31.4205 61.0728 30.0018C60.9613 29.8903 60.8289 29.8019 60.6832 29.7416C60.5375 29.6813 60.3813 29.6503 60.2236 29.6504C60.0659 29.6505 59.9098 29.6817 59.7642 29.7421C59.6185 29.8026 59.4862 29.8912 59.3748 30.0028V30.0028Z" fill="#EE6C4D"/>
<path d="M41.1097 30.0042C40.8848 29.7801 40.5802 29.6543 40.2627 29.6543C39.9452 29.6543 39.6406 29.7801 39.4157 30.0042C37.9894 31.4228 36.8586 33.1101 36.0888 34.9685C35.3189 36.827 34.9253 38.8197 34.9307 40.8312C34.9307 41.1495 35.0571 41.4547 35.2822 41.6798C35.5072 41.9048 35.8125 42.0312 36.1307 42.0312C36.449 42.0312 36.7542 41.9048 36.9792 41.6798C37.2043 41.4547 37.3307 41.1495 37.3307 40.8312C37.3261 39.1344 37.6581 37.4535 38.3074 35.8858C38.9568 34.3182 39.9106 32.8948 41.1137 31.6982C41.3373 31.4728 41.4624 31.1679 41.4617 30.8504C41.4609 30.5329 41.3344 30.2286 41.1097 30.0042V30.0042Z" fill="#EE6C4D"/>
<path d="M60.4229 49.5295V43.3965C60.4296 41.1798 59.706 39.0227 58.3639 37.2585C57.2318 35.7695 55.7151 34.6175 53.9769 33.9265C53.8589 33.02 53.415 32.1875 52.7282 31.5843C52.0414 30.9811 51.1585 30.6484 50.2444 30.6484C49.3303 30.6484 48.4474 30.9811 47.7606 31.5843C47.0738 32.1875 46.6299 33.02 46.5119 33.9265C44.7737 34.6175 43.2569 35.7695 42.1249 37.2585C40.7824 39.0225 40.0584 41.1797 40.0649 43.3965V49.5295L37.6239 54.4115C37.5331 54.5942 37.4904 54.797 37.4998 55.0008C37.5092 55.2045 37.5704 55.4025 37.6776 55.5761C37.7848 55.7496 37.9344 55.893 38.1124 55.9926C38.2904 56.0923 38.4909 56.1449 38.6949 56.1455H61.7949C61.9986 56.1444 62.1987 56.0914 62.3763 55.9916C62.5539 55.8917 62.7032 55.7483 62.81 55.5748C62.9169 55.4014 62.9778 55.2035 62.987 55C62.9963 54.7965 62.9536 54.594 62.8629 54.4115L60.4229 49.5295Z" fill="#EE6C4D"/>
<path d="M50.241 61.2761C51.2657 61.2756 52.2749 61.0263 53.1819 60.5495C54.089 60.0727 54.8666 59.3828 55.448 58.5391H45.041C45.6218 59.3818 46.3983 60.0712 47.304 60.5479C48.2097 61.0246 49.2175 61.2745 50.241 61.2761V61.2761Z" fill="#EE6C4D"/>
<defs>
<filter id="filter0_d_1334_43" x="0.996094" y="0.00390625" width="99" height="99" filterUnits="userSpaceOnUse" color-interpolation-filters="sRGB">
<feFlood flood-opacity="0" result="BackgroundImageFix"/>
<feColorMatrix in="SourceAlpha" type="matrix" values="0 0 0 0 0 0 0 0 0 0 0 0 0 0 0 0 0 0 127 0" result="hardAlpha"/>
<feOffset dy="6"/>
<feGaussianBlur stdDeviation="10"/>
<feColorMatrix type="matrix" values="0 0 0 0 0.898039 0 0 0 0 0.898039 0 0 0 0 0.898039 0 0 0 0.278 0"/>
<feBlend mode="normal" in2="BackgroundImageFix" result="effect1_dropShadow_1334_43"/>
<feBlend mode="normal" in="SourceGraphic" in2="effect1_dropShadow_1334_43" result="shape"/>
</filter>
</defs>
</svg>
