<svg width="14" height="8" viewBox="0 0 14 8" fill="none" xmlns="http://www.w3.org/2000/svg">
<path d="M0.00029236 6.94165C0.00029236 6.63448 0.0942049 6.39711 0.296118 6.20164C2.27299 4.24225 4.24517 2.28286 6.22204 0.328117C6.66343 -0.109372 7.26917 -0.109372 7.70586 0.328117C9.69682 2.29216 11.6831 4.26552 13.6647 6.23422C14.1013 6.66706 14.1107 7.27675 13.6975 7.69097C13.2796 8.10984 12.6598 8.10518 12.2137 7.66304C10.5326 5.98755 8.8516 4.32137 7.17525 2.64588C7.00621 2.47368 6.91699 2.48298 6.75265 2.64588C5.09977 4.2981 3.43751 5.94101 1.77525 7.58392C1.28221 8.07261 0.554379 8.02141 0.169335 7.47688C0.0472478 7.30933 -0.0044033 7.11851 0.00029236 6.94165Z" fill="#EE6C4D"/>
</svg>
