<svg width="14" height="8" viewBox="0 0 14 8" fill="none" xmlns="http://www.w3.org/2000/svg">
<path d="M13.9997 1.05835C13.9997 1.36552 13.9058 1.60289 13.7039 1.79836C11.727 3.75775 9.75483 5.71714 7.77796 7.67188C7.33657 8.10937 6.73083 8.10937 6.29414 7.67188C4.30318 5.70784 2.31692 3.73448 0.33535 1.76578C-0.101346 1.33294 -0.110738 0.723253 0.30248 0.309034C0.720393 -0.109838 1.34022 -0.105185 1.78631 0.336959C3.46735 2.01245 5.1484 3.67863 6.82475 5.35412C6.99379 5.52632 7.08301 5.51702 7.24735 5.35412C8.90023 3.7019 10.5625 2.05899 12.2248 0.416079C12.7178 -0.0726057 13.4456 -0.02141 13.8307 0.523124C13.9528 0.690673 14.0044 0.881493 13.9997 1.05835Z" fill="white"/>
</svg>
