<svg width="8" height="14" viewBox="0 0 8 14" fill="none" xmlns="http://www.w3.org/2000/svg">
<path d="M1.05835 0.00029236C1.36552 0.00029236 1.60289 0.0942049 1.79836 0.296118C3.75775 2.27299 5.71714 4.24517 7.67188 6.22204C8.10937 6.66343 8.10937 7.26917 7.67188 7.70586C5.70784 9.69682 3.73448 11.6831 1.76578 13.6647C1.33294 14.1013 0.723253 14.1107 0.309034 13.6975C-0.109838 13.2796 -0.105185 12.6598 0.336959 12.2137C2.01245 10.5326 3.67863 8.8516 5.35412 7.17525C5.52632 7.00621 5.51702 6.91699 5.35412 6.75265C3.7019 5.09977 2.05899 3.43751 0.416079 1.77525C-0.0726057 1.28221 -0.02141 0.554379 0.523124 0.169335C0.690673 0.0472478 0.881493 -0.0044033 1.05835 0.00029236Z" fill="white"/>
</svg>
