<svg width="15" height="9" viewBox="0 0 15 9" fill="none" xmlns="http://www.w3.org/2000/svg">
<path d="M14.158 2.01831C14.158 2.32548 14.0641 2.56285 13.8622 2.75832C11.8853 4.71771 9.91316 6.6771 7.93629 8.63184C7.4949 9.06933 6.88916 9.06933 6.45246 8.63184C4.4615 6.6678 2.47524 4.69444 0.493675 2.72574C0.0569788 2.29291 0.0475872 1.68321 0.460805 1.269C0.878718 0.850123 1.49854 0.854776 1.94463 1.29692C3.62568 2.97241 5.30672 4.63859 6.98307 6.31408C7.15211 6.48629 7.24133 6.47698 7.40568 6.31408C9.05855 4.66186 10.7208 3.01895 12.3831 1.37604C12.8761 0.887355 13.6039 0.938551 13.989 1.48309C14.1111 1.65063 14.1627 1.84145 14.158 2.01831Z" fill="#45495E"/>
</svg>
