<svg xmlns="http://www.w3.org/2000/svg" width="184" height="174" viewBox="0 0 184 174">
  <g id="Group_59951" data-name="Group 59951" transform="translate(-207 -140)">
    <g id="Rectangle_7602" data-name="Rectangle 7602" transform="translate(207 140)" fill="#fff" stroke="#e3e3e3" stroke-width="0.5">
      <rect width="184" height="174" rx="20" stroke="none"/>
      <rect x="0.25" y="0.25" width="183.5" height="173.5" rx="19.75" fill="none"/>
    </g>
    <g id="camera_7_" data-name="camera (7)" transform="translate(279.086 210.889)">
      <path id="Path_18064" data-name="Path 18064" d="M36.111,53.529H32.153a1.321,1.321,0,0,1-.941-.39l-3.474-3.474a3.637,3.637,0,0,0-2.588-1.072H14.63a3.636,3.636,0,0,0-2.588,1.072L8.567,53.14a1.322,1.322,0,0,1-.941.39H3.668a3.665,3.665,0,0,0-3.661,3.66L0,77.153a3.659,3.659,0,0,0,3.661,3.662h32.45a3.665,3.665,0,0,0,3.661-3.661V57.19A3.659,3.659,0,0,0,36.111,53.529Zm1.33,23.625a1.332,1.332,0,0,1-1.33,1.33H3.661a1.33,1.33,0,0,1-1.33-1.331L2.337,57.19a1.332,1.332,0,0,1,1.33-1.33H7.626a3.637,3.637,0,0,0,2.589-1.072l3.474-3.474a1.321,1.321,0,0,1,.941-.39H25.15a1.321,1.321,0,0,1,.941.39l3.474,3.474a3.636,3.636,0,0,0,2.589,1.072h3.957a1.33,1.33,0,0,1,1.33,1.33Z" transform="translate(0 -48.593)" fill="#45495e"/>
      <path id="Path_18065" data-name="Path 18065" d="M153.322,160.33a8.652,8.652,0,1,0,8.652,8.652A8.662,8.662,0,0,0,153.322,160.33Zm0,14.973a6.321,6.321,0,1,1,6.321-6.321A6.329,6.329,0,0,1,153.322,175.3Z" transform="translate(-133.432 -151.65)" fill="#45495e"/>
      <path id="Path_18066" data-name="Path 18066" d="M33.392,50.924h2.5a1.165,1.165,0,1,0,0-2.33h-2.5a1.165,1.165,0,1,0,0,2.33Z" transform="translate(-29.724 -48.594)" fill="#45495e"/>
    </g>
  </g>
</svg>
