<svg id="checked_9_" data-name="checked (9)" xmlns="http://www.w3.org/2000/svg" width="18.854" height="18.667" viewBox="0 0 18.854 18.667">
  <ellipse id="Ellipse_2987" data-name="Ellipse 2987" cx="9.427" cy="9.333" rx="9.427" ry="9.333" transform="translate(0 0)" fill="#ee6c4d"/>
  <path id="Path_21440" data-name="Path 21440" d="M188.8,159.949l4.8,4.8a9.327,9.327,0,0,0,6.919-9.009v-.265L196.749,152Z" transform="translate(-181.664 -146.406)" fill="#c85f46"/>
  <g id="Group_59908" data-name="Group 59908" transform="translate(3.23 4.608)">
    <path id="Path_21441" data-name="Path 21441" d="M91.633,203.678a1.1,1.1,0,0,1,0,1.531l-.854.854a1.1,1.1,0,0,1-1.531,0l-3.739-3.769a1.1,1.1,0,0,1,0-1.531l.854-.854a1.1,1.1,0,0,1,1.531,0Z" transform="translate(-85.2 -196.862)" fill="#fff"/>
    <path id="Path_21442" data-name="Path 21442" d="M171.186,125.509a1.1,1.1,0,0,1,1.531,0l.854.854a1.1,1.1,0,0,1,0,1.531l-6.477,6.448a1.1,1.1,0,0,1-1.531,0l-.854-.854a1.1,1.1,0,0,1,0-1.531Z" transform="translate(-161.485 -125.2)" fill="#fff"/>
  </g>
</svg>
