<svg width="41" height="41" viewBox="0 0 41 41" fill="none" xmlns="http://www.w3.org/2000/svg">
<path d="M22.122 0.5C23.1628 0.646524 24.2036 0.763743 25.2298 1.02749C30.7269 2.44877 34.934 5.59904 37.8219 10.4929C39.2438 12.8959 40.1087 15.5041 40.3872 18.288C40.9589 24.0904 39.361 29.248 35.5204 33.6731C32.5299 37.1017 28.7772 39.2996 24.3062 40.1201C17.9002 41.2923 12.1686 39.7538 7.24315 35.4753C3.53442 32.2518 1.3942 28.1345 0.64659 23.2845C0.587954 22.9035 0.543977 22.5079 0.5 22.127C0.5 21.028 0.5 19.9438 0.5 18.8448C0.514659 18.7862 0.543977 18.7276 0.543977 18.6543C0.807839 15.7385 1.65806 12.9985 3.15328 10.4783C6.04111 5.59904 10.2482 2.46342 15.7454 1.02749C16.7715 0.763743 17.8123 0.646524 18.8531 0.5C19.9379 0.5 21.0373 0.5 22.122 0.5ZM20.4656 38.4058C30.3751 38.3618 38.3789 30.4056 38.4082 20.5152C38.4229 10.5955 30.419 2.58064 20.5096 2.56599C10.6001 2.55134 2.59624 10.5516 2.56692 20.4419C2.55226 30.3616 10.5707 38.3472 20.4656 38.4058Z" fill="black"/>
<path d="M13.9716 12.808C14.2795 12.7934 14.5433 12.9838 14.7925 13.2329C16.5516 14.9912 18.296 16.7495 20.0551 18.5078C20.5389 18.9913 20.4216 18.9767 20.9053 18.4931C22.6498 16.7642 24.3795 15.0205 26.124 13.2769C26.2705 13.1304 26.4171 12.9692 26.6077 12.8959C27.0621 12.7054 27.5752 12.8227 27.8537 13.189C28.1322 13.5406 28.1322 14.0828 27.8537 14.4637C27.7658 14.5956 27.6485 14.6982 27.5312 14.8007C25.7721 16.559 24.0277 18.3173 22.254 20.061C22.0048 20.31 21.9901 20.4566 22.254 20.7057C24.0424 22.4639 25.8308 24.2369 27.6192 25.9952C27.8977 26.2589 28.0883 26.5666 28.0589 26.9476C28.0296 27.3285 27.8684 27.6509 27.4872 27.8121C27.1061 27.9733 26.7396 27.9293 26.4171 27.6949C26.2852 27.6069 26.1826 27.4897 26.08 27.3725C24.3356 25.6289 22.6058 23.8999 20.8614 22.1562C20.4802 21.7753 20.4802 21.7753 20.0844 22.1709C18.3547 23.8999 16.6249 25.6289 14.8952 27.3579C14.8072 27.4458 14.7192 27.5483 14.6166 27.6362C14.1915 28.0026 13.5758 27.9879 13.1947 27.6362C12.8282 27.2846 12.7989 26.6399 13.1361 26.215C13.224 26.0977 13.3266 26.0098 13.4292 25.9073C15.1883 24.1636 16.9328 22.42 18.7065 20.7057C18.9557 20.4566 18.9557 20.3247 18.7065 20.0903C16.9034 18.3027 15.115 16.5151 13.312 14.7128C12.9895 14.3905 12.7989 14.0242 12.9308 13.5553C13.0628 13.0864 13.4292 12.808 13.9716 12.808Z" fill="black"/>
</svg>
