<svg width="79" height="74" viewBox="0 0 79 74" fill="none" xmlns="http://www.w3.org/2000/svg">
<path d="M20.5002 0.800195C21.3002 3.4002 19.1002 3.6002 17.7002 4.5002C8.20021 10.7002 2.70021 19.0002 3.30021 30.7002C3.70021 39.8002 10.5002 46.5002 19.6002 47.3002C23.2002 47.6002 25.0002 46.7002 25.6002 42.7002C27.0002 34.0002 31.6002 26.9002 38.4002 21.3002C42.2002 18.2002 47.1002 17.8002 50.2002 20.0002C53.3002 22.2002 54.5002 26.8002 52.8002 31.6002C49.5002 40.9002 41.9002 45.6002 33.3002 48.9002C28.4002 50.8002 28.3002 50.8002 30.2002 55.7002C35.6002 69.3002 53.8002 73.6002 65.0002 63.7002C65.3002 63.5002 65.5002 63.1002 65.8002 62.9002C67.3002 62.1002 68.3002 58.9002 70.1002 60.8002C71.5002 62.2002 69.0002 64.1002 67.8002 65.3002C51.7002 81.9002 30.2002 69.6002 26.0002 55.0002C25.3002 52.6002 24.6002 51.0002 21.6002 51.0002C4.50021 51.2002 -1.99979 37.0002 0.600208 23.4002C2.70021 12.4002 9.20021 4.8002 19.8002 0.700195C20.0002 0.800195 20.3002 0.800195 20.5002 0.800195ZM49.7002 28.1002C49.6002 25.8002 49.4002 23.5002 47.1002 22.3002C44.9002 21.2002 42.9002 22.3002 41.2002 23.7002C34.9002 28.7002 31.2002 35.4002 29.1002 43.0002C28.4002 45.5002 29.4002 46.3002 31.8002 45.4002C38.4002 42.9002 44.0002 39.3002 48.2002 33.4002C49.3002 31.7002 49.8002 30.0002 49.7002 28.1002Z" fill="#EE6C4D"/>
<path d="M78.4001 60.7002C78.5001 62.6001 78.1001 64.8002 77.5001 66.9002C77.2001 68.1002 76.8001 69.6002 75.2001 69.3002C73.4001 69.0002 73.7001 67.3001 73.9001 66.0001C74.1001 64.4001 74.4001 62.8002 74.7001 61.2002C75.2001 58.9002 74.3001 57.8002 72.0001 57.9002C70.0001 58.0002 68.0001 58.1001 66.0001 58.3001C65.1001 58.4001 64.0001 58.4001 63.9001 57.3001C63.7001 56.2001 64.9001 55.9001 65.7001 55.8001C68.0001 55.4001 70.4001 54.9002 72.7001 54.7002C78.0001 54.3002 78.5001 55.0002 78.4001 60.7002Z" fill="#EE6C4D"/>
</svg>
