<svg id="saudi-arabia_16_" data-name="saudi-arabia (16)" xmlns="http://www.w3.org/2000/svg" width="25" height="25" viewBox="0 0 25 25">
  <path id="Path_21319" data-name="Path 21319" d="M19.531,0H5.469A5.469,5.469,0,0,0,0,5.469V19.531A5.469,5.469,0,0,0,5.469,25H19.531A5.469,5.469,0,0,0,25,19.531V5.469A5.469,5.469,0,0,0,19.531,0Z" fill="#73af00"/>
  <g id="Group_59678" data-name="Group 59678" transform="translate(3.478 6.833)">
    <path id="Path_21320" data-name="Path 21320" d="M72.6,150.62c.051.325.247.427.418.414a.42.42,0,0,0,.378-.394v-1.116a.1.1,0,1,1,.2,0v1.12a.405.405,0,0,0,.556.377l.1-.041c.009.936-.048,1.76-.049,1.775a.2.2,0,0,0,.188.217h.015a.2.2,0,0,0,.2-.188c0-.066.067-.967.048-1.965l.061-.025a.2.2,0,0,1,.166.007.579.579,0,0,0,.669-.109l.037-.036a.606.606,0,0,0,.147-.623l-.173-.518a.2.2,0,0,0,.15-.375l-.406-.2a.2.2,0,0,0-.283.246l.326.979a.2.2,0,0,1-.049.208l-.036.036a.174.174,0,0,1-.2.032.607.607,0,0,0-.422-.042,7,7,0,0,0-.248-1.748.2.2,0,0,0-.385.128,6.97,6.97,0,0,1,.232,1.77l-.243.1v-1.12a.507.507,0,1,0-1.014,0v.982l-.207-1.022a.2.2,0,1,0-.4.08Z" transform="translate(-72.327 -148.092)" fill="#f5f5f5"/>
    <path id="Path_21321" data-name="Path 21321" d="M80.9,144.966a.2.2,0,0,0,.2-.2v-.2a.2.2,0,0,0-.406,0v.2A.2.2,0,0,0,80.9,144.966Z" transform="translate(-80.235 -144.142)" fill="#f5f5f5"/>
    <path id="Path_21322" data-name="Path 21322" d="M122.443,144.763h.2a.2.2,0,0,0,0-.406h-.2a.2.2,0,0,0,0,.406Z" transform="translate(-119.749 -144.141)" fill="#f5f5f5"/>
    <path id="Path_21323" data-name="Path 21323" d="M77.656,206.7l-1.014.609a.2.2,0,0,0,.209.348l1.014-.609a.2.2,0,1,0-.209-.348Z" transform="translate(-76.283 -203.412)" fill="#f5f5f5"/>
    <path id="Path_21324" data-name="Path 21324" d="M92.152,151.737l0,0a.463.463,0,0,0,.094.191.4.4,0,0,0,.346.134.559.559,0,0,0,.422-.222.367.367,0,0,0,.043.025.384.384,0,0,0,.357-.011.77.77,0,0,0,.363-.714.207.207,0,0,0-.211-.192.2.2,0,0,0-.194.211s0,.243-.143.333a.494.494,0,0,1-.063-.171.2.2,0,0,0-.4.034c0,.029-.007.29-.208.312a.5.5,0,0,1,0-.265.2.2,0,0,0-.311-.215l-.113.077c-.054-1.176-.178-2.547-.179-2.565a.2.2,0,0,0-.4.037c0,.019.145,1.6.189,2.816l-.031.03a.523.523,0,0,0-.444-.349.74.74,0,0,0-.714.452.48.48,0,0,0,.155.6.676.676,0,0,0,.6.028,1.7,1.7,0,0,1-.33.625.851.851,0,0,1-.648.33.533.533,0,0,1-.394-.168,1.158,1.158,0,0,1-.214-.726.2.2,0,0,0-.191-.213.2.2,0,0,0-.214.191,1.556,1.556,0,0,0,.319,1.02.93.93,0,0,0,.679.3h.041a1.236,1.236,0,0,0,.931-.472,2.1,2.1,0,0,0,.465-1.04,2.3,2.3,0,0,1-.973,1.821,1.013,1.013,0,0,1-1.016.074.87.87,0,0,1-.446-.858.2.2,0,1,0-.4-.05,1.274,1.274,0,0,0,.669,1.272,1.378,1.378,0,0,0,.614.146,1.5,1.5,0,0,0,.8-.24,2.7,2.7,0,0,0,1.165-2.167C92.158,152.03,92.156,151.887,92.152,151.737Zm-1.223.209c-.036-.024-.008-.1,0-.116a.345.345,0,0,1,.283-.2h.016c.026,0,.095.009.124.162,0,.016.006.033.008.05C91.132,151.976,90.981,151.98,90.928,151.946Z" transform="translate(-88.044 -148.091)" fill="#f5f5f5"/>
    <path id="Path_21325" data-name="Path 21325" d="M71.992,240.752a.2.2,0,0,0-.277.072.424.424,0,0,1-.034.048l-.007-.017a1.364,1.364,0,0,1,.006-.688.2.2,0,0,0-.392-.1,1.746,1.746,0,0,0,.006.935c.093.248.236.311.34.319h.027a.533.533,0,0,0,.4-.29A.2.2,0,0,0,71.992,240.752Z" transform="translate(-71.224 -235.032)" fill="#f5f5f5"/>
    <path id="Path_21326" data-name="Path 21326" d="M159.658,146.182a.2.2,0,0,0,.125-.043l1.023-.8a.194.194,0,0,0,.033-.039.508.508,0,1,0-.583-.045l-.724.568a.2.2,0,0,0,.125.362Zm.921-1.42a.1.1,0,1,1-.1.1A.1.1,0,0,1,160.579,144.762Z" transform="translate(-155.147 -144.141)" fill="#f5f5f5"/>
    <path id="Path_21327" data-name="Path 21327" d="M171.717,177.6a.2.2,0,0,0-.257.128.62.62,0,0,0,.079.6.409.409,0,0,0,.3.116.891.891,0,0,0,.28-.052.2.2,0,1,0-.128-.385.707.707,0,0,1-.166.035.388.388,0,0,1,.017-.185A.2.2,0,0,0,171.717,177.6Z" transform="translate(-166.525 -175.752)" fill="#f5f5f5"/>
    <path id="Path_21328" data-name="Path 21328" d="M222.259,144.987a.2.2,0,0,0,.252-.138l.118-.406a.2.2,0,1,0-.389-.114l-.118.406A.2.2,0,0,0,222.259,144.987Z" transform="translate(-214.745 -143.977)" fill="#f5f5f5"/>
    <path id="Path_21329" data-name="Path 21329" d="M196.294,140.929a.2.2,0,1,0,.2-.35c-.041-.024-.035-.091-.034-.1a.159.159,0,0,1,.093-.135.2.2,0,0,0-.121-.387.557.557,0,0,0-.376.477A.5.5,0,0,0,196.294,140.929Z" transform="translate(-189.962 -139.943)" fill="#f5f5f5"/>
    <path id="Path_21330" data-name="Path 21330" d="M163.986,227.442a.2.2,0,0,0-.038.4.381.381,0,0,1,.038.206.2.2,0,1,0,.406,0C164.391,227.449,164,227.442,163.986,227.442Z" transform="translate(-159.264 -223.17)" fill="#f5f5f5"/>
    <path id="Path_21331" data-name="Path 21331" d="M230.649,198.94a.474.474,0,0,0,.076.006.693.693,0,0,0,.48-.24.2.2,0,1,0-.287-.287c-.121.121-.187.124-.2.12-.039-.006-.074-.056-.082-.07a.2.2,0,0,0-.362.184A.548.548,0,0,0,230.649,198.94Z" transform="translate(-222.485 -195.508)" fill="#f5f5f5"/>
    <path id="Path_21332" data-name="Path 21332" d="M301.27,178.195l0-.009a.2.2,0,0,0-.384.13.454.454,0,0,0,.33.316.336.336,0,0,0,.045,0,.5.5,0,0,0,.392-.271.2.2,0,0,0-.338-.225A.623.623,0,0,1,301.27,178.195Z" transform="translate(-289.658 -176.188)" fill="#f5f5f5"/>
    <path id="Path_21333" data-name="Path 21333" d="M194.184,153.778c0-.865-.038-1.677-.091-2.387a10.274,10.274,0,0,1,.712,1.445.2.2,0,0,0,.38-.143,13.435,13.435,0,0,0-1.173-2.223c-.111-1.093-.235-1.786-.237-1.8a.2.2,0,0,0-.4.072c0,.009.066.366.142.967-.156-.231-.3-.44-.422-.612l.01,0a.2.2,0,1,0,.128-.385l-.609-.2a.2.2,0,0,0-.258.136.443.443,0,0,0-.423-.1.345.345,0,0,0-.194.361,1.834,1.834,0,0,0,.14.575c.119.338.194.587.068.706a.222.222,0,0,1-.208.073c-.125-.032-.249-.2-.331-.446a.193.193,0,0,0-.016-.028,3.45,3.45,0,0,0-.062-1.122.2.2,0,0,0-.4.08,1.931,1.931,0,0,1-.106,1.445.364.364,0,0,1-.3.137.117.117,0,0,1-.1-.045,1.955,1.955,0,0,1-.108-1.143.2.2,0,0,0-.2-.231c-.349,0-.481.4-.6.747-.051.154-.147.44-.213.47-.123,0-.2-.361-.2-.609a.2.2,0,0,0-.2-.2h0a.2.2,0,0,0-.2.2c0,.468.159,1.014.609,1.014.334,0,.47-.364.583-.7a1.271,1.271,0,0,0,.23.721.52.52,0,0,0,.4.185.772.772,0,0,0,.617-.286.948.948,0,0,0,.075-.112.757.757,0,0,0,.425.319.585.585,0,0,0,.143.018.644.644,0,0,0,.442-.189.6.6,0,0,0,.068-.082.547.547,0,0,0,.15.023.821.821,0,0,0,.421-.129.2.2,0,0,0-.218-.342.431.431,0,0,1-.23.06,2.094,2.094,0,0,0-.154-.667,2.805,2.805,0,0,1-.1-.339c.017.014.033.029.048.043a.2.2,0,0,0,.287,0,.194.194,0,0,0,.029-.044c.21.29.643.9,1.088,1.6.085.862.159,1.963.159,3.169a.2.2,0,0,0,.406,0Z" transform="translate(-182.971 -148.086)" fill="#f5f5f5"/>
    <path id="Path_21334" data-name="Path 21334" d="M301.074,149.325a.2.2,0,0,0,.406,0,2.07,2.07,0,0,0-.224-.7.2.2,0,0,0-.363.181A1.8,1.8,0,0,1,301.074,149.325Z" transform="translate(-289.658 -148.095)" fill="#f5f5f5"/>
    <path id="Path_21335" data-name="Path 21335" d="M264.589,248.641a.2.2,0,0,0-.272.089.579.579,0,0,1-.084.12,1.133,1.133,0,0,1,.053-.375.2.2,0,0,0-.337-.2l-.406.406a.2.2,0,1,0,.287.287l.01-.01a.42.42,0,0,0,.109.213.371.371,0,0,0,.264.116.352.352,0,0,0,.056,0,.661.661,0,0,0,.411-.367A.2.2,0,0,0,264.589,248.641Z" transform="translate(-254.096 -242.927)" fill="#f5f5f5"/>
    <path id="Path_21336" data-name="Path 21336" d="M153.873,195.639h-1.43q.019-.076.039-.144c.57-.118.909-.3,1.009-.548a.454.454,0,0,0-.076-.455.5.5,0,0,0-.513-.219c-.288.058-.545.369-.729.866a2.331,2.331,0,0,0-1.171.506,3.144,3.144,0,0,0-.421-1.349.2.2,0,0,0-.338.225,2.929,2.929,0,0,1,.372,1.51,1.605,1.605,0,0,1-1.217,1.623c-.228,0-.327-.271-.371-.5a2.33,2.33,0,0,0,.974-1.074,1.613,1.613,0,0,0-.135-1.1l-.015-.035.013.012a.2.2,0,1,0,.287-.287c-.119-.119-.349-.305-.558-.217a.345.345,0,0,0-.194.361.864.864,0,0,0,.094.326,1.226,1.226,0,0,1,.114.842,1.716,1.716,0,0,1-.664.732.2.2,0,0,0-.153-.074h0a.2.2,0,0,0-.2.2c0,.036,0,.076,0,.116a10.668,10.668,0,0,1-1.305.714.2.2,0,0,0,.084.387.2.2,0,0,0,.084-.018,11.681,11.681,0,0,0,1.211-.649.789.789,0,0,0,.733.667,1.723,1.723,0,0,0,1.357-.992,1.18,1.18,0,0,0,.135.194,2.287,2.287,0,0,0,1.55.6.2.2,0,0,0,.015-.405.435.435,0,0,1-.253-.123.348.348,0,0,1-.066-.266c.021-.25.827-.437,1.538-.448a.2.2,0,0,0,.188-.135l.2-.571a.2.2,0,0,0-.191-.271Zm-.89-.969.015,0c.019,0,.05.01.091.065.008.01.032.046.026.061-.023.057-.163.152-.455.238C152.788,194.782,152.914,194.685,152.983,194.671Zm-1.225,2.667A1.241,1.241,0,0,1,151.2,197a.862.862,0,0,1-.18-.714.6.6,0,0,1,.042-.086c.286-.026,1.049.086,1.1.3a.681.681,0,0,0-.429.529A.858.858,0,0,0,151.758,197.337Z" transform="translate(-143.459 -191.557)" fill="#f5f5f5"/>
    <path id="Path_21337" data-name="Path 21337" d="M298.329,149.256l-.2-.609a.2.2,0,0,0-.394.084c.14,1.4.4,4.129.4,4.442,0,.281-.5.835-1.308,1.238a.2.2,0,0,0,.181.363c.738-.369,1.532-1.027,1.532-1.6,0-.3-.207-2.456-.326-3.667A.2.2,0,0,0,298.329,149.256Z" transform="translate(-285.706 -148.09)" fill="#f5f5f5"/>
    <path id="Path_21338" data-name="Path 21338" d="M351.394,181.912a.2.2,0,0,0,.34-.194,1.023,1.023,0,0,1-.029-.394.206.206,0,0,0,.211-.174.2.2,0,0,0-.172-.23.366.366,0,0,0-.334.113.465.465,0,0,0-.1.218l-.235-.235a.2.2,0,0,0-.287.287Z" transform="translate(-337.078 -178.916)" fill="#f5f5f5"/>
    <path id="Path_21339" data-name="Path 21339" d="M357.281,204.886l-.761.545a.2.2,0,1,0,.236.33l.761-.545a.2.2,0,1,0-.236-.33Z" transform="translate(-342.509 -201.679)" fill="#f5f5f5"/>
    <path id="Path_21340" data-name="Path 21340" d="M371.537,219.728a.2.2,0,0,0,.018.269.563.563,0,0,1,.041.292.2.2,0,0,0,.2.21h.007a.2.2,0,0,0,.2-.2c.015-.414-.121-.565-.18-.611A.2.2,0,0,0,371.537,219.728Z" transform="translate(-356.833 -215.758)" fill="#f5f5f5"/>
    <path id="Path_21341" data-name="Path 21341" d="M337.745,153.556a.2.2,0,0,0,.2-.2c0-.3-.015-.633-.041-.981a7.41,7.41,0,0,1,.475.883.2.2,0,0,0,.186.123.2.2,0,0,0,.08-.016.2.2,0,0,0,.107-.266,11.161,11.161,0,0,0-.928-1.6c-.08-.745-.184-1.474-.264-2a.2.2,0,0,0,.127-.031.2.2,0,0,0,.09-.183.2.2,0,0,0,.022.058.738.738,0,0,1,.074.5.2.2,0,0,0,.158.24.209.209,0,0,0,.041,0,.2.2,0,0,0,.2-.162,1.15,1.15,0,0,0-.129-.8.2.2,0,0,0-.28-.062.2.2,0,0,0-.091.183.2.2,0,0,0-.023-.059l-.342-.532a.2.2,0,0,0-.37.145c0,.016.158.906.3,1.979-.156-.22-.311-.434-.462-.639-.025-.307-.049-.591-.07-.825a.212.212,0,0,0,.033-.013.2.2,0,0,0,.091-.272l-.2-.406a.2.2,0,0,0-.383.111c.024.242.049.51.074.792-.128-.169-.247-.324-.349-.455a.2.2,0,0,0-.042-.335l-.406-.2a.2.2,0,0,0-.249.308c.011.014.51.64,1.108,1.448a16.309,16.309,0,0,1,.075,3.027c-.018.053-.049.116-.078.119-.123.017-.415-.257-.562-.551a.282.282,0,0,0-.272-.184c-.218.013-.3.253-.458.689a2.856,2.856,0,0,1-.4.859,2.3,2.3,0,0,1-.252-.8.2.2,0,0,0,.392-.068c0-.3-.212-2.606-.33-3.869a.2.2,0,0,0,.116-.252l-.2-.609a.2.2,0,0,0-.394.083c.138,1.447.4,4.242.4,4.628l0-.01a.2.2,0,1,0-.4.057c.059.415.211,1.128.559,1.244a.338.338,0,0,0,.108.018.4.4,0,0,0,.285-.132,2.925,2.925,0,0,0,.5-1.013c.03-.084.065-.183.1-.269.186.272.511.61.84.584a.5.5,0,0,0,.434-.395,11.421,11.421,0,0,0-.007-2.532c.171.24.342.485.505.727.063.607.109,1.216.109,1.716A.2.2,0,0,0,337.745,153.556Z" transform="translate(-321.27 -148.091)" fill="#f5f5f5"/>
    <path id="Path_21342" data-name="Path 21342" d="M407.115,152.986c-.144-1.07-.344-2.31-.471-3.072a.2.2,0,0,0,.17-.036.2.2,0,0,0,.038-.284l-.368-.482a.2.2,0,0,0-.361.158c0,.021.365,2.1.589,3.77a1.9,1.9,0,0,1-.334,1.522.9.9,0,0,1-.744.277.2.2,0,0,0-.026.4c.034,0,.068,0,.1,0a1.28,1.28,0,0,0,.965-.409A2.266,2.266,0,0,0,407.115,152.986Z" transform="translate(-389.102 -148.589)" fill="#f5f5f5"/>
    <path id="Path_21343" data-name="Path 21343" d="M393.361,256.09a.205.205,0,0,0,.01.285.086.086,0,0,1,.024.042.1.1,0,0,1-.031.045.2.2,0,0,0,.287.287.46.46,0,0,0,.149-.346.482.482,0,0,0-.159-.33A.2.2,0,0,0,393.361,256.09Z" transform="translate(-377.578 -250.356)" fill="#f5f5f5"/>
    <path id="Path_21344" data-name="Path 21344" d="M134.816,340.584H133.4v-.2a.2.2,0,0,0-.406,0v.2H122.24a2.831,2.831,0,0,0,1.826.609h8.925v.406a.2.2,0,0,0,.2.2h1.623a.609.609,0,1,0,0-1.217Zm0,.811H133.4v-.2h1.623l-.036-.109a.2.2,0,0,1,.036.109A.2.2,0,0,1,134.816,341.4Z" transform="translate(-119.749 -330.401)" fill="#f5f5f5"/>
  </g>
</svg>
