<svg width="15" height="15" viewBox="0 0 15 15" fill="none" xmlns="http://www.w3.org/2000/svg">
<path d="M5.84288 0.799805C6.17092 0.799805 6.49896 0.799805 6.827 0.799805C6.98738 0.825319 7.1514 0.843543 7.31177 0.872702C10.1839 1.3757 12.2287 4.0073 11.9517 6.95601C11.8533 7.99116 11.4961 8.9279 10.8838 9.76622C10.8145 9.86099 10.8254 9.91201 10.9056 9.9922C12.0829 11.1659 13.2566 12.3432 14.4339 13.5168C14.5505 13.6334 14.6489 13.761 14.7 13.9214C14.7 14.0417 14.7 14.1583 14.7 14.2786C14.6125 14.5374 14.4375 14.7087 14.1787 14.7998C14.0585 14.7998 13.9418 14.7998 13.8215 14.7998C13.6575 14.7451 13.5263 14.6431 13.406 14.5228C12.236 13.3491 11.0624 12.1791 9.89235 11.0018C9.81216 10.9216 9.76113 10.918 9.66637 10.9836C8.43075 11.873 7.05298 12.2484 5.55129 12.0151C3.34614 11.6652 1.83716 10.4187 1.0207 8.34107C0.845747 7.89275 0.765559 7.42256 0.699951 6.94872C0.699951 6.60246 0.699951 6.2562 0.699951 5.90993C0.718176 5.78965 0.72911 5.66572 0.75098 5.54544C1.16285 3.40225 2.3766 1.92243 4.4068 1.1242C4.8697 0.941955 5.35082 0.858123 5.84288 0.799805ZM10.5411 6.43115C10.5411 4.09842 8.6786 2.23953 6.34223 2.21766C4.16259 2.19944 2.11052 3.95263 2.11417 6.4348C2.11781 8.90967 4.15895 10.6483 6.32765 10.641C8.66767 10.6337 10.5411 8.77117 10.5411 6.43115Z" fill="#EE6C4D"/>
</svg>
