<svg width="26" height="26" viewBox="0 0 26 26" fill="none" xmlns="http://www.w3.org/2000/svg">
<path d="M12.6189 0.548828C15.0063 0.548828 17.3401 1.25678 19.3251 2.58316C21.3102 3.90954 22.8574 5.79477 23.771 8.00046C24.6846 10.2061 24.9237 12.6332 24.4579 14.9748C23.9921 17.3163 22.8425 19.4672 21.1543 21.1553C19.4662 22.8435 17.3153 23.9931 14.9738 24.4589C12.6322 24.9246 10.2052 24.6856 7.99948 23.772C5.79379 22.8584 3.90856 21.3112 2.58218 19.3261C1.2558 17.3411 0.547852 15.0072 0.547852 12.6198C0.547852 9.4184 1.81961 6.34809 4.08337 4.08434C6.34712 1.82059 9.41742 0.548828 12.6189 0.548828V0.548828ZM18.1059 10.4248C18.1059 10.2073 18.0413 9.99459 17.9205 9.8137C17.7996 9.63281 17.6278 9.49182 17.4268 9.40856C17.2258 9.3253 17.0046 9.30352 16.7913 9.34596C16.5779 9.38841 16.3819 9.49317 16.228 9.64701C16.0742 9.80085 15.9694 9.99685 15.927 10.2102C15.8845 10.4236 15.9063 10.6448 15.9896 10.8458C16.0728 11.0468 16.2138 11.2186 16.3947 11.3394C16.5756 11.4603 16.7883 11.5248 17.0059 11.5248C17.2974 11.5246 17.5769 11.4086 17.783 11.2023C17.9891 10.996 18.1049 10.7164 18.1049 10.4248H18.1059ZM9.32685 10.4248C9.32685 10.2073 9.26234 9.99459 9.14147 9.8137C9.0206 9.63281 8.8488 9.49182 8.6478 9.40856C8.4468 9.3253 8.22563 9.30352 8.01225 9.34596C7.79887 9.38841 7.60287 9.49317 7.44903 9.64701C7.2952 9.80085 7.19043 9.99685 7.14799 10.2102C7.10554 10.4236 7.12733 10.6448 7.21058 10.8458C7.29384 11.0468 7.43483 11.2186 7.61572 11.3394C7.79662 11.4603 8.00929 11.5248 8.22685 11.5248C8.51859 11.5248 8.79838 11.4089 9.00467 11.2026C9.21096 10.9964 9.32685 10.7166 9.32685 10.4248Z" fill="#FFE5DF"/>
<path d="M18.1063 10.4281C18.1062 10.6459 18.0416 10.8588 17.9205 11.0398C17.7994 11.2208 17.6273 11.3618 17.426 11.4449C17.2247 11.528 17.0033 11.5495 16.7898 11.5066C16.5763 11.4638 16.3803 11.3585 16.2267 11.2042C16.073 11.0498 15.9687 10.8534 15.9268 10.6397C15.8849 10.4259 15.9074 10.2046 15.9914 10.0037C16.0754 9.8028 16.2172 9.63135 16.3988 9.51108C16.5803 9.39082 16.7935 9.32715 17.0113 9.32814C17.3021 9.32946 17.5806 9.44593 17.7858 9.65208C17.991 9.85823 18.1063 10.1373 18.1063 10.4281V10.4281Z" fill="#FFE5DF"/>
<path d="M9.32695 10.4281C9.32695 10.6459 9.26231 10.8588 9.14122 11.0398C9.02013 11.2208 8.84803 11.3618 8.64674 11.4449C8.44545 11.528 8.22402 11.5495 8.01051 11.5066C7.79699 11.4638 7.601 11.3585 7.44737 11.2042C7.29373 11.0498 7.18936 10.8534 7.14748 10.6397C7.10561 10.4259 7.1281 10.2046 7.21213 10.0037C7.29615 9.8028 7.43792 9.63135 7.61947 9.51108C7.80102 9.39082 8.01418 9.32715 8.23195 9.32814C8.52282 9.32946 8.80133 9.44593 9.00654 9.65208C9.21175 9.85823 9.32696 10.1373 9.32695 10.4281V10.4281Z" fill="#FFE5DF"/>
<path d="M12.618 0C10.1222 0.000197778 7.68259 0.740457 5.60754 2.12717C3.53249 3.51388 1.91523 5.48477 0.960283 7.79061C0.00533396 10.0964 -0.244422 12.6337 0.242598 15.0815C0.729618 17.5292 1.93154 19.7776 3.69638 21.5423C5.46122 23.307 7.70971 24.5088 10.1575 24.9956C12.6053 25.4824 15.1426 25.2325 17.4483 24.2773C19.7541 23.3222 21.7248 21.7048 23.1114 19.6296C24.4979 17.5545 25.238 15.1148 25.238 12.619C25.234 9.27328 23.9031 6.06574 21.5372 3.70005C19.1714 1.33436 15.9637 0.00370511 12.618 0V0ZM12.618 24.141C10.3392 24.141 8.11151 23.4652 6.21673 22.1992C4.32194 20.9331 2.84514 19.1336 1.97307 17.0283C1.10099 14.9229 0.872819 12.6062 1.3174 10.3712C1.76198 8.13612 2.85934 6.0831 4.47072 4.47172C6.0821 2.86033 8.13513 1.76297 10.3702 1.31839C12.6052 0.873813 14.9219 1.10199 17.0273 1.97406C19.1327 2.84613 20.9321 4.32294 22.1982 6.21772C23.4643 8.1125 24.14 10.3402 24.14 12.619C24.1366 15.6738 22.9215 18.6024 20.7615 20.7625C18.6014 22.9225 15.6728 24.1376 12.618 24.141V24.141Z" fill="#E25D3E"/>
<path d="M9.87501 10.4253C9.87501 10.0997 9.77847 9.78151 9.59761 9.51083C9.41674 9.24015 9.15967 9.02917 8.85891 8.90459C8.55814 8.78001 8.22718 8.74741 7.90789 8.81093C7.5886 8.87444 7.29531 9.0312 7.06511 9.2614C6.83491 9.4916 6.67815 9.78489 6.61464 10.1042C6.55112 10.4235 6.58372 10.7544 6.7083 11.0552C6.83288 11.356 7.04386 11.613 7.31454 11.7939C7.58522 11.9748 7.90346 12.0713 8.22901 12.0713C8.66539 12.0708 9.08375 11.8972 9.39232 11.5886C9.70089 11.28 9.87448 10.8617 9.87501 10.4253V10.4253ZM7.68001 10.4253C7.68001 10.3167 7.71221 10.2106 7.77253 10.1203C7.83286 10.03 7.9186 9.95964 8.01892 9.91809C8.11923 9.87654 8.22962 9.86566 8.33611 9.88685C8.44261 9.90803 8.54043 9.96032 8.61721 10.0371C8.69399 10.1139 8.74628 10.2117 8.76746 10.3182C8.78864 10.4247 8.77777 10.5351 8.73622 10.6354C8.69467 10.7357 8.6243 10.8214 8.53402 10.8818C8.44373 10.9421 8.33759 10.9743 8.22901 10.9743C8.08401 10.9732 7.94529 10.915 7.84303 10.8122C7.74078 10.7093 7.68327 10.5703 7.68301 10.4253H7.68001Z" fill="#E25D3E"/>
<path d="M17.0083 8.7793C16.6828 8.7793 16.3645 8.87583 16.0938 9.0567C15.8232 9.23756 15.6122 9.49463 15.4876 9.7954C15.363 10.0962 15.3304 10.4271 15.3939 10.7464C15.4574 11.0657 15.6142 11.359 15.8444 11.5892C16.0746 11.8194 16.3679 11.9762 16.6872 12.0397C17.0065 12.1032 17.3374 12.0706 17.6382 11.946C17.939 11.8214 18.196 11.6104 18.3769 11.3398C18.5578 11.0691 18.6543 10.7508 18.6543 10.4253C18.6538 9.98891 18.4802 9.57055 18.1716 9.26198C17.863 8.95341 17.4447 8.77983 17.0083 8.7793V8.7793ZM17.0083 10.9743C16.8997 10.9743 16.7936 10.9421 16.7033 10.8818C16.613 10.8214 16.5426 10.7357 16.5011 10.6354C16.4595 10.5351 16.4487 10.4247 16.4699 10.3182C16.491 10.2117 16.5433 10.1139 16.6201 10.0371C16.6969 9.96032 16.7947 9.90803 16.9012 9.88685C17.0077 9.86566 17.1181 9.87653 17.2184 9.91809C17.3187 9.95964 17.4045 10.03 17.4648 10.1203C17.5251 10.2106 17.5573 10.3167 17.5573 10.4253C17.557 10.5708 17.4991 10.7103 17.3962 10.8132C17.2933 10.9161 17.1538 10.974 17.0083 10.9743V10.9743Z" fill="#E25D3E"/>
<path d="M17.1465 15.5446C16.576 16.1802 15.8779 16.6884 15.0976 17.036C14.3174 17.3835 13.4727 17.5626 12.6185 17.5616C11.7642 17.5617 10.9195 17.3822 10.1391 17.0347C9.35864 16.6872 8.66001 16.1795 8.08853 15.5446C7.9902 15.4406 7.85515 15.3791 7.71216 15.3732C7.56916 15.3673 7.42953 15.4175 7.323 15.5131C7.21647 15.6087 7.15148 15.7421 7.14187 15.8849C7.13225 16.0277 7.17878 16.1686 7.27153 16.2776C7.94648 17.0262 8.77129 17.6246 9.69244 18.034C10.6136 18.4433 11.6105 18.6544 12.6185 18.6536C13.6267 18.6551 14.624 18.4442 15.5452 18.0346C16.4665 17.6251 17.2912 17.0261 17.9655 16.2766C18.0626 16.1679 18.1125 16.0252 18.1044 15.8798C18.0962 15.7344 18.0306 15.5981 17.922 15.5011C17.8134 15.404 17.6707 15.354 17.5253 15.3622C17.3798 15.3703 17.2436 15.4359 17.1465 15.5446V15.5446Z" fill="#E25D3E"/>
</svg>
