<svg id="Group_16756" data-name="Group 16756" xmlns="http://www.w3.org/2000/svg" width="41.012" height="41.012" viewBox="0 0 41.012 41.012">
  <g id="Group" transform="translate(0 0)">
    <g id="Ellipse_473" data-name="Ellipse 473" fill="#fff">
      <path d="M 20.50600624084473 40.76201629638672 C 17.7713565826416 40.76201629638672 15.11863613128662 40.22648620605469 12.62153625488281 39.17029571533203 C 10.20949649810791 38.15009689331055 8.043206214904785 36.68952560424805 6.182846069335938 34.82916641235352 C 4.322486400604248 32.96880722045898 2.861916303634644 30.80251693725586 1.841716289520264 28.39047622680664 C 0.7855262160301208 25.89337539672852 0.2499962449073792 23.24065589904785 0.2499962449073792 20.50600624084473 C 0.2499962449073792 17.7713565826416 0.7855262160301208 15.11863613128662 1.841716289520264 12.62153625488281 C 2.861916303634644 10.20949649810791 4.322486400604248 8.043206214904785 6.182846069335938 6.182846069335938 C 8.043206214904785 4.322486400604248 10.20949649810791 2.861916303634644 12.62153625488281 1.841716289520264 C 15.11863613128662 0.7855262160301208 17.7713565826416 0.2499962449073792 20.50600624084473 0.2499962449073792 C 23.24065589904785 0.2499962449073792 25.89337539672852 0.7855262160301208 28.39047622680664 1.841716289520264 C 30.80251693725586 2.861916303634644 32.96880722045898 4.322486400604248 34.82916641235352 6.182846069335938 C 36.68952560424805 8.043206214904785 38.15009689331055 10.20949649810791 39.17029571533203 12.62153625488281 C 40.22648620605469 15.11863613128662 40.76201629638672 17.7713565826416 40.76201629638672 20.50600624084473 C 40.76201629638672 23.24065589904785 40.22648620605469 25.89337539672852 39.17029571533203 28.39047622680664 C 38.15009689331055 30.80251693725586 36.68952560424805 32.96880722045898 34.82916641235352 34.82916641235352 C 32.96880722045898 36.68952560424805 30.80251693725586 38.15009689331055 28.39047622680664 39.17029571533203 C 25.89337539672852 40.22648620605469 23.24065589904785 40.76201629638672 20.50600624084473 40.76201629638672 Z" stroke="none"/>
      <path d="M 20.50600624084473 0.4999961853027344 C 17.80498695373535 0.4999961853027344 15.18503570556641 1.028884887695312 12.71891593933105 2.071968078613281 C 10.3366756439209 3.079566955566406 8.197097778320312 4.522148132324219 6.359615325927734 6.359615325927734 C 4.522148132324219 8.197097778320312 3.079566955566406 10.3366756439209 2.071968078613281 12.71891593933105 C 1.028884887695312 15.18503570556641 0.4999961853027344 17.80498695373535 0.4999961853027344 20.50600624084473 C 0.4999961853027344 23.20701599121094 1.028884887695312 25.82697677612305 2.071968078613281 28.2930965423584 C 3.079566955566406 30.67533493041992 4.522148132324219 32.81490707397461 6.359615325927734 34.65238571166992 C 8.197097778320312 36.4898681640625 10.3366756439209 37.93244552612305 12.71891593933105 38.94004821777344 C 15.18503570556641 39.98312759399414 17.80498695373535 40.51201629638672 20.50600624084473 40.51201629638672 C 23.20701599121094 40.51201629638672 25.82697677612305 39.98312759399414 28.2930965423584 38.94004821777344 C 30.67533493041992 37.93244552612305 32.81490707397461 36.4898681640625 34.65238571166992 34.65238571166992 C 36.4898681640625 32.81490707397461 37.93244552612305 30.67533493041992 38.94004821777344 28.2930965423584 C 39.98312759399414 25.82697677612305 40.51201629638672 23.20701599121094 40.51201629638672 20.50600624084473 C 40.51201629638672 17.80498695373535 39.98312759399414 15.18503570556641 38.94004821777344 12.71891593933105 C 37.93244552612305 10.3366756439209 36.4898681640625 8.197097778320312 34.65238571166992 6.359615325927734 C 32.81490707397461 4.522148132324219 30.67533493041992 3.079566955566406 28.2930965423584 2.071968078613281 C 25.82697677612305 1.028884887695312 23.20701599121094 0.4999961853027344 20.50600624084473 0.4999961853027344 M 20.50600624084473 -3.814697265625e-06 C 31.83115577697754 -3.814697265625e-06 41.01201629638672 9.18084716796875 41.01201629638672 20.50600624084473 C 41.01201629638672 31.83115577697754 31.83115577697754 41.01201629638672 20.50600624084473 41.01201629638672 C 9.18084716796875 41.01201629638672 -3.814697265625e-06 31.83115577697754 -3.814697265625e-06 20.50600624084473 C -3.814697265625e-06 9.18084716796875 9.18084716796875 -3.814697265625e-06 20.50600624084473 -3.814697265625e-06 Z" stroke="none" fill="#f1f1f1"/>
    </g>
  </g>
  <g id="cursor" transform="translate(12.951 12.826)">
    <g id="Group_17188" data-name="Group 17188" transform="translate(0)">
      <path id="Path_11753" data-name="Path 11753" d="M14.812.057a.54.54,0,0,0-.484,0h0L.3,7.072A.54.54,0,0,0,.443,8.086L6.011,9.1l1.012,5.568a.54.54,0,0,0,.453.437.527.527,0,0,0,.078.006.54.54,0,0,0,.482-.3L15.052.781a.54.54,0,0,0-.24-.724ZM7.8,12.881,7.006,8.537a.54.54,0,0,0-.432-.432L2.229,7.313,13.363,1.746Z" transform="translate(0 0)" fill="#ee6c4d"/>
    </g>
  </g>
</svg>
