<svg xmlns="http://www.w3.org/2000/svg" width="88.825" height="127.508" viewBox="0 0 88.825 127.508">
  <g id="Group_59630" data-name="Group 59630" transform="translate(4000.826 -1471.181)">
    <path id="Path_21302" data-name="Path 21302" d="M606.356,211.194H591.376V170.119c0-6.941-6.158-12.586-13.726-12.586h-3.744c-7.571,0-13.729,5.647-13.729,12.586V211.2H545.2V170.119c0-14.512,12.875-26.319,28.705-26.319h3.744a30.381,30.381,0,0,1,16.328,4.682c7.474,4.756,12.377,12.681,12.377,21.637v41.076Z" transform="translate(-4532.19 1328.872)" fill="#ffc0b1"/>
    <g id="Group_59628" data-name="Group 59628" transform="translate(-3988.481 1471.181)">
      <path id="Path_21303" data-name="Path 21303" d="M600.787,207.116H585.807a1.491,1.491,0,0,1-1.491-1.491V164.55c0-6.118-5.488-11.1-12.235-11.1h-3.744a1.491,1.491,0,1,1,0-2.982h3.744c8.39,0,15.217,6.316,15.217,14.077v39.587h12V164.55a1.491,1.491,0,1,1,2.982,0v41.078A1.492,1.492,0,0,1,600.787,207.116Zm-46.18,0H539.631a1.491,1.491,0,0,1-1.491-1.491V164.55c0-15.333,13.547-27.81,30.2-27.81h3.744a32.036,32.036,0,0,1,15.91,4.179,1.49,1.49,0,0,1-1.48,2.587,29.042,29.042,0,0,0-14.428-3.784h-3.744c-15.006,0-27.214,11.137-27.214,24.828v39.587h11.995V164.55a1.491,1.491,0,0,1,2.982,0v41.078A1.5,1.5,0,0,1,554.607,207.116Z" transform="translate(-538.14 -136.74)" fill="#ee6c4d"/>
    </g>
    <path id="Path_21304" data-name="Path 21304" d="M572.583,463.743c0,5.366-4.789,9.756-10.641,9.756h-64.56c-5.854,0-10.641-4.392-10.641-9.756V413.656c0-5.366,4.789-9.756,10.641-9.756h64.56c5.854,0,10.641,4.39,10.641,9.756v50.087Z" transform="translate(-4486.076 1123.699)" fill="#fff"/>
    <g id="Group_59629" data-name="Group 59629" transform="translate(-4000.826 1526.108)">
      <path id="Path_21305" data-name="Path 21305" d="M556.372,469.421h-64.56c-6.69,0-12.132-5.045-12.132-11.247V429.133a1.491,1.491,0,1,1,2.982,0v29.041c0,4.559,4.105,8.267,9.15,8.267h64.56c5.045,0,9.15-3.708,9.15-8.267a1.491,1.491,0,1,1,2.982,0C568.5,464.376,563.063,469.421,556.372,469.421Zm10.641-27.56a1.491,1.491,0,0,1-1.491-1.491V408.087c0-4.557-4.105-8.265-9.15-8.265h-64.56a9.432,9.432,0,0,0-7.666,3.767,1.491,1.491,0,1,1-2.416-1.749,12.412,12.412,0,0,1,10.079-5H556.37c6.69,0,12.132,5.045,12.132,11.247v32.284A1.487,1.487,0,0,1,567.014,441.86Z" transform="translate(-479.68 -396.84)" fill="#ee6c4d"/>
    </g>
    <path id="Path_21306" data-name="Path 21306" d="M662.018,521.3c4.133,0,7.488,4.485,7.488,10.01s-3.356,10.012-7.488,10.012-7.488-4.485-7.488-10.012,3.354-10.01,7.488-10.01Z" transform="translate(-4618.432 1031.091)" fill="#ee6c4d"/>
  </g>
</svg>
