<svg xmlns="http://www.w3.org/2000/svg" width="20.333" height="20.332" viewBox="0 0 20.333 20.332">
  <g id="Layer_2" data-name="Layer 2" transform="translate(-0.989 -0.999)">
    <path id="Path_17848" data-name="Path 17848" d="M14.066,13.133a4.066,4.066,0,1,1,4.066-4.066,4.066,4.066,0,0,1-4.066,4.066Zm0-6.777a2.711,2.711,0,1,0,2.711,2.711A2.711,2.711,0,0,0,14.066,6.355Z" transform="translate(-2.904 -1.289)"/>
    <path id="Path_17849" data-name="Path 17849" d="M12.1,27.056a10.166,10.166,0,0,1-7.855-3.721L3.89,22.9l.352-.427a10.166,10.166,0,0,1,15.71,0l.352.427-.352.434A10.166,10.166,0,0,1,12.1,27.056ZM5.666,22.908a8.81,8.81,0,0,0,12.877,0,8.81,8.81,0,0,0-12.877,0Z" transform="translate(-0.935 -5.725)"/>
    <path id="Path_17850" data-name="Path 17850" d="M11.162,21.331a10.166,10.166,0,1,1,7.855-3.721,10.166,10.166,0,0,1-7.855,3.721Zm0-18.976a8.81,8.81,0,1,0,8.81,8.81,8.81,8.81,0,0,0-8.81-8.81Z" transform="translate(0 0)"/>
  </g>
</svg>
