<svg xmlns="http://www.w3.org/2000/svg" width="14.664" height="20.005" viewBox="0 0 14.664 20.005">
  <g id="lock_1_" data-name="lock (1)" transform="translate(-4.27 0.005)">
    <path id="Path_17836" data-name="Path 17836" d="M16.934,25.6H6.27a2,2,0,0,1-2-2V16.93a2,2,0,0,1,2-2H16.934a2,2,0,0,1,2,2V23.6A2,2,0,0,1,16.934,25.6ZM6.27,16.268a.669.669,0,0,0-.669.663V23.6a.669.669,0,0,0,.669.669H16.934A.669.669,0,0,0,17.6,23.6V16.93a.669.669,0,0,0-.669-.669Z" transform="translate(0 -5.6)"/>
    <path id="Path_17837" data-name="Path 17837" d="M15.6,24.043a.669.669,0,0,1-.669-.669V22.018a.669.669,0,0,1,1.331,0v1.356a.669.669,0,0,1-.663.669Z" transform="translate(-3.997 -8.031)"/>
    <path id="Path_17838" data-name="Path 17838" d="M17.2,8a.669.669,0,0,1-.669-.669V4.661a3.332,3.332,0,0,0-6.663,0V7.33a.669.669,0,1,1-1.331,0V4.661a4.666,4.666,0,1,1,9.332,0V7.33A.669.669,0,0,1,17.2,8Z" transform="translate(-1.599)"/>
  </g>
</svg>
