<svg xmlns="http://www.w3.org/2000/svg" width="20.333" height="20.33" viewBox="0 0 20.333 20.33">
  <path id="invitation_2_" data-name="invitation (2)" d="M18.457,5.129l-5.4-4.119a4.777,4.777,0,0,0-5.78,0l-5.4,4.119A4.793,4.793,0,0,0,0,8.918V15.6a4.771,4.771,0,0,0,4.766,4.766h10.8A4.771,4.771,0,0,0,20.333,15.6V8.918a4.793,4.793,0,0,0-1.876-3.789ZM18.744,15.6a3.181,3.181,0,0,1-3.177,3.177H4.766A3.181,3.181,0,0,1,1.589,15.6V8.918a3.2,3.2,0,0,1,1.25-2.526l5.4-4.119a3.185,3.185,0,0,1,3.853,0l5.4,4.119a3.2,3.2,0,0,1,1.25,2.526ZM17.033,9.8a.794.794,0,0,1-.15,1.113L13.057,13.83a4.777,4.777,0,0,1-5.78,0L3.49,10.942a.794.794,0,1,1,.963-1.263L8.24,12.567a3.185,3.185,0,0,0,3.853,0L15.92,9.648a.794.794,0,0,1,1.113.15ZM6.989,7.7A.794.794,0,0,1,7.784,6.9H9.372V5.315a.794.794,0,0,1,1.589,0V6.9h1.589a.794.794,0,0,1,0,1.589H10.961v1.589a.794.794,0,0,1-1.589,0V8.492H7.784A.794.794,0,0,1,6.989,7.7Z" transform="translate(0 -0.036)"/>
</svg>
