<svg xmlns="http://www.w3.org/2000/svg" width="23.333" height="23.333" viewBox="0 0 23.333 23.333">
  <path id="_018-calendar" data-name="018-calendar" d="M6.973,14.629a1.139,1.139,0,1,1-1.139-1.139A1.139,1.139,0,0,1,6.973,14.629Zm2.78-1.139a1.139,1.139,0,1,0,1.139,1.139A1.139,1.139,0,0,0,9.752,13.489Zm3.919,0a1.139,1.139,0,1,0,1.139,1.139A1.139,1.139,0,0,0,13.672,13.489ZM5.833,17.409a1.139,1.139,0,1,0,1.139,1.139A1.139,1.139,0,0,0,5.833,17.409Zm3.919,0a1.139,1.139,0,1,0,1.139,1.139A1.139,1.139,0,0,0,9.752,17.409Zm3.919,0a1.139,1.139,0,1,0,1.139,1.139A1.139,1.139,0,0,0,13.672,17.409Zm3.919,0a1.139,1.139,0,1,0,1.139,1.139A1.139,1.139,0,0,0,17.591,17.409Zm5.742-7.018v7.474a5.475,5.475,0,0,1-5.469,5.469H5.469A5.475,5.475,0,0,1,0,17.864V10.39A5.475,5.475,0,0,1,5.469,4.922h12.4A5.475,5.475,0,0,1,23.333,10.39Zm-1.823,0a3.65,3.65,0,0,0-3.646-3.646H5.469A3.65,3.65,0,0,0,1.823,10.39v7.474A3.65,3.65,0,0,0,5.469,21.51h12.4a3.65,3.65,0,0,0,3.646-3.646Zm-2.734-.456H4.557a.911.911,0,0,0,0,1.823H18.776A.911.911,0,0,0,18.776,9.935Zm-9.57-7.2a.911.911,0,0,1-1.823,0,.911.911,0,0,0-1.823,0,.911.911,0,1,1-1.823,0A2.734,2.734,0,0,1,9.206,2.734ZM16.953,0a2.737,2.737,0,0,0-2.734,2.734.911.911,0,1,0,1.823,0,.911.911,0,1,1,1.823,0,.911.911,0,1,0,1.823,0A2.737,2.737,0,0,0,16.953,0Zm.638,13.489a1.139,1.139,0,1,0,1.139,1.139A1.139,1.139,0,0,0,17.591,13.489Z"/>
</svg>
