<svg xmlns="http://www.w3.org/2000/svg" width="18.305" height="13.943" viewBox="0 0 18.305 13.943">
  <g id="email_5_" data-name="email (5)" transform="translate(0 -61)">
    <g id="Group_55619" data-name="Group 55619" transform="translate(0 61)">
      <path id="Path_17991" data-name="Path 17991" d="M16.7,61H1.609A1.612,1.612,0,0,0,0,62.609V73.335a1.611,1.611,0,0,0,1.609,1.609H16.7a1.611,1.611,0,0,0,1.609-1.609V62.609A1.611,1.611,0,0,0,16.7,61Zm-.222,1.073L9.187,69.36l-7.35-7.287Zm-15.4,11.04V62.826l5.165,5.121Zm.758.758L7,68.7l1.811,1.8a.536.536,0,0,0,.757,0l1.766-1.766,5.141,5.141Zm15.4-.758-5.141-5.141,5.141-5.141Z" transform="translate(0 -61)"/>
    </g>
  </g>
</svg>
