<svg xmlns="http://www.w3.org/2000/svg" width="36.572" height="36.571" viewBox="0 0 36.572 36.571">
  <g id="Group_62534" data-name="Group 62534" transform="translate(-1100.724 -4141.987)">
    <path id="Path_16200" data-name="Path 16200" d="M214,210.5a3.5,3.5,0,1,1-3.5-3.5A3.5,3.5,0,0,1,214,210.5Zm0,0" transform="translate(908.509 3949.773)" fill="#5f677b"/>
    <path id="Path_16201" data-name="Path 16201" d="M152.278,137.9a3.477,3.477,0,0,0-1.993-1.993,5.809,5.809,0,0,0-1.95-.361c-1.107-.051-1.439-.061-4.243-.061s-3.136.011-4.243.061a5.813,5.813,0,0,0-1.95.362,3.479,3.479,0,0,0-1.993,1.993,5.812,5.812,0,0,0-.361,1.95c-.051,1.107-.061,1.439-.061,4.243s.011,3.136.061,4.243a5.81,5.81,0,0,0,.361,1.949,3.477,3.477,0,0,0,1.993,1.993,5.8,5.8,0,0,0,1.95.362c1.107.051,1.439.061,4.243.061s3.136-.011,4.243-.061a5.8,5.8,0,0,0,1.95-.362,3.477,3.477,0,0,0,1.993-1.993,5.815,5.815,0,0,0,.362-1.949c.05-1.107.061-1.439.061-4.243s-.011-3.136-.061-4.243A5.8,5.8,0,0,0,152.278,137.9Zm-8.185,11.584a5.392,5.392,0,1,1,5.392-5.392A5.392,5.392,0,0,1,144.093,149.488Zm5.6-9.737a1.26,1.26,0,1,1,1.26-1.26A1.26,1.26,0,0,1,149.7,139.752Zm0,0" transform="translate(974.916 4016.177)" fill="#5f677b"/>
    <path id="Path_16202" data-name="Path 16202" d="M18.286,0A18.286,18.286,0,1,0,36.571,18.286,18.288,18.288,0,0,0,18.286,0ZM28.722,22.615a7.7,7.7,0,0,1-.488,2.549,5.369,5.369,0,0,1-3.071,3.071,7.709,7.709,0,0,1-2.549.488c-1.12.051-1.477.063-4.329.063s-3.209-.012-4.329-.063a7.709,7.709,0,0,1-2.549-.488,5.369,5.369,0,0,1-3.071-3.071,7.7,7.7,0,0,1-.488-2.549c-.052-1.12-.064-1.478-.064-4.329s.012-3.209.063-4.329a7.7,7.7,0,0,1,.488-2.549,5.372,5.372,0,0,1,3.071-3.071,7.711,7.711,0,0,1,2.549-.488c1.12-.051,1.477-.063,4.329-.063s3.209.012,4.329.064a7.712,7.712,0,0,1,2.549.487,5.37,5.37,0,0,1,3.071,3.071,7.7,7.7,0,0,1,.488,2.549c.051,1.12.063,1.477.063,4.329S28.774,21.495,28.722,22.615Zm0,0" transform="translate(1100.724 4141.987)" fill="#5f677b"/>
  </g>
</svg>
