<svg xmlns="http://www.w3.org/2000/svg" width="35.392" height="35.392" viewBox="0 0 35.392 35.392">
  <path id="linkedin" d="M17.7,0a17.7,17.7,0,1,0,17.7,17.7A17.7,17.7,0,0,0,17.7,0ZM12.554,26.751H8.244V13.785h4.31ZM10.4,12.015h-.028a2.246,2.246,0,1,1,.057-4.48,2.247,2.247,0,1,1-.029,4.48ZM28.094,26.751H23.784V19.815c0-1.743-.624-2.932-2.183-2.932a2.359,2.359,0,0,0-2.211,1.576,2.951,2.951,0,0,0-.142,1.052v7.241H14.939S15,15,14.939,13.785h4.309v1.836a4.279,4.279,0,0,1,3.884-2.14c2.835,0,4.962,1.853,4.962,5.836Zm0,0" fill="#5f677b"/>
</svg>
