<svg width="33" height="27" viewBox="0 0 33 27" fill="none" xmlns="http://www.w3.org/2000/svg">
<path d="M32.7 21.2348C32.4917 21.7049 32.1751 22.0595 31.6253 22.1172C31.0005 22.1832 30.5756 21.9358 30.2506 21.3585C28.6177 18.4062 26.3433 16.0641 23.4191 14.357C21.6279 13.3097 19.7034 12.6747 17.6123 12.518C15.0046 12.3201 12.5886 12.9304 10.3225 14.1591C7.20665 15.8415 4.82394 18.266 3.14937 21.3668C2.88278 21.8616 2.49121 22.1502 1.8997 22.1337C1.29152 22.109 0.933285 21.7626 0.700012 21.2431C0.700012 20.9957 0.700012 20.7483 0.700012 20.5009C1.79139 18.365 3.22435 16.4765 4.99889 14.8519C7.55656 12.5098 10.4891 10.8439 13.9466 10.2007C17.1791 9.59866 20.2949 10.0192 23.2608 11.413C27.3681 13.3509 30.4423 16.3857 32.6 20.3442C32.6334 20.4019 32.6584 20.4514 32.6917 20.5009C32.7 20.74 32.7 20.9874 32.7 21.2348Z" fill="black"/>
<path d="M0.741638 7.71784C0.758301 7.25603 0.991573 6.86018 1.45812 6.62927C1.93299 6.39012 2.4162 6.43135 2.80777 6.76947C3.79084 7.61064 4.75726 8.4683 5.70701 9.3507C6.23188 9.83726 6.21521 10.6042 5.74867 11.1073C5.26546 11.6186 4.51566 11.6763 3.98246 11.2062C3.03271 10.3815 2.09129 9.52389 1.1582 8.68272C0.883268 8.44356 0.749969 8.13843 0.741638 7.71784Z" fill="black"/>
<path d="M32.65 7.68497C32.65 8.1138 32.5334 8.41893 32.2751 8.64984C31.3253 9.51575 30.3756 10.3817 29.4008 11.2146C28.851 11.6847 28.0845 11.6022 27.618 11.0661C27.1598 10.5466 27.2014 9.7879 27.7263 9.30958C28.651 8.46841 29.5925 7.63549 30.5339 6.81082C30.9338 6.45621 31.4087 6.38198 31.9002 6.60465C32.3917 6.83556 32.6333 7.23965 32.65 7.68497Z" fill="black"/>
<path d="M17.9705 3.14937C17.9705 3.75963 17.9705 4.36165 17.9705 4.97191C17.9622 5.71412 17.4207 6.26665 16.7042 6.2749C15.9794 6.28314 15.4295 5.71412 15.4295 4.95541C15.4295 3.75139 15.4295 2.54736 15.4295 1.33509C15.4295 0.568138 15.971 0.00735869 16.6958 -0.000888072C17.429 -0.00913483 17.9705 0.559892 17.9788 1.34333C17.9705 1.95359 17.9705 2.55561 17.9705 3.14937Z" fill="black"/>
<path d="M16.6875 26.9994C13.3551 26.9581 10.5308 24.3851 10.5225 20.8885C10.5141 17.4496 13.2468 14.7612 16.6875 14.7529C20.1616 14.7529 22.8693 17.4661 22.8693 20.872C22.8693 24.3769 20.045 26.9664 16.6875 26.9994ZM16.7042 24.4346C18.6787 24.4346 20.3033 22.8348 20.3033 20.872C20.3033 18.9011 18.6787 17.2847 16.6959 17.2847C14.7297 17.2847 13.0968 18.901 13.0968 20.8473C13.0885 22.8348 14.7131 24.4429 16.7042 24.4346Z" fill="black"/>
</svg>
