<svg width="9" height="15" viewBox="0 0 9 15" fill="none" xmlns="http://www.w3.org/2000/svg">
<path d="M1.20922 0.0996094C1.52536 0.11828 1.77951 0.242751 1.99647 0.466798C2.92628 1.41278 3.8685 2.34631 4.80451 3.28606C5.80251 4.28805 6.80052 5.28382 7.79232 6.28581C8.32541 6.82103 8.32541 7.38115 7.79232 7.91637C5.8583 9.85812 3.92429 11.7999 1.99027 13.7354C1.53156 14.1959 0.930279 14.2208 0.502564 13.8038C0.124439 13.4366 0.087247 12.8641 0.415782 12.4471C0.483968 12.36 0.564552 12.2853 0.638937 12.2106C2.26921 10.5738 3.89949 8.93081 5.54216 7.30024C5.70333 7.13843 5.69713 7.05752 5.54216 6.89571C3.8685 5.2278 2.20723 3.5599 0.539757 1.88576C0.062452 1.40033 0.0810483 0.753081 0.570751 0.329881C0.762913 0.186739 0.97987 0.124504 1.20922 0.0996094Z" fill="#45495E"/>
</svg>
