<svg width="8" height="14" viewBox="0 0 8 14" fill="none" xmlns="http://www.w3.org/2000/svg">
<path d="M6.98291 14C6.66678 13.9813 6.41263 13.8569 6.19567 13.6328C5.26585 12.6868 4.32364 11.7533 3.38763 10.8135C2.38963 9.81156 1.39162 8.81579 0.39982 7.8138C-0.133274 7.27858 -0.133274 6.71846 0.39982 6.18324C2.33384 4.24149 4.26785 2.29975 6.20187 0.364229C6.66058 -0.0963126 7.26186 -0.121205 7.68957 0.295772C8.0677 0.66296 8.10489 1.23553 7.77636 1.6525C7.70817 1.73963 7.62759 1.81431 7.5532 1.889C5.92293 3.52579 4.29265 5.1688 2.64997 6.79937C2.48881 6.96118 2.495 7.04208 2.64997 7.2039C4.32364 8.8718 5.98491 10.5397 7.65238 12.2138C8.12969 12.6993 8.11109 13.3465 7.62139 13.7697C7.42923 13.9129 7.21227 13.9751 6.98291 14Z" fill="#45495E"/>
</svg>
