<svg xmlns="http://www.w3.org/2000/svg" width="35.392" height="35.392" viewBox="0 0 35.392 35.392">
  <path id="twitter" d="M17.7,0a17.7,17.7,0,1,0,17.7,17.7A17.7,17.7,0,0,0,17.7,0Zm8.08,13.8q.012.261.012.525A11.478,11.478,0,0,1,14.231,25.879h0A11.5,11.5,0,0,1,8,24.054a8.261,8.261,0,0,0,.969.056,8.15,8.15,0,0,0,5.045-1.739,4.066,4.066,0,0,1-3.795-2.821,4.048,4.048,0,0,0,1.834-.07A4.063,4.063,0,0,1,8.8,15.5c0-.018,0-.035,0-.052a4.034,4.034,0,0,0,1.84.508,4.065,4.065,0,0,1-1.257-5.422,11.532,11.532,0,0,0,8.372,4.244,4.064,4.064,0,0,1,6.921-3.7,8.147,8.147,0,0,0,2.579-.986,4.078,4.078,0,0,1-1.786,2.247,8.1,8.1,0,0,0,2.332-.64,8.254,8.254,0,0,1-2.026,2.1Zm0,0" fill="#5f677b"/>
</svg>
