<svg width="28" height="27" viewBox="0 0 28 27" fill="none" xmlns="http://www.w3.org/2000/svg">
<path d="M6.25101 26.7529C6.02811 26.7527 5.80811 26.7024 5.60731 26.6056C5.40651 26.5089 5.23004 26.3682 5.09099 26.194C4.95193 26.0198 4.85385 25.8165 4.804 25.5993C4.75415 25.382 4.75381 25.1563 4.80301 24.9389L6.60301 17.0289L0.511009 11.6879C0.291177 11.4969 0.13236 11.2455 0.0543166 10.9649C-0.0237266 10.6844 -0.0175503 10.387 0.0720768 10.1099C0.161704 9.83286 0.330826 9.58824 0.5584 9.40653C0.785975 9.22481 1.06196 9.11402 1.35201 9.08794L9.41001 8.35594L12.596 0.900941C12.7101 0.633638 12.9002 0.405741 13.1427 0.245567C13.3852 0.0853921 13.6694 0 13.96 0C14.2506 0 14.5349 0.0853921 14.7774 0.245567C15.0199 0.405741 15.2099 0.633638 15.324 0.900941L18.51 8.35694L26.566 9.08894C26.8562 9.11468 27.1325 9.22522 27.3603 9.4068C27.5882 9.58838 27.7576 9.83297 27.8474 10.1101C27.9373 10.3873 27.9436 10.6847 27.8657 10.9655C27.7877 11.2462 27.6289 11.4978 27.409 11.6889L21.319 17.0289L23.119 24.9389C23.183 25.222 23.1625 25.5176 23.0601 25.7891C22.9577 26.0606 22.7779 26.2961 22.5429 26.4664C22.308 26.6368 22.0282 26.7344 21.7383 26.7473C21.4484 26.7602 21.1611 26.6877 20.912 26.5389L13.964 22.3869L7.01201 26.5429C6.782 26.6806 6.51906 26.7535 6.25101 26.7539V26.7529ZM13.96 20.5989C14.228 20.5991 14.4909 20.6717 14.721 20.8089L21.278 24.7309L19.583 17.2659C19.5236 17.0049 19.5358 16.7327 19.6186 16.4781C19.7013 16.2235 19.8515 15.9961 20.053 15.8199L25.803 10.7769L18.195 10.0859C17.9272 10.0619 17.6709 9.96545 17.4537 9.80691C17.2365 9.64836 17.0665 9.43371 16.962 9.18594L13.962 2.15094L10.953 9.18894C10.8492 9.4364 10.6799 9.65091 10.4634 9.80947C10.2469 9.96802 9.99127 10.0646 9.72401 10.0889L2.11501 10.7799L7.86501 15.8229C8.067 15.999 8.2174 16.2266 8.30018 16.4814C8.38295 16.7363 8.39499 17.0088 8.33501 17.2699L6.64201 24.7309L13.203 20.8119C13.4331 20.6747 13.6961 20.6021 13.964 20.6019L13.96 20.5989ZM18.568 8.50494C18.568 8.50494 18.57 8.50294 18.569 8.50194L18.568 8.50494Z" fill="#293241"/>
</svg>
