<svg width="24" height="23" viewBox="0 0 24 23" fill="none" xmlns="http://www.w3.org/2000/svg">
<path d="M23.3011 8.45054C23.2617 8.32922 23.1891 8.22136 23.0915 8.13917C22.994 8.05699 22.8754 8.00377 22.7491 7.98554L15.5161 6.93454L12.2811 0.380542C12.2245 0.266286 12.1372 0.170112 12.0289 0.102871C11.9205 0.0356304 11.7956 0 11.6681 0C11.5406 0 11.4157 0.0356304 11.3073 0.102871C11.199 0.170112 11.1117 0.266286 11.0551 0.380542L7.8191 6.93454L0.586102 7.98554C0.459737 8.00365 0.340976 8.05682 0.243293 8.139C0.145609 8.22118 0.0729136 8.3291 0.033452 8.4505C-0.00600964 8.57191 -0.0106573 8.70194 0.0200361 8.82585C0.0507295 8.94976 0.115536 9.06259 0.207102 9.15154L5.4401 14.2515L4.2011 21.4565C4.1792 21.5824 4.19301 21.7118 4.24097 21.8302C4.28893 21.9485 4.36912 22.0511 4.47243 22.1262C4.57574 22.2012 4.69803 22.2459 4.82542 22.2549C4.9528 22.264 5.08019 22.2372 5.1931 22.1775L11.6621 18.7775L18.1311 22.1775C18.2441 22.2368 18.3713 22.2633 18.4985 22.254C18.6258 22.2448 18.7479 22.2001 18.851 22.1251C18.9542 22.0501 19.0344 21.9478 19.0824 21.8297C19.1305 21.7115 19.1446 21.5823 19.1231 21.4565L17.8871 14.2565L23.1211 9.15654C23.2147 9.06785 23.2812 8.95448 23.3131 8.82955C23.345 8.70461 23.3408 8.57321 23.3011 8.45054V8.45054Z" fill="#EE6C4D"/>
</svg>
