<svg width="23" height="23" viewBox="0 0 23 23" fill="none" xmlns="http://www.w3.org/2000/svg">
<g clip-path="url(#clip0_1350_228)">
<path d="M13.271 22.955H5.38C3.95362 22.9534 2.58612 22.3861 1.57752 21.3775C0.568918 20.3689 0.0015881 19.0014 0 17.575L0 5.38C0.0015881 3.95362 0.568918 2.58612 1.57752 1.57752C2.58612 0.568918 3.95362 0.0015881 5.38 0H17.575C19.0014 0.0015881 20.3689 0.568918 21.3775 1.57752C22.3861 2.58612 22.9534 3.95362 22.955 5.38V9.908C22.9352 10.1321 22.8322 10.3406 22.6662 10.4925C22.5003 10.6445 22.2835 10.7287 22.0585 10.7287C21.8335 10.7287 21.6167 10.6445 21.4508 10.4925C21.2848 10.3406 21.1818 10.1321 21.162 9.908V5.38C21.1609 4.42899 20.7827 3.51724 20.1102 2.84478C19.4378 2.17231 18.526 1.79406 17.575 1.793H5.38C4.42899 1.79406 3.51724 2.17231 2.84478 2.84478C2.17231 3.51724 1.79406 4.42899 1.793 5.38V17.575C1.79406 18.526 2.17231 19.4378 2.84478 20.1102C3.51724 20.7827 4.42899 21.1609 5.38 21.162H13.271C13.4951 21.1818 13.7036 21.2848 13.8555 21.4508C14.0075 21.6167 14.0917 21.8335 14.0917 22.0585C14.0917 22.2835 14.0075 22.5003 13.8555 22.6662C13.7036 22.8322 13.4951 22.9352 13.271 22.955ZM12.159 7.9L14.937 5.122C15.0818 4.94956 15.1568 4.7291 15.147 4.50412C15.1372 4.27915 15.0435 4.06601 14.8842 3.90678C14.725 3.74754 14.5119 3.65379 14.2869 3.64402C14.0619 3.63425 13.8414 3.70917 13.669 3.854L10.891 6.627C10.7223 6.79524 10.4938 6.88971 10.2555 6.88971C10.0172 6.88971 9.78871 6.79524 9.62 6.627L6.868 3.852C6.69539 3.71233 6.47724 3.6414 6.25549 3.65284C6.03375 3.66429 5.82406 3.7573 5.66674 3.914C5.50943 4.07069 5.41559 4.28001 5.40327 4.50171C5.39095 4.72341 5.46101 4.94184 5.6 5.115L8.347 7.888C8.59494 8.14053 8.89057 8.34128 9.21674 8.47862C9.54291 8.61595 9.8931 8.68712 10.247 8.688H10.252C10.6051 8.68869 10.9547 8.61941 11.2809 8.48415C11.607 8.3489 11.9031 8.15036 12.152 7.9H12.159ZM5.167 14.887L7.093 12.934C7.58798 12.4282 7.86459 11.7483 7.86328 11.0406C7.86197 10.3329 7.58285 9.65397 7.086 9.15L5.165 7.214C5.08488 7.11883 4.98589 7.0413 4.87429 6.98632C4.7627 6.93133 4.64091 6.90008 4.51663 6.89454C4.39234 6.88899 4.26826 6.90928 4.15221 6.95411C4.03616 6.99893 3.93066 7.06734 3.84238 7.15499C3.7541 7.24265 3.68495 7.34766 3.6393 7.46339C3.59365 7.57912 3.57248 7.70305 3.57715 7.82738C3.58181 7.9517 3.6122 8.0737 3.66639 8.18568C3.72058 8.29767 3.7974 8.3972 3.892 8.478L5.814 10.413C5.97921 10.5813 6.07176 10.8077 6.07176 11.0435C6.07176 11.2793 5.97921 11.5057 5.814 11.674L3.89 13.628C3.79507 13.7089 3.71801 13.8087 3.66369 13.921C3.60938 14.0333 3.579 14.1557 3.57449 14.2803C3.56998 14.405 3.59144 14.5292 3.63749 14.6452C3.68355 14.7611 3.75321 14.8662 3.84204 14.9538C3.93087 15.0414 4.03694 15.1095 4.15351 15.1539C4.27009 15.1983 4.39462 15.218 4.5192 15.2117C4.64379 15.2055 4.76571 15.1733 4.87723 15.1174C4.98875 15.0615 5.08742 14.9831 5.167 14.887ZM20.076 22.046C22.016 19.583 23 17.7 23 16.461C23.0208 15.818 22.912 15.1773 22.6803 14.5771C22.4485 13.9769 22.0985 13.4294 21.6509 12.9672C21.2034 12.505 20.6675 12.1374 20.0751 11.8864C19.4827 11.6354 18.8459 11.5061 18.2025 11.5061C17.5591 11.5061 16.9223 11.6354 16.3299 11.8864C15.7375 12.1374 15.2016 12.505 14.7541 12.9672C14.3065 13.4294 13.9565 13.9769 13.7247 14.5771C13.493 15.1773 13.3842 15.818 13.405 16.461C13.405 17.704 14.389 19.583 16.329 22.046C16.5521 22.3293 16.8366 22.5583 17.161 22.7158C17.4854 22.8733 17.8414 22.9551 18.202 22.9551C18.5626 22.9551 18.9186 22.8733 19.243 22.7158C19.5674 22.5583 19.8519 22.3293 20.075 22.046H20.076ZM21.211 16.461C21.211 17.061 20.544 18.561 18.671 20.936C18.616 21.0066 18.5456 21.0638 18.4652 21.1031C18.3848 21.1424 18.2965 21.1628 18.207 21.1628C18.1175 21.1628 18.0292 21.1424 17.9488 21.1031C17.8684 21.0638 17.798 21.0066 17.743 20.936C15.87 18.559 15.203 17.066 15.203 16.461C15.203 15.6643 15.5195 14.9002 16.0829 14.3369C16.6462 13.7735 17.4103 13.457 18.207 13.457C19.0037 13.457 19.7678 13.7735 20.3311 14.3369C20.8945 14.9002 21.211 15.6643 21.211 16.461V16.461ZM5.425 19.368C5.2483 19.3665 5.07596 19.313 4.92947 19.2142C4.78297 19.1154 4.6688 18.9756 4.60119 18.8124C4.53359 18.6491 4.51553 18.4696 4.54929 18.2961C4.58304 18.1227 4.6671 17.963 4.791 17.837L17.838 4.791C18.0104 4.64617 18.2309 4.57125 18.4559 4.58102C18.6809 4.59079 18.894 4.68454 19.0532 4.84378C19.2125 5.00301 19.3062 5.21615 19.316 5.44112C19.3258 5.6661 19.2508 5.88656 19.106 6.059L6.059 19.106C5.97586 19.1894 5.87705 19.2556 5.76825 19.3008C5.65944 19.3459 5.54279 19.3691 5.425 19.369V19.368ZM17.082 16.368C17.0826 16.5897 17.1489 16.8063 17.2726 16.9903C17.3963 17.1743 17.5717 17.3175 17.7768 17.4018C17.9818 17.4861 18.2073 17.5077 18.4246 17.4639C18.642 17.42 18.8414 17.3127 18.9978 17.1555C19.1541 16.9983 19.2604 16.7983 19.303 16.5807C19.3457 16.3632 19.3229 16.1378 19.2375 15.9332C19.1521 15.7286 19.008 15.5539 18.8233 15.4313C18.6386 15.3086 18.4217 15.2434 18.2 15.244C17.9032 15.2448 17.6189 15.3633 17.4093 15.5734C17.1997 15.7835 17.082 16.0682 17.082 16.365V16.368Z" fill="black"/>
</g>
<defs>
<clipPath id="clip0_1350_228">
<rect width="23" height="22.955" fill="white"/>
</clipPath>
</defs>
</svg>
