<svg width="48" height="42" viewBox="0 0 48 42" fill="none" xmlns="http://www.w3.org/2000/svg">
<path d="M0.0998764 15.7506C0.286987 14.3881 0.461623 13.0381 0.810895 11.7006C1.90861 7.5381 3.9793 3.9131 7.01048 0.850598C7.42212 0.438098 7.90861 0.238098 8.49489 0.413098C9.06869 0.588098 9.41797 0.988098 9.53023 1.5631C9.6425 2.1256 9.39302 2.5631 9.0188 2.9506C7.39718 4.6131 6.06246 6.4631 5.06453 8.5506C3.81713 11.1506 3.09364 13.8756 2.99385 16.7506C2.98137 17.0881 2.94395 17.4381 2.93148 17.7756C2.89406 18.5131 2.51984 19.0006 1.84624 19.1756C1.23501 19.3381 0.623785 19.0881 0.237091 18.5006C0.187194 18.4256 0.137298 18.3381 0.0874023 18.2631C0.0998764 17.4381 0.0998764 16.6006 0.0998764 15.7506Z" fill="white"/>
<path d="M47.9999 18.2889C47.4635 19.1139 46.9022 19.3889 46.2036 19.1764C45.5799 18.9889 45.2057 18.5014 45.1683 17.8264C45.0934 16.2639 44.9936 14.7139 44.6444 13.1889C43.7712 9.30137 41.9375 5.92637 39.1808 3.06387C38.7691 2.63887 38.4448 2.20137 38.5695 1.57637C38.6818 0.988869 39.0311 0.588869 39.6049 0.413869C40.1662 0.251369 40.6527 0.426369 41.0519 0.826369C42.5737 2.32637 43.846 4.01387 44.9063 5.86387C46.6153 8.86387 47.6381 12.0764 47.9375 15.5264C47.95 15.6014 47.9749 15.6764 47.9999 15.7514C47.9999 16.6014 47.9999 17.4389 47.9999 18.2889Z" fill="white"/>
<path d="M24.0374 35.8254C19.6216 35.8254 15.2183 35.8254 10.8025 35.8254C9.86697 35.8254 9.30564 35.4254 9.10605 34.6629C8.99379 34.2504 9.11853 33.8879 9.30564 33.5379C10.1164 31.9129 10.9148 30.2879 11.7381 28.6754C11.9751 28.2129 12.0749 27.7629 12.0749 27.2379C12.0624 25.1254 12.025 23.0254 12.0749 20.9129C12.1871 15.8004 14.5821 12.1129 19.1476 9.85039C19.4844 9.67539 19.6591 9.48789 19.7589 9.11289C20.2578 7.15039 22.0416 5.77539 24.0499 5.77539C26.0707 5.77539 27.842 7.11289 28.3534 9.08789C28.4657 9.50039 28.6653 9.70039 29.027 9.88789C32.9439 11.8004 35.264 14.9004 35.9376 19.2254C36.025 19.7879 36.0624 20.3754 36.0624 20.9504C36.0499 23.1379 36.0624 25.3254 36.0499 27.5129C36.0499 27.8629 36.1248 28.1879 36.2869 28.5004C37.1227 30.1379 37.8961 31.8129 38.7692 33.4379C39.4927 34.7754 38.5572 35.8629 37.2848 35.8504C32.8566 35.8004 28.4408 35.8254 24.0374 35.8254Z" fill="white"/>
<path d="M42.0376 17.238C42.0252 17.588 42.0751 17.9005 41.9628 18.2005C41.7383 18.8505 41.152 19.2755 40.5158 19.238C39.8547 19.2005 39.3183 18.738 39.1686 18.063C39.0189 17.3755 39.1062 16.663 39.0189 15.963C38.5948 12.6005 37.2102 9.72547 34.89 7.27547C34.6156 6.98797 34.3661 6.68797 34.3162 6.27547C34.2289 5.61297 34.5283 5.03797 35.0896 4.75047C35.651 4.46297 36.2871 4.56297 36.7611 5.03797C38.2206 6.47547 39.3807 8.12547 40.2663 9.97547C41.3765 12.3005 41.9378 14.7255 42.0376 17.238Z" fill="white"/>
<path d="M13.7837 6.0754C13.8086 6.5504 13.5716 6.9004 13.2598 7.2379C11.4136 9.1504 10.1288 11.3879 9.45518 13.9754C9.1558 15.1379 8.98117 16.3254 8.99364 17.5379C8.99364 18.2629 8.74416 18.8629 8.02067 19.1504C7.0477 19.5254 6.07473 18.8254 6.06225 17.7379C6.04978 15.3504 6.52379 13.0504 7.44687 10.8504C8.35747 8.6754 9.64229 6.7504 11.3013 5.0879C11.7753 4.6129 12.3616 4.5004 12.9354 4.7504C13.4718 4.9754 13.7837 5.4629 13.7837 6.0754Z" fill="white"/>
<path d="M24.0374 38.5129C25.896 38.5129 27.7422 38.5129 29.6008 38.5129C29.763 38.5129 29.9751 38.4379 30.0624 38.6254C30.1372 38.7879 29.9626 38.9004 29.8753 39.0254C26.9688 42.7629 21.1809 42.7629 18.237 39.0379C18.1372 38.9129 17.9376 38.7879 18.0499 38.6004C18.1372 38.4504 18.3368 38.5129 18.4865 38.5129C20.3326 38.5129 22.1788 38.5129 24.0374 38.5129Z" fill="white"/>
</svg>
