<svg width="48" height="42" viewBox="0 0 48 42" fill="none" xmlns="http://www.w3.org/2000/svg">
<path d="M0.012474 15.401C0.199584 14.0385 0.37422 12.6885 0.723493 11.351C1.82121 7.18849 3.89189 3.56349 6.92308 0.500989C7.33472 0.0884889 7.82121 -0.111511 8.40749 0.0634889C8.98129 0.238489 9.33056 0.638489 9.44283 1.21349C9.5551 1.77599 9.30562 2.21349 8.9314 2.60099C7.30977 4.26349 5.97505 6.11349 4.97713 8.20099C3.72973 10.801 3.00624 13.526 2.90645 16.401C2.89397 16.7385 2.85655 17.0885 2.84408 17.426C2.80665 18.1635 2.43243 18.651 1.75884 18.826C1.14761 18.9885 0.536383 18.7385 0.149688 18.151C0.0997921 18.076 0.0498961 17.9885 0 17.9135C0.012474 17.0885 0.012474 16.251 0.012474 15.401Z" fill="#F07355"/>
<path d="M47.9125 17.9393C47.3761 18.7643 46.8148 19.0393 46.1162 18.8268C45.4925 18.6393 45.1183 18.1518 45.0809 17.4768C45.006 15.9143 44.9062 14.3643 44.557 12.8393C43.6838 8.95176 41.8501 5.57676 39.0934 2.71426C38.6817 2.28926 38.3574 1.85176 38.4821 1.22676C38.5944 0.639259 38.9437 0.239259 39.5175 0.0642593C40.0788 -0.0982408 40.5653 0.0767594 40.9645 0.47676C42.4863 1.97676 43.7586 3.66426 44.8189 5.51426C46.5279 8.51426 47.5507 11.7268 47.8501 15.1768C47.8626 15.2518 47.8875 15.3268 47.9125 15.4018C47.9125 16.2518 47.9125 17.0893 47.9125 17.9393Z" fill="#F07355"/>
<path d="M23.95 35.4758C19.5342 35.4758 15.1309 35.4758 10.7151 35.4758C9.77956 35.4758 9.21823 35.0758 9.01865 34.3133C8.90638 33.9008 9.03112 33.5383 9.21823 33.1883C10.029 31.5633 10.8274 29.9383 11.6507 28.3258C11.8877 27.8633 11.9875 27.4133 11.9875 26.8883C11.975 24.7758 11.9376 22.6758 11.9875 20.5633C12.0997 15.4508 14.4947 11.7633 19.0602 9.50078C19.397 9.32578 19.5717 9.13828 19.6715 8.76328C20.1704 6.80078 21.9542 5.42578 23.9625 5.42578C25.9833 5.42578 27.7546 6.76328 28.266 8.73828C28.3783 9.15078 28.5779 9.35078 28.9396 9.53828C32.8565 11.4508 35.1766 14.5508 35.8502 18.8758C35.9376 19.4383 35.975 20.0258 35.975 20.6008C35.9625 22.7883 35.975 24.9758 35.9625 27.1633C35.9625 27.5133 36.0373 27.8383 36.1995 28.1508C37.0353 29.7883 37.8087 31.4633 38.6818 33.0883C39.4053 34.4258 38.4698 35.5133 37.1974 35.5008C32.7692 35.4508 28.3534 35.4758 23.95 35.4758Z" fill="#F07355"/>
<path d="M41.9502 16.8884C41.9378 17.2384 41.9877 17.5509 41.8754 17.8509C41.6509 18.5009 41.0646 18.9259 40.4284 18.8884C39.7673 18.8509 39.2309 18.3884 39.0812 17.7134C38.9315 17.0259 39.0188 16.3134 38.9315 15.6134C38.5074 12.2509 37.1228 9.37586 34.8026 6.92586C34.5282 6.63836 34.2787 6.33836 34.2288 5.92586C34.1415 5.26336 34.4409 4.68836 35.0022 4.40086C35.5636 4.11336 36.1997 4.21336 36.6737 4.68836C38.1332 6.12586 39.2933 7.77586 40.1789 9.62586C41.2891 11.9509 41.8504 14.3759 41.9502 16.8884Z" fill="#F07355"/>
<path d="M13.6963 5.72579C13.7212 6.20079 13.4842 6.55079 13.1723 6.88829C11.3262 8.80079 10.0414 11.0383 9.36778 13.6258C9.0684 14.7883 8.89377 15.9758 8.90624 17.1883C8.90624 17.9133 8.65676 18.5133 7.93327 18.8008C6.9603 19.1758 5.98732 18.4758 5.97485 17.3883C5.96238 15.0008 6.43639 12.7008 7.35946 10.5008C8.27007 8.3258 9.55489 6.40079 11.2139 4.73829C11.6879 4.26329 12.2742 4.15079 12.848 4.40079C13.3844 4.62579 13.6963 5.11329 13.6963 5.72579Z" fill="#F07355"/>
<path d="M23.95 38.1633C25.8086 38.1633 27.6548 38.1633 29.5134 38.1633C29.6756 38.1633 29.8877 38.0883 29.975 38.2758C30.0498 38.4383 29.8752 38.5508 29.7879 38.6758C26.8814 42.4133 21.0935 42.4133 18.1496 38.6883C18.0498 38.5633 17.8502 38.4383 17.9625 38.2508C18.0498 38.1008 18.2494 38.1633 18.3991 38.1633C20.2452 38.1633 22.0914 38.1633 23.95 38.1633Z" fill="#F07355"/>
</svg>
