<svg width="23" height="26" viewBox="0 0 23 26" fill="none" xmlns="http://www.w3.org/2000/svg">
<g clip-path="url(#clip0_1350_139)">
<path d="M20.8 25.5C20.2631 25.4988 19.7458 25.2986 19.348 24.938L16.865 22.753C16.6945 22.5717 16.5978 22.3334 16.5936 22.0846C16.5895 21.8358 16.6783 21.5943 16.8426 21.4075C17.007 21.2206 17.2351 21.1018 17.4824 21.0741C17.7297 21.0465 17.9784 21.112 18.18 21.258L20.666 23.446L20.674 23.453C20.7027 23.4783 20.7381 23.4947 20.776 23.5005C20.8138 23.5062 20.8525 23.501 20.8874 23.4854C20.9224 23.4698 20.9521 23.4446 20.9732 23.4126C20.9942 23.3806 21.0056 23.3433 21.006 23.305V5.974C21.0049 4.91797 20.585 3.90549 19.8382 3.15876C19.0915 2.41204 18.079 1.99206 17.023 1.991H5.974C4.91797 1.99206 3.90549 2.41204 3.15876 3.15876C2.41203 3.90549 1.99206 4.91797 1.991 5.974V17.026C1.99206 18.082 2.41203 19.0945 3.15876 19.8412C3.90549 20.588 4.91797 21.0079 5.974 21.009H13.64C13.8877 21.0326 14.1177 21.1476 14.2851 21.3317C14.4525 21.5158 14.5452 21.7557 14.5452 22.0045C14.5452 22.2533 14.4525 22.4932 14.2851 22.6773C14.1177 22.8614 13.8877 22.9764 13.64 23H5.974C4.39016 22.9981 2.87173 22.3681 1.75179 21.2482C0.631848 20.1283 0.00185259 18.6098 0 17.026V5.974C0.00185259 4.39017 0.631848 2.87173 1.75179 1.75179C2.87173 0.631849 4.39016 0.00185259 5.974 0L17.025 0C18.609 0.00158796 20.1277 0.631468 21.2479 1.75144C22.368 2.87141 22.9981 4.38999 23 5.974V23.3C23.003 23.724 22.8814 24.1396 22.6503 24.4952C22.4192 24.8507 22.0887 25.1306 21.7 25.3C21.417 25.4272 21.1103 25.4933 20.8 25.494V25.5ZM16.216 13.15C15.993 13.0095 15.7236 12.9627 15.4663 13.0199C15.209 13.077 14.9846 13.2334 14.842 13.455C14.4943 14.0378 14.0013 14.5204 13.4112 14.8555C12.8211 15.1906 12.1541 15.3667 11.4755 15.3667C10.7969 15.3667 10.1299 15.1906 9.53978 14.8555C8.94967 14.5204 8.45666 14.0378 8.109 13.455C7.95627 13.2583 7.73562 13.1256 7.49023 13.083C7.24485 13.0404 6.99239 13.0908 6.78226 13.2246C6.57213 13.3583 6.41946 13.5656 6.35412 13.8059C6.28879 14.0462 6.31549 14.3023 6.429 14.524C6.99696 15.3582 7.75032 16.0496 8.63008 16.544C9.50984 17.0385 10.4921 17.3225 11.5 17.374C12.5019 17.3256 13.4785 17.0424 14.3508 16.5471C15.2232 16.0519 15.9669 15.3585 16.522 14.523C16.6624 14.2999 16.709 14.0304 16.6517 13.773C16.5944 13.5157 16.4378 13.2915 16.216 13.149V13.15ZM15.383 10.555C15.1178 10.555 14.8634 10.4496 14.6759 10.2621C14.4884 10.0746 14.383 9.82022 14.383 9.555V6.82C14.4066 6.57231 14.5216 6.3423 14.7057 6.17491C14.8898 6.00752 15.1297 5.91476 15.3785 5.91476C15.6273 5.91476 15.8672 6.00752 16.0513 6.17491C16.2354 6.3423 16.3504 6.57231 16.374 6.82V9.558C16.373 9.82097 16.2684 10.0729 16.0829 10.2594C15.8974 10.4458 15.646 10.5516 15.383 10.554V10.555ZM8.662 9.555V6.82C8.63842 6.57231 8.52335 6.3423 8.33927 6.17491C8.15519 6.00752 7.91531 5.91476 7.6665 5.91476C7.41769 5.91476 7.17781 6.00752 6.99373 6.17491C6.80965 6.3423 6.69458 6.57231 6.671 6.82V9.558C6.69458 9.80569 6.80965 10.0357 6.99373 10.2031C7.17781 10.3705 7.41769 10.4632 7.6665 10.4632C7.91531 10.4632 8.15519 10.3705 8.33927 10.2031C8.52335 10.0357 8.63842 9.80569 8.662 9.558V9.555Z" fill="black"/>
</g>
<defs>
<clipPath id="clip0_1350_139">
<rect width="23" height="25.498" fill="white"/>
</clipPath>
</defs>
</svg>
