<svg width="28" height="22" viewBox="0 0 28 22" fill="none" xmlns="http://www.w3.org/2000/svg">
<path d="M0 10.6611C0.105983 10.3373 0.296751 10.0804 0.529913 9.83472C1.69572 8.60631 2.86153 7.37789 4.02734 6.14947C4.40887 5.74744 4.8434 5.52409 5.38391 5.6581C6.35895 5.89262 6.71929 7.12104 6.041 7.90276C5.60648 8.40529 5.12955 8.87432 4.67383 9.35452C4.61024 9.42153 4.52545 9.4662 4.50426 9.57787C4.61024 9.64488 4.73742 9.61138 4.8434 9.61138C9.47484 9.61138 14.1169 9.61138 18.7483 9.61138C19.0027 9.61138 19.257 9.62254 19.5008 9.71188C20.0201 9.90173 20.4016 10.4824 20.3698 11.0408C20.3274 11.6885 19.8929 12.2357 19.31 12.3362C19.1086 12.3697 18.9073 12.3809 18.7165 12.3809C14.0957 12.3809 9.46424 12.3809 4.8434 12.3809C4.72682 12.3809 4.62084 12.3809 4.49366 12.3809C4.52545 12.5261 4.61024 12.5819 4.66323 12.6378C5.11896 13.118 5.58528 13.5982 6.03041 14.0895C6.49673 14.6144 6.48613 15.4296 6.03041 15.9433C5.57468 16.457 4.81161 16.5129 4.2711 16.0662C4.15451 15.9768 4.04853 15.8651 3.94255 15.7535C2.81914 14.5809 1.67452 13.3748 0.529913 12.1799C0.296751 11.9342 0.105983 11.6774 0 11.3535C0 11.1301 0 10.8956 0 10.6611Z" fill="white"/>
<path d="M27.9996 11.5546C27.9572 13.8551 27.0669 16.3454 25.2335 18.4449C23.7285 20.1759 21.8844 21.3149 19.7012 21.7616C16.2355 22.4764 13.1515 21.583 10.5019 19.0926C9.9084 18.5342 9.39969 17.8977 8.94396 17.2053C8.62601 16.7251 8.59422 16.2003 8.88037 15.6866C9.14533 15.2064 9.56926 14.983 10.0992 15.0277C10.5443 15.0612 10.8622 15.318 11.106 15.6866C11.4981 16.2561 11.9221 16.7921 12.4308 17.25C13.9357 18.5901 15.6738 19.2601 17.6451 19.249C20.9624 19.2378 23.9935 16.915 24.9897 13.5424C25.8482 10.6054 25.3182 7.92518 23.4212 5.58002C22.2871 4.18409 20.8458 3.30186 19.1395 2.93334C16.1084 2.28563 13.0667 3.46938 11.2014 6.18306C10.9258 6.58509 10.6291 6.93128 10.131 6.98712C9.59045 7.04296 9.15593 6.85311 8.86977 6.36174C8.58362 5.87037 8.59422 5.35667 8.89097 4.8653C9.27251 4.2511 9.70704 3.69272 10.2052 3.17902C11.7207 1.62675 13.5118 0.610511 15.5891 0.197316C18.1326 -0.294051 20.5278 0.130311 22.7747 1.49274C24.4386 2.49781 25.7316 3.9049 26.6642 5.66936C27.5757 7.34448 28.0102 9.1201 27.9996 11.5546Z" fill="white"/>
</svg>
