<svg width="24" height="22" viewBox="0 0 24 22" fill="none" xmlns="http://www.w3.org/2000/svg">
<g clip-path="url(#clip0_1350_167)">
<path d="M22.7401 10.0804L20.3011 8.36038C20.2011 8.28983 20.0836 8.24813 19.9615 8.23982C19.8394 8.23151 19.7173 8.25692 19.6086 8.31326C19.5 8.36961 19.4089 8.45473 19.3453 8.55933C19.2817 8.66393 19.2481 8.78398 19.2481 8.90639V9.95839H7.53714C7.35998 9.95839 7.19006 10.0288 7.06479 10.154C6.93951 10.2793 6.86914 10.4492 6.86914 10.6264C6.86914 10.8036 6.93951 10.9735 7.06479 11.0987C7.19006 11.224 7.35998 11.2944 7.53714 11.2944H19.2481V12.3464C19.2485 12.4687 19.2823 12.5885 19.3459 12.6929C19.4096 12.7973 19.5006 12.8822 19.6092 12.9385C19.7177 12.9948 19.8396 13.0202 19.9616 13.0121C20.0836 13.004 20.201 12.9626 20.3011 12.8924L22.7401 11.1724C22.8274 11.1106 22.8986 11.0287 22.9478 10.9337C22.9969 10.8387 23.0226 10.7333 23.0226 10.6264C23.0226 10.5194 22.9969 10.414 22.9478 10.319C22.8986 10.224 22.8274 10.1422 22.7401 10.0804Z" fill="black"/>
<path d="M19.9191 8.01172C20.1026 8.01197 20.2815 8.06928 20.4311 8.17572L22.8701 9.89572C22.9875 9.97762 23.0833 10.0869 23.1492 10.2141C23.215 10.3412 23.249 10.4825 23.2481 10.6257C23.2477 10.7688 23.2132 10.9098 23.1475 11.037C23.0818 11.1641 22.9866 11.2737 22.8701 11.3567L20.4311 13.0767C20.2815 13.1832 20.1026 13.2405 19.9191 13.2407C19.6814 13.2407 19.4534 13.1467 19.2848 12.9792C19.1162 12.8117 19.0206 12.5844 19.0191 12.3467V11.5207H7.53706C7.29996 11.5207 7.07256 11.4265 6.90491 11.2589C6.73725 11.0912 6.64307 10.8638 6.64307 10.6267C6.64307 10.3896 6.73725 10.1622 6.90491 9.99457C7.07256 9.82691 7.29996 9.73271 7.53706 9.73271H19.0221V8.90372C19.0213 8.78287 19.0454 8.66315 19.0929 8.55202C19.1404 8.44088 19.2102 8.34071 19.2981 8.25772C19.4665 8.10014 19.6884 8.01224 19.9191 8.01172V8.01172ZM19.9191 12.7877C20.0091 12.7873 20.0968 12.759 20.1701 12.7067L22.6091 10.9867C22.6666 10.9458 22.7136 10.8916 22.746 10.8288C22.7784 10.766 22.7953 10.6964 22.7953 10.6257C22.7953 10.5551 22.7784 10.4854 22.746 10.4226C22.7136 10.3598 22.6666 10.3057 22.6091 10.2647L20.1701 8.54572C20.0971 8.49273 20.0092 8.46405 19.9191 8.46371C19.8036 8.46454 19.6928 8.50923 19.6091 8.58871C19.5657 8.62943 19.5313 8.67874 19.508 8.73349C19.4848 8.78824 19.4732 8.84725 19.4741 8.90672V10.1847H7.53706C7.47902 10.1847 7.42155 10.1962 7.36792 10.2184C7.31429 10.2406 7.26556 10.2731 7.22452 10.3142C7.18347 10.3552 7.15092 10.4039 7.12871 10.4576C7.1065 10.5112 7.09506 10.5687 7.09506 10.6267C7.09506 10.6848 7.1065 10.7422 7.12871 10.7959C7.15092 10.8495 7.18347 10.8982 7.22452 10.9393C7.26556 10.9803 7.31429 11.0129 7.36792 11.0351C7.42155 11.0573 7.47902 11.0687 7.53706 11.0687H19.4741V12.3467C19.4749 12.4644 19.5222 12.577 19.6058 12.6598C19.6894 12.7426 19.8024 12.789 19.9201 12.7887L19.9191 12.7877Z" fill="black"/>
<path d="M19.3922 14.9145C19.3162 14.8706 19.2323 14.842 19.1453 14.8305C19.0583 14.8189 18.9699 14.8247 18.8851 14.8473C18.8003 14.87 18.7208 14.9091 18.6512 14.9625C18.5815 15.0159 18.5231 15.0825 18.4792 15.1585C17.4815 16.8868 15.9414 18.2376 14.0978 19.0013C12.2541 19.7651 10.21 19.8991 8.28243 19.3827C6.35485 18.8663 4.65154 17.7282 3.43669 16.1451C2.22184 14.5619 1.56335 12.6221 1.56335 10.6265C1.56335 8.63095 2.22184 6.69115 3.43669 5.10798C4.65154 3.52481 6.35485 2.38676 8.28243 1.87033C10.21 1.3539 12.2541 1.48796 14.0978 2.25172C15.9414 3.01548 17.4815 4.36625 18.4792 6.09452C18.5209 6.17412 18.5784 6.24447 18.648 6.30134C18.7176 6.35822 18.798 6.40045 18.8844 6.42552C18.9707 6.45058 19.0612 6.45796 19.1505 6.4472C19.2398 6.43645 19.3259 6.40779 19.4038 6.36294C19.4818 6.31808 19.5498 6.25796 19.604 6.18618C19.6581 6.11439 19.6972 6.03242 19.7189 5.94517C19.7406 5.85792 19.7444 5.76719 19.7302 5.67841C19.716 5.58963 19.684 5.50464 19.6362 5.42852C18.4915 3.44584 16.7245 1.89629 14.6094 1.02017C12.4943 0.144058 10.1492 -0.00964823 7.93777 0.582891C5.72639 1.17543 3.77231 2.4811 2.37862 4.2974C0.984922 6.1137 0.229492 8.33912 0.229492 10.6285C0.229492 12.9179 0.984922 15.1433 2.37862 16.9596C3.77231 18.7759 5.72639 20.0816 7.93777 20.6741C10.1492 21.2667 12.4943 21.113 14.6094 20.2369C16.7245 19.3608 18.4915 17.8112 19.6362 15.8285C19.6803 15.7525 19.709 15.6686 19.7206 15.5814C19.7322 15.4943 19.7265 15.4058 19.7038 15.3209C19.6812 15.236 19.642 15.1564 19.5885 15.0866C19.535 15.0169 19.4683 14.9584 19.3922 14.9145Z" fill="black"/>
<path d="M10.6272 21.2521C8.99396 21.2519 7.38274 20.8754 5.91863 20.1516C4.45453 19.4278 3.17695 18.3764 2.18509 17.0788C1.19324 15.7812 0.513805 14.2725 0.199552 12.6698C-0.114702 11.0671 -0.055318 9.41353 0.373092 7.83749C0.801501 6.26146 1.58741 4.80537 2.66978 3.5823C3.75216 2.35923 5.10188 1.4021 6.61413 0.785225C8.12637 0.16835 9.76046 -0.0916661 11.3895 0.0253678C13.0185 0.142402 14.5986 0.633336 16.0072 1.46005C17.5921 2.39311 18.9093 3.71959 19.8312 5.31105C19.8903 5.41269 19.9288 5.52498 19.9445 5.6415C19.9602 5.75802 19.9528 5.87649 19.9227 5.99015C19.8926 6.10381 19.8404 6.21043 19.7691 6.30392C19.6978 6.39742 19.6088 6.47595 19.5072 6.53505C19.4055 6.59414 19.2933 6.63264 19.1767 6.64834C19.0602 6.66404 18.9417 6.65663 18.8281 6.62655C18.7144 6.59646 18.6078 6.54428 18.5143 6.47299C18.4208 6.4017 18.3423 6.31269 18.2832 6.21105C17.3104 4.52586 15.8087 3.20876 14.011 2.46404C12.2134 1.71932 10.2202 1.5886 8.34068 2.09216C6.46115 2.59571 4.8003 3.70539 3.61574 5.24909C2.43117 6.79279 1.7891 8.68423 1.7891 10.63C1.7891 12.5759 2.43117 14.4673 3.61574 16.011C4.8003 17.5547 6.46115 18.6644 8.34068 19.1679C10.2202 19.6715 12.2134 19.5408 14.011 18.7961C15.8087 18.0513 17.3104 16.7342 18.2832 15.049C18.4025 14.8438 18.5985 14.6943 18.8281 14.6336C19.0576 14.5728 19.3019 14.6057 19.5072 14.725C19.7125 14.8444 19.8619 15.0404 19.9227 15.2699C19.9834 15.4995 19.9505 15.7438 19.8312 15.949C18.8988 17.5641 17.5577 18.9052 15.9428 19.8378C14.3279 20.7704 12.496 21.2616 10.6312 21.262L10.6272 21.2521ZM10.6272 0.452049C8.84111 0.452208 7.08655 0.922505 5.53984 1.81567C3.99314 2.70884 2.70878 3.9934 1.81587 5.54026C0.92296 7.08712 0.452953 8.84176 0.45309 10.6278C0.453227 12.4139 0.923503 14.1685 1.81665 15.7152C2.7098 17.2619 3.99435 18.5463 5.5412 19.4392C7.08804 20.3321 8.84268 20.8022 10.6287 20.802C12.4148 20.8019 14.1694 20.3317 15.7161 19.4385C17.2629 18.5454 18.5472 17.2609 19.4402 15.714C19.4715 15.6637 19.4924 15.6076 19.5017 15.5491C19.5109 15.4905 19.5082 15.4307 19.4939 15.3732C19.4795 15.3157 19.4537 15.2616 19.418 15.2143C19.3823 15.1669 19.3375 15.1272 19.2862 15.0976C19.2348 15.0679 19.1781 15.0489 19.1192 15.0416C19.0604 15.0344 19.0007 15.039 18.9437 15.0553C18.8867 15.0716 18.8335 15.0991 18.7874 15.1364C18.7413 15.1736 18.7031 15.2198 18.6752 15.272C17.6525 17.0436 16.0739 18.4282 14.1841 19.2111C12.2943 19.994 10.199 20.1314 8.22312 19.602C6.24727 19.0726 4.50131 17.9061 3.25604 16.2833C2.01077 14.6605 1.33579 12.6721 1.33579 10.6266C1.33579 8.58101 2.01077 6.59264 3.25604 4.96982C4.50131 3.34701 6.24727 2.18045 8.22312 1.65109C10.199 1.12173 12.2943 1.25915 14.1841 2.04203C16.0739 2.82491 17.6525 4.2095 18.6752 5.98105C18.7031 6.03334 18.7413 6.07948 18.7874 6.11672C18.8335 6.15395 18.8867 6.18153 18.9437 6.19781C19.0007 6.21409 19.0604 6.21873 19.1192 6.21146C19.1781 6.2042 19.2348 6.18517 19.2862 6.15551C19.3375 6.12585 19.3823 6.08617 19.418 6.03883C19.4537 5.99148 19.4795 5.93745 19.4939 5.87993C19.5082 5.82241 19.5109 5.76259 19.5017 5.70403C19.4924 5.64547 19.4715 5.58936 19.4402 5.53905C18.544 3.99475 17.2587 2.71238 15.7124 1.8198C14.166 0.927215 12.4127 0.455623 10.6272 0.452049V0.452049Z" fill="black"/>
</g>
<defs>
<clipPath id="clip0_1350_167">
<rect width="23.248" height="21.253" fill="white"/>
</clipPath>
</defs>
</svg>
