<svg width="24" height="30" viewBox="0 0 24 30" fill="none" xmlns="http://www.w3.org/2000/svg">
<g clip-path="url(#clip0_1350_177)">
<path d="M11.8031 4.32813C10.3248 4.32793 8.87954 4.76611 7.65019 5.58727C6.42085 6.40842 5.46261 7.57567 4.89663 8.94141C4.33065 10.3072 4.18236 11.8101 4.47051 13.2601C4.75866 14.7101 5.47032 16.0421 6.51547 17.0877C7.56063 18.1333 8.89235 18.8454 10.3423 19.1342C11.7922 19.4229 13.2951 19.2752 14.6611 18.7098C16.0271 18.1444 17.1947 17.1866 18.0163 15.9576C18.838 14.7286 19.2768 13.2835 19.2771 11.8051C19.2756 9.82311 18.4877 7.92268 17.0865 6.5209C15.6853 5.11913 13.7852 4.33051 11.8031 4.32813ZM11.8031 17.5371C10.669 17.5371 9.56031 17.2008 8.61731 16.5706C7.67432 15.9405 6.93937 15.0448 6.50543 13.997C6.0715 12.9491 5.95807 11.7961 6.17948 10.6837C6.40089 9.5714 6.9472 8.54971 7.74931 7.74787C8.55143 6.94604 9.57331 6.40008 10.6857 6.17906C11.7982 5.95804 12.9511 6.07187 13.9988 6.50617C15.0466 6.94047 15.942 7.67573 16.5718 8.61894C17.2016 9.56216 17.5376 10.671 17.5372 11.8051C17.535 13.325 16.9302 14.7821 15.8552 15.8566C14.7803 16.9312 13.3231 17.5355 11.8031 17.5371V17.5371Z" fill="black"/>
<path d="M11.8029 3.17002e-05C9.02345 -0.00640816 6.3309 0.968528 4.19987 2.753C2.06884 4.53747 0.636138 7.01693 0.154281 9.75434C-0.327576 12.4918 0.172349 15.3114 1.56594 17.7163C2.95953 20.1212 5.15733 21.957 7.77195 22.9L11.7859 29.656L15.978 22.843C18.565 21.8688 20.728 20.0173 22.0894 17.6113C23.4508 15.2054 23.9243 12.3979 23.4273 9.67848C22.9303 6.95911 21.4943 4.50056 19.3699 2.73174C17.2454 0.962924 14.5674 -0.00386846 11.8029 3.17002e-05V3.17002e-05ZM15.113 21.307L14.8199 21.407L11.8199 26.29L8.94795 21.456L8.63995 21.356C6.37708 20.6057 4.45414 19.0762 3.21384 17.0402C1.97353 15.0042 1.49643 12.594 1.86756 10.239C2.2387 7.88404 3.43396 5.73735 5.24033 4.1815C7.04669 2.62565 9.34682 1.76173 11.7308 1.7437C14.1148 1.72567 16.4277 2.55469 18.2574 4.08304C20.0871 5.61138 21.3147 7.73975 21.7214 10.0888C22.1281 12.4379 21.6875 14.8551 20.4782 16.9096C19.2688 18.9642 17.3692 20.5225 15.1179 21.307H15.113Z" fill="black"/>
<path d="M13.4559 8.91992L11.8029 10.5729L10.1499 8.91992L8.91895 10.1509L10.5719 11.8039L8.91895 13.4569L10.1499 14.6879L11.8029 13.0349L13.4559 14.6879L14.687 13.4569L13.034 11.8039L14.687 10.1509L13.4559 8.91992Z" fill="black"/>
</g>
<defs>
<clipPath id="clip0_1350_177">
<rect width="23.606" height="29.656" fill="white"/>
</clipPath>
</defs>
</svg>
