<svg width="24" height="34" viewBox="0 0 24 34" fill="none" xmlns="http://www.w3.org/2000/svg">
<g clip-path="url(#clip0_1350_141)">
<path d="M22.992 5.347L18.51 0.824C17.9865 0.298422 17.2758 0.00206679 16.534 0L7.26302 0C6.5212 0.00206679 5.81053 0.298422 5.28702 0.824L0.800019 5.347C0.285246 5.86637 -0.00246811 6.56875 1.59524e-05 7.3V16.58C-0.000881693 16.9452 0.0706959 17.3069 0.210595 17.6442C0.350494 17.9815 0.555935 18.2877 0.815018 18.545L5.29202 23.018C5.54965 23.2769 5.85606 23.4821 6.19351 23.6218C6.53097 23.7616 6.89278 23.833 7.25802 23.832H8.39301V29.98C8.39486 30.9058 8.76347 31.7932 9.41814 32.4479C10.0728 33.1025 10.9602 33.4711 11.886 33.473H11.914C12.8399 33.4711 13.7272 33.1025 14.3819 32.4479C15.0366 31.7932 15.4052 30.9058 15.407 29.98V23.835H16.54C16.9053 23.836 17.2671 23.7646 17.6045 23.6248C17.942 23.4851 18.2484 23.2799 18.506 23.021L22.983 18.548C23.2421 18.2907 23.4475 17.9845 23.5874 17.6472C23.7273 17.3099 23.7989 16.9482 23.798 16.583V7.3C23.801 6.56805 23.5133 5.86486 22.998 5.345L22.992 5.347ZM13.444 29.98C13.4435 30.3859 13.282 30.775 12.995 31.062C12.708 31.349 12.3189 31.5105 11.913 31.511H11.885C11.4791 31.5105 11.09 31.349 10.803 31.062C10.516 30.775 10.3545 30.3859 10.354 29.98V23.835H13.445L13.444 29.98ZM21.836 16.58C21.8363 16.6874 21.8152 16.7939 21.774 16.8931C21.7328 16.9923 21.6723 17.0824 21.596 17.158L17.119 21.631C17.043 21.7074 16.9526 21.7679 16.8531 21.8091C16.7535 21.8503 16.6468 21.8713 16.539 21.871H7.25702C7.14928 21.8713 7.04254 21.8503 6.94299 21.8091C6.84343 21.7679 6.75303 21.7074 6.67702 21.631L2.20001 17.16C2.12376 17.0843 2.06329 16.9943 2.0221 16.8951C1.9809 16.7958 1.95979 16.6894 1.96002 16.582V7.3C1.9598 7.19329 1.98062 7.08757 2.02129 6.98891C2.06195 6.89025 2.12166 6.80057 2.19701 6.725L6.68002 2.2C6.75647 2.12319 6.84731 2.06219 6.94734 2.0205C7.04738 1.9788 7.15464 1.95723 7.26302 1.957H16.535C16.6434 1.95723 16.7507 1.9788 16.8507 2.0205C16.9507 2.06219 17.0416 2.12319 17.118 2.2L21.6 6.728C21.6754 6.80357 21.7351 6.89325 21.7757 6.99191C21.8164 7.09057 21.8372 7.19628 21.837 7.303L21.836 16.58Z" fill="black"/>
<path d="M7.19104 7.67097H5.52104C5.26086 7.67097 5.01134 7.77432 4.82736 7.95829C4.64339 8.14226 4.54004 8.39179 4.54004 8.65196V15.327C4.54004 15.5871 4.64339 15.8367 4.82736 16.0206C5.01134 16.2046 5.26086 16.308 5.52104 16.308H7.19104C7.69192 16.3083 8.18262 16.1665 8.60622 15.8992C9.02981 15.6319 9.36894 15.25 9.58427 14.7978C9.79961 14.3456 9.88231 13.8415 9.8228 13.3442C9.76329 12.8469 9.564 12.3766 9.24805 11.988C9.564 11.5993 9.76329 11.129 9.8228 10.6317C9.88231 10.1344 9.79961 9.63037 9.58427 9.17814C9.36894 8.72591 9.02981 8.34399 8.60622 8.0767C8.18262 7.8094 7.69192 7.66768 7.19104 7.66797V7.67097ZM6.50204 9.63197H7.19104C7.37377 9.63197 7.54903 9.70456 7.67824 9.83377C7.80745 9.96298 7.88004 10.1382 7.88004 10.321C7.88004 10.5037 7.80745 10.6789 7.67824 10.8082C7.54903 10.9374 7.37377 11.01 7.19104 11.01H6.50204V9.63197ZM7.19104 14.349H6.50204V12.971H7.19104C7.37377 12.971 7.54903 13.0436 7.67824 13.1728C7.80745 13.302 7.88004 13.4772 7.88004 13.66C7.88004 13.8427 7.80745 14.018 7.67824 14.1472C7.54903 14.2764 7.37377 14.349 7.19104 14.349Z" fill="black"/>
<path d="M11.8638 7.67188C11.6036 7.67188 11.3541 7.77522 11.1701 7.9592C10.9862 8.14317 10.8828 8.39269 10.8828 8.65287V15.3279C10.8909 15.5825 10.9978 15.824 11.1808 16.0012C11.3638 16.1785 11.6086 16.2776 11.8633 16.2776C12.1181 16.2776 12.3628 16.1785 12.5458 16.0012C12.7288 15.824 12.8357 15.5825 12.8438 15.3279V8.64987C12.843 8.39039 12.7394 8.14179 12.5558 7.9585C12.3721 7.7752 12.1233 7.67214 11.8638 7.67188V7.67188Z" fill="black"/>
<path d="M16.8411 7.67188H14.9361C14.6759 7.67188 14.4264 7.77522 14.2424 7.9592C14.0584 8.14317 13.9551 8.39269 13.9551 8.65287V15.3279C13.9551 15.5881 14.0584 15.8376 14.2424 16.0215C14.4264 16.2055 14.6759 16.3089 14.9361 16.3089H16.8411C17.4814 16.3083 18.0954 16.0537 18.5482 15.601C19.0009 15.1482 19.2555 14.5342 19.2561 13.8939V10.0839C19.2547 9.44405 18.9998 8.83087 18.5471 8.37873C18.0944 7.92659 17.4809 7.6724 16.8411 7.67188V7.67188ZM17.2941 13.8969C17.2938 14.0169 17.246 14.132 17.1611 14.2169C17.0762 14.3018 16.9611 14.3496 16.8411 14.3499H15.9161V9.63287H16.8411C16.9611 9.63314 17.0762 9.68095 17.1611 9.76585C17.246 9.85074 17.2938 9.96581 17.2941 10.0859V13.8969Z" fill="black"/>
</g>
<defs>
<clipPath id="clip0_1350_141">
<rect width="23.797" height="33.473" fill="white"/>
</clipPath>
</defs>
</svg>
