<svg width="23" height="30" viewBox="0 0 23 30" fill="none" xmlns="http://www.w3.org/2000/svg">
<g clip-path="url(#clip0_1350_210)">
<path d="M22.9849 23.921L21.6899 7.6C21.6486 7.09063 21.4176 6.61532 21.0426 6.26811C20.6676 5.9209 20.176 5.72708 19.6649 5.725H17.1059V5.607C17.1059 4.11993 16.5152 2.69377 15.4637 1.64225C14.4122 0.590736 12.986 0 11.4989 0C10.0119 0 8.5857 0.590736 7.53419 1.64225C6.48267 2.69377 5.89193 4.11993 5.89193 5.607V5.722H3.33294C2.82159 5.7244 2.32979 5.91874 1.95494 6.26655C1.58009 6.61436 1.34954 7.09026 1.30894 7.6L0.00893396 23.928C-0.0407971 24.5767 0.0440497 25.2287 0.258148 25.8431C0.472247 26.4576 0.81098 27.0211 1.25311 27.4984C1.69524 27.9758 2.23122 28.3566 2.82745 28.6171C3.42368 28.8775 4.0673 29.012 4.71793 29.012H18.2789C18.9298 29.012 19.5737 28.8775 20.1702 28.6168C20.7666 28.3562 21.3028 27.9751 21.7449 27.4974C22.1871 27.0197 22.5258 26.4558 22.7397 25.8411C22.9536 25.2263 23.0381 24.574 22.9879 23.925L22.9849 23.921ZM7.59093 5.607C7.59093 4.57053 8.00267 3.57652 8.73556 2.84363C9.46845 2.11073 10.4625 1.699 11.4989 1.699C12.5354 1.699 13.5294 2.11073 14.2623 2.84363C14.9952 3.57652 15.4069 4.57053 15.4069 5.607V5.722H7.59093V5.607ZM20.4909 26.339C20.209 26.6462 19.8659 26.891 19.4838 27.0579C19.1017 27.2248 18.6889 27.31 18.2719 27.308H4.72194C4.30555 27.308 3.89366 27.2219 3.51207 27.0553C3.13048 26.8887 2.78741 26.645 2.50437 26.3396C2.22132 26.0342 2.00439 25.6737 1.86718 25.2805C1.72996 24.8874 1.6754 24.4702 1.70694 24.055L3.00694 7.727C3.0137 7.64379 3.05148 7.56615 3.11279 7.50948C3.17409 7.45281 3.25445 7.42123 3.33794 7.421H5.89693V9.514C5.89693 9.73943 5.98649 9.95563 6.14589 10.115C6.3053 10.2744 6.5215 10.364 6.74694 10.364C6.97237 10.364 7.18857 10.2744 7.34798 10.115C7.50738 9.95563 7.59694 9.73943 7.59694 9.514V7.421H15.4129V9.514C15.4129 9.73943 15.5025 9.95563 15.6619 10.115C15.8213 10.2744 16.0375 10.364 16.2629 10.364C16.4884 10.364 16.7046 10.2744 16.864 10.115C17.0234 9.95563 17.1129 9.73943 17.1129 9.514V7.421H19.6719C19.7558 7.42152 19.8365 7.45359 19.8978 7.51085C19.9591 7.5681 19.9967 7.64634 20.0029 7.73L21.3029 24.053C21.3353 24.4695 21.2802 24.8881 21.141 25.282C21.0018 25.6759 20.7818 26.0363 20.4949 26.34L20.4909 26.339Z" fill="black"/>
<path d="M15.3271 14.4065C15.1679 14.2475 14.9521 14.1582 14.7271 14.1582C14.5021 14.1582 14.2863 14.2475 14.1271 14.4065L10.3341 18.1995L8.87509 16.7405C8.71306 16.5965 8.50212 16.5199 8.28543 16.5263C8.06875 16.5326 7.8627 16.6216 7.70941 16.7749C7.55613 16.9281 7.4672 17.1342 7.46082 17.3509C7.45444 17.5676 7.53109 17.7785 7.6751 17.9405L9.7341 19.9995C9.89329 20.1586 10.1091 20.2479 10.3341 20.2479C10.5591 20.2479 10.7749 20.1586 10.9341 19.9995L15.3281 15.6055C15.4864 15.4461 15.5752 15.2305 15.575 15.0058C15.5748 14.7811 15.4857 14.5657 15.3271 14.4065V14.4065Z" fill="black"/>
</g>
<defs>
<clipPath id="clip0_1350_210">
<rect width="23" height="29.008" fill="white"/>
</clipPath>
</defs>
</svg>
