<svg width="35" height="35" viewBox="0 0 35 35" fill="none" xmlns="http://www.w3.org/2000/svg">
<g clip-path="url(#clip0_1350_232)">
<path d="M17.2148 15.4316H16.0898C16.0898 17.0506 16.0898 16.4236 16.0968 17.7486H17.2148C17.3696 17.7532 17.5237 17.7267 17.668 17.6706C17.8122 17.6145 17.9438 17.5301 18.0549 17.4222C18.1659 17.3144 18.2542 17.1853 18.3145 17.0428C18.3748 16.9002 18.4059 16.7469 18.4059 16.5921C18.4059 16.4373 18.3748 16.2841 18.3145 16.1415C18.2542 15.999 18.1659 15.8699 18.0549 15.7621C17.9438 15.6542 17.8122 15.5698 17.668 15.5137C17.5237 15.4576 17.3696 15.4311 17.2148 15.4356V15.4316Z" fill="white"/>
<path d="M21.1892 11.7365L17.2532 7.72852L13.3482 11.7345C13.273 11.8119 13.1859 11.8767 13.0902 11.9265L7.90918 14.6155L10.6372 19.5005C10.7009 19.6146 10.742 19.7399 10.7582 19.8695L11.4852 25.7765L17.0502 24.5455C17.1941 24.5135 17.3433 24.5135 17.4872 24.5455L23.0232 25.7755L23.7792 19.8635C23.7952 19.7371 23.8353 19.6149 23.8972 19.5035L26.5972 14.6135L21.4452 11.9255C21.3504 11.8764 21.2641 11.8126 21.1892 11.7365V11.7365ZM17.2142 19.7645H16.0862V22.0955C16.0779 22.358 15.9678 22.607 15.7792 22.7898C15.5906 22.9725 15.3383 23.0747 15.0757 23.0747C14.8131 23.0747 14.5607 22.9725 14.3721 22.7898C14.1835 22.607 14.0734 22.358 14.0652 22.0955V14.4255C14.0654 14.1572 14.1719 13.8999 14.3614 13.7099C14.5509 13.5198 14.8079 13.4126 15.0762 13.4115H17.2142C17.6362 13.404 18.0555 13.4807 18.4476 13.637C18.8396 13.7933 19.1966 14.0262 19.4977 14.322C19.7988 14.6178 20.038 14.9706 20.2012 15.3598C20.3645 15.7491 20.4485 16.1669 20.4485 16.589C20.4485 17.0111 20.3645 17.429 20.2012 17.8182C20.038 18.2074 19.7988 18.5602 19.4977 18.856C19.1966 19.1518 18.8396 19.3847 18.4476 19.541C18.0555 19.6973 17.6362 19.774 17.2142 19.7665V19.7645Z" fill="white"/>
<path d="M29.4449 5.05491C27.033 2.64308 23.9601 1.00063 20.6147 0.335242C17.2693 -0.330144 13.8017 0.011423 10.6505 1.31675C7.49923 2.62208 4.80581 4.83254 2.91082 7.66862C1.01584 10.5047 0.00439453 13.839 0.00439453 17.2499C0.00439453 20.6608 1.01584 23.9951 2.91082 26.8312C4.80581 29.6673 7.49923 31.8777 10.6505 33.1831C13.8017 34.4884 17.2693 34.83 20.6147 34.1646C23.9601 33.4992 27.033 31.8567 29.4449 29.4449C31.0475 27.8441 32.3188 25.943 33.1862 23.8505C34.0537 21.758 34.5001 19.5151 34.5001 17.2499C34.5001 14.9847 34.0537 12.7418 33.1862 10.6493C32.3188 8.55678 31.0475 6.65576 29.4449 5.05491V5.05491ZM28.8669 14.6869L25.7569 20.3139L24.8849 27.1329C24.8669 27.2722 24.82 27.4062 24.7473 27.5264C24.6747 27.6466 24.5778 27.7503 24.4629 27.831C24.3479 27.9117 24.2174 27.9676 24.0797 27.9951C23.942 28.0227 23.8001 28.0212 23.6629 27.9909L17.2629 26.5699L10.8349 27.9899C10.6975 28.0202 10.5552 28.0215 10.4173 27.9936C10.2793 27.9658 10.1487 27.9095 10.0337 27.8282C9.91879 27.747 9.82208 27.6426 9.74979 27.5219C9.6775 27.4011 9.63123 27.2666 9.61392 27.1269L8.77492 20.3129L5.63492 14.6899C5.56911 14.5717 5.52766 14.4415 5.51304 14.307C5.49842 14.1725 5.51091 14.0364 5.54979 13.9068C5.58867 13.7772 5.65314 13.6568 5.73938 13.5525C5.82563 13.4483 5.9319 13.3624 6.05192 13.2999L12.0129 10.2069L16.5259 5.57791C16.62 5.48176 16.7323 5.40536 16.8563 5.35321C16.9803 5.30105 17.1134 5.27418 17.2479 5.27418C17.3824 5.27418 17.5156 5.30105 17.6396 5.35321C17.7635 5.40536 17.8759 5.48176 17.9699 5.57791L22.5179 10.2099L28.4499 13.2999C28.5692 13.3623 28.6749 13.4479 28.7607 13.5517C28.8465 13.6554 28.9107 13.7753 28.9495 13.9042C28.9884 14.0331 29.0011 14.1685 28.9869 14.3024C28.9727 14.4363 28.9319 14.566 28.8669 14.6839V14.6869Z" fill="white"/>
</g>
<defs>
<clipPath id="clip0_1350_232">
<rect width="34.5" height="34.5" fill="white"/>
</clipPath>
</defs>
</svg>
