<svg width="25" height="22" viewBox="0 0 25 22" fill="none" xmlns="http://www.w3.org/2000/svg">
<g clip-path="url(#clip0_1350_194)">
<path d="M19.9909 16.0685C20.3665 15.7172 20.6449 15.2748 20.7991 14.7842C20.9532 14.2936 20.978 13.7715 20.8709 13.2685C21.4305 12.7501 21.8414 12.0915 22.0608 11.361C22.2802 10.6304 22.3003 9.85441 22.1189 9.11347L24.3449 7.16547C24.4822 7.03428 24.5636 6.85515 24.572 6.66543C24.5805 6.4757 24.5154 6.29003 24.3903 6.14713C24.2652 6.00424 24.0898 5.91517 23.9006 5.89846C23.7114 5.88176 23.5231 5.93871 23.3749 6.05747L20.7889 8.32047C20.676 8.42007 20.5963 8.55186 20.5605 8.6981C20.5248 8.84434 20.5347 8.99803 20.5889 9.13848C20.7636 9.59707 20.8148 10.0935 20.7372 10.5781C20.6596 11.0627 20.456 11.5184 20.1469 11.8995C18.1979 9.83048 16.1769 7.82448 14.1939 5.78848C14.0608 5.65198 13.8799 5.57238 13.6893 5.56641C13.4988 5.56045 13.3133 5.62858 13.1719 5.75648L11.3879 7.37048C11.2476 7.49752 11.1616 7.67372 11.1479 7.86248L10.9829 10.1125C10.9561 10.2806 10.869 10.4332 10.7379 10.5418C10.6068 10.6503 10.4405 10.7073 10.2704 10.7022C10.1002 10.697 9.93779 10.6301 9.81345 10.5138C9.68911 10.3975 9.61141 10.2399 9.59488 10.0705L9.68787 8.00848C9.70084 7.64583 9.78679 7.28952 9.94057 6.96084C10.0943 6.63215 10.3128 6.33784 10.5829 6.09548L12.7749 4.18649L12.7849 4.17748C13.1949 3.8082 13.7081 3.57311 14.2556 3.50376C14.8031 3.43441 15.3587 3.53411 15.8479 3.78948C15.9826 3.85995 16.1357 3.88711 16.2864 3.86724C16.4371 3.84737 16.5781 3.78144 16.6899 3.67848L19.3779 1.29047C19.512 1.15778 19.5901 0.978712 19.5961 0.790154C19.6021 0.601597 19.5356 0.417912 19.4102 0.276925C19.2849 0.135938 19.1103 0.048393 18.9223 0.0323113C18.7343 0.0162297 18.5474 0.0728389 18.3999 0.190484L16.0559 2.27248C15.4623 2.05332 14.8269 1.97088 14.197 2.0313C13.5671 2.09173 12.959 2.29346 12.4179 2.62148C11.8591 2.25766 11.2216 2.03231 10.5583 1.96414C9.89499 1.89596 9.22498 1.98693 8.60387 2.22949L6.36687 0.195474C6.2953 0.130404 6.21162 0.0800693 6.12059 0.0473413C6.02957 0.0146132 5.93299 0.000142214 5.83637 0.00473871C5.73975 0.00933521 5.64499 0.0329144 5.55748 0.0741357C5.46998 0.115357 5.39144 0.173403 5.32637 0.244973C5.2613 0.316544 5.21097 0.400242 5.17824 0.491265C5.14551 0.582289 5.13104 0.678856 5.13564 0.775475C5.14023 0.872095 5.16381 0.96687 5.20503 1.05438C5.24626 1.14188 5.3043 1.22042 5.37587 1.28549L7.97588 3.64948C8.08969 3.75299 8.23303 3.81829 8.38582 3.83622C8.53861 3.85415 8.69318 3.82381 8.82787 3.74947C9.18486 3.55297 9.58165 3.43967 9.98857 3.41802C10.3955 3.39638 10.802 3.46695 11.1779 3.62447L9.60988 4.99047C9.19083 5.36468 8.85142 5.81946 8.61193 6.32766C8.37243 6.83587 8.23773 7.38709 8.21587 7.94848L8.12288 10.0235C8.00388 12.7575 12.2929 12.9955 12.4529 10.2145L12.5959 8.26548L13.6319 7.32848L18.9459 12.7855C19.0999 12.9227 19.2242 13.0901 19.3109 13.2773C19.3976 13.4645 19.445 13.6675 19.45 13.8738C19.4551 14.08 19.4177 14.2851 19.3403 14.4763C19.2629 14.6676 19.147 14.8409 18.9999 14.9855L14.3159 19.2735C14.0423 19.5229 13.6841 19.6591 13.3139 19.6544C12.9437 19.6498 12.5891 19.5047 12.3219 19.2485C12.5083 18.6595 12.5287 18.0305 12.3808 17.4307C12.233 16.8309 11.9226 16.2834 11.4839 15.8485L8.39787 12.7605C7.93829 12.2997 7.35234 11.9856 6.71417 11.858C6.07601 11.7303 5.41432 11.7949 4.81287 12.0435C4.46153 11.6689 4.21979 11.205 4.11398 10.7024C4.00818 10.1999 4.0424 9.67793 4.21288 9.19347C4.26133 9.05765 4.26887 8.9106 4.23456 8.77053C4.20025 8.63046 4.1256 8.50354 4.01987 8.40548L1.23787 5.82948C1.09298 5.7067 0.9063 5.64461 0.716737 5.65612C0.527175 5.66764 0.349363 5.75188 0.220399 5.89129C0.0914364 6.0307 0.021268 6.2145 0.0245224 6.40438C0.0277768 6.59427 0.104206 6.77558 0.237871 6.91049L2.68688 9.17848C2.54059 9.82973 2.54792 10.5061 2.7083 11.154C2.86868 11.802 3.17769 12.4037 3.61087 12.9115C3.31551 13.3046 3.16988 13.7901 3.20012 14.2809C3.23036 14.7717 3.43449 15.2356 3.77588 15.5895L8.68488 20.5235C9.06743 20.9018 9.5834 21.1146 10.1214 21.1159C10.6595 21.1172 11.1765 20.907 11.5609 20.5305C12.1108 20.935 12.7831 21.1382 13.4651 21.1062C14.147 21.0741 14.7972 20.8088 15.3069 20.3545L19.9909 16.0685ZM10.1519 19.6525C10.0741 19.6544 9.99672 19.6408 9.92426 19.6125C9.8518 19.5842 9.78571 19.5417 9.72988 19.4875L4.82088 14.5545C4.76773 14.501 4.72597 14.4373 4.69809 14.3672C4.67021 14.2971 4.65679 14.2221 4.65866 14.1467C4.66053 14.0713 4.67764 13.9971 4.70896 13.9285C4.74027 13.8598 4.78514 13.7983 4.84087 13.7475C5.18841 13.435 5.64214 13.267 6.10938 13.2778C6.57661 13.2886 7.02211 13.4773 7.35488 13.8055L10.4389 16.8895C10.7191 17.1677 10.9054 17.5265 10.9715 17.9158C11.0377 18.3051 10.9805 18.7053 10.8079 19.0605C10.6619 19.3135 10.5079 19.6355 10.1509 19.6505L10.1519 19.6525Z" fill="black"/>
</g>
<defs>
<clipPath id="clip0_1350_194">
<rect width="24.597" height="21.117" fill="white"/>
</clipPath>
</defs>
</svg>
