<svg width="27" height="27" viewBox="0 0 27 27" fill="none" xmlns="http://www.w3.org/2000/svg">
<g clip-path="url(#clip0_1350_155)">
<path d="M25.943 13.4771L22.786 1.70011C22.6285 1.11477 22.2453 0.6158 21.7203 0.312662C21.1954 0.00952318 20.5717 -0.0730314 19.986 0.0831078L3.294 4.55111C2.70881 4.70884 2.21001 5.09213 1.90691 5.61697C1.60381 6.14182 1.52114 6.76541 1.677 7.35111L2.186 9.25111C1.59755 9.27786 1.04204 9.53034 0.634929 9.95608C0.227819 10.3818 0.000421147 10.948 0 11.5371L0 23.7371C0.000793769 24.3434 0.242 24.9247 0.670723 25.3534C1.09945 25.7821 1.68069 26.0233 2.287 26.0241H19.566C20.1723 26.0233 20.7536 25.7821 21.1823 25.3534C21.611 24.9247 21.8522 24.3434 21.853 23.7371V16.9411L24.325 16.2791C24.9102 16.1214 25.409 15.7381 25.7121 15.2132C26.0152 14.6884 26.0979 14.0648 25.942 13.4791L25.943 13.4771ZM22.168 5.27711L22.563 6.75011L13.248 9.25011H7.356L22.168 5.27711ZM3.689 6.02311L20.379 1.55111C20.5743 1.49886 20.7824 1.52628 20.9575 1.62734C21.1327 1.7284 21.2605 1.89485 21.313 2.09011L21.773 3.80811L3.61 8.67511L3.15 6.95711C3.09775 6.76178 3.12517 6.5537 3.22623 6.37858C3.3273 6.20345 3.49374 6.0756 3.689 6.02311V6.02311ZM20.329 23.7341C20.3287 23.9361 20.2484 24.1298 20.1055 24.2726C19.9627 24.4155 19.769 24.4958 19.567 24.4961H2.287C2.08499 24.4958 1.89132 24.4155 1.74848 24.2726C1.60563 24.1298 1.52526 23.9361 1.525 23.7341V11.5341C1.52526 11.3321 1.60563 11.1384 1.74848 10.9956C1.89132 10.8527 2.08499 10.7724 2.287 10.7721H19.566C19.768 10.7724 19.9617 10.8527 20.1045 10.9956C20.2474 11.1384 20.3277 11.3321 20.328 11.5341L20.329 23.7341ZM23.929 14.8051L21.852 15.3621V11.5371C21.8512 10.931 21.6101 10.3499 21.1816 9.92118C20.7531 9.49249 20.1721 9.25117 19.566 9.25011H19.138L22.957 8.22711L24.47 13.8721C24.5219 14.0673 24.4944 14.2751 24.3933 14.45C24.2923 14.6249 24.126 14.7526 23.931 14.8051H23.929Z" fill="black"/>
<path d="M3.81083 16.8738H8.89283C9.09492 16.8738 9.28874 16.7935 9.43164 16.6506C9.57454 16.5077 9.65483 16.3139 9.65483 16.1118V13.0628C9.65483 12.8607 9.57454 12.6669 9.43164 12.524C9.28874 12.3811 9.09492 12.3008 8.89283 12.3008H3.81083C3.60873 12.3008 3.41492 12.3811 3.27201 12.524C3.12911 12.6669 3.04883 12.8607 3.04883 13.0628V16.1118C3.04883 16.3139 3.12911 16.5077 3.27201 16.6506C3.41492 16.7935 3.60873 16.8738 3.81083 16.8738V16.8738ZM4.57283 13.8248H8.13083V15.3498H4.57383L4.57283 13.8248Z" fill="black"/>
<path d="M18.0379 12.2988H15.4969C15.2947 12.2988 15.1007 12.3792 14.9577 12.5222C14.8147 12.6652 14.7344 12.8591 14.7344 13.0613C14.7344 13.2636 14.8147 13.4575 14.9577 13.6005C15.1007 13.7435 15.2947 13.8238 15.4969 13.8238H18.0379C18.2401 13.8238 18.4341 13.7435 18.5771 13.6005C18.7201 13.4575 18.8004 13.2636 18.8004 13.0613C18.8004 12.8591 18.7201 12.6652 18.5771 12.5222C18.4341 12.3792 18.2401 12.2988 18.0379 12.2988Z" fill="black"/>
<path d="M18.0379 15.3477H15.4969C15.2947 15.3477 15.1007 15.428 14.9577 15.571C14.8147 15.714 14.7344 15.9079 14.7344 16.1102C14.7344 16.3124 14.8147 16.5063 14.9577 16.6493C15.1007 16.7923 15.2947 16.8727 15.4969 16.8727H18.0379C18.2401 16.8727 18.4341 16.7923 18.5771 16.6493C18.7201 16.5063 18.8004 16.3124 18.8004 16.1102C18.8004 15.9079 18.7201 15.714 18.5771 15.571C18.4341 15.428 18.2401 15.3477 18.0379 15.3477Z" fill="black"/>
<path d="M8.89284 21.4473H3.81084C3.60861 21.4473 3.41467 21.5276 3.27167 21.6706C3.12867 21.8136 3.04834 22.0076 3.04834 22.2098C3.04834 22.412 3.12867 22.6059 3.27167 22.7489C3.41467 22.8919 3.60861 22.9723 3.81084 22.9723H8.89284C9.09507 22.9723 9.28901 22.8919 9.43201 22.7489C9.57501 22.6059 9.65534 22.412 9.65534 22.2098C9.65534 22.0076 9.57501 21.8136 9.43201 21.6706C9.28901 21.5276 9.09507 21.4473 8.89284 21.4473V21.4473Z" fill="black"/>
<path d="M3.81084 19.9234H5.33584C5.53807 19.9234 5.73201 19.8431 5.87501 19.7001C6.018 19.5571 6.09834 19.3632 6.09834 19.1609C6.09834 18.9587 6.018 18.7648 5.87501 18.6218C5.73201 18.4788 5.53807 18.3984 5.33584 18.3984H3.81084C3.60861 18.3984 3.41467 18.4788 3.27167 18.6218C3.12867 18.7648 3.04834 18.9587 3.04834 19.1609C3.04834 19.3632 3.12867 19.5571 3.27167 19.7001C3.41467 19.8431 3.60861 19.9234 3.81084 19.9234V19.9234Z" fill="black"/>
<path d="M9.91006 18.3984H8.38506C8.18283 18.3984 7.98888 18.4788 7.84589 18.6218C7.70289 18.7648 7.62256 18.9587 7.62256 19.1609C7.62256 19.3632 7.70289 19.5571 7.84589 19.7001C7.98888 19.8431 8.18283 19.9234 8.38506 19.9234H9.91006C10.1123 19.9234 10.3062 19.8431 10.4492 19.7001C10.5922 19.5571 10.6726 19.3632 10.6726 19.1609C10.6726 18.9587 10.5922 18.7648 10.4492 18.6218C10.3062 18.4788 10.1123 18.3984 9.91006 18.3984Z" fill="black"/>
<path d="M14.4838 18.3984H12.9588C12.7566 18.3984 12.5626 18.4788 12.4196 18.6218C12.2766 18.7648 12.1963 18.9587 12.1963 19.1609C12.1963 19.3632 12.2766 19.5571 12.4196 19.7001C12.5626 19.8431 12.7566 19.9234 12.9588 19.9234H14.4838C14.686 19.9234 14.88 19.8431 15.023 19.7001C15.166 19.5571 15.2463 19.3632 15.2463 19.1609C15.2463 18.9587 15.166 18.7648 15.023 18.6218C14.88 18.4788 14.686 18.3984 14.4838 18.3984V18.3984Z" fill="black"/>
</g>
<defs>
<clipPath id="clip0_1350_155">
<rect width="26.021" height="26.021" fill="white"/>
</clipPath>
</defs>
</svg>
