<svg width="23" height="23" viewBox="0 0 23 23" fill="none" xmlns="http://www.w3.org/2000/svg">
<g clip-path="url(#clip0_1350_230)">
<path d="M17.61 23H5.39102C3.96197 22.9976 2.59213 22.4289 1.58164 21.4184C0.571146 20.4079 0.00240344 19.0381 2.36613e-05 17.609V12.219C-0.00331896 11.1897 0.34759 10.1905 0.993834 9.3893C1.64008 8.5881 2.5423 8.03363 3.54902 7.819V5.393C3.55087 3.9636 4.11938 2.59325 5.12993 1.58232C6.14049 0.571399 7.51063 0.00238113 8.94002 0H17.61C19.0392 0.00264552 20.4091 0.57178 21.4195 1.58268C22.4298 2.59357 22.9982 3.96378 23 5.393V17.609C22.9976 19.0379 22.429 20.4076 21.4188 21.418C20.4085 22.4285 19.0389 22.9974 17.61 23V23ZM3.54902 9.677C3.02942 9.86633 2.58175 10.2129 2.26828 10.6685C1.95481 11.1241 1.79114 11.6661 1.80002 12.219V17.61C1.80187 18.562 2.18074 19.4745 2.85372 20.1479C3.52671 20.8212 4.43902 21.2006 5.39102 21.203H17.61C18.562 21.2004 19.4742 20.8207 20.147 20.1472C20.8198 19.4736 21.1984 18.561 21.2 17.609V5.393C21.2 4.43995 20.8221 3.52579 20.1491 2.85094C19.4762 2.1761 18.5631 1.79565 17.61 1.793H8.94002C7.98628 1.79459 7.07215 2.17458 6.39832 2.84953C5.72448 3.52449 5.34602 4.43926 5.34602 5.393V17.793C5.34602 18.0317 5.2512 18.2606 5.08242 18.4294C4.91364 18.5982 4.68472 18.693 4.44602 18.693C4.20733 18.693 3.97841 18.5982 3.80963 18.4294C3.64084 18.2606 3.54602 18.0317 3.54602 17.793L3.54902 9.677ZM19.407 5.793C19.407 5.55431 19.3122 5.32539 19.1434 5.1566C18.9746 4.98782 18.7457 4.893 18.507 4.893H8.04102C7.80233 4.893 7.57341 4.98782 7.40463 5.1566C7.23585 5.32539 7.14102 5.55431 7.14102 5.793C7.14102 6.0317 7.23585 6.26061 7.40463 6.4294C7.57341 6.59818 7.80233 6.693 8.04102 6.693H18.508C18.7465 6.69273 18.9752 6.5978 19.1438 6.42904C19.3123 6.26029 19.407 6.03152 19.407 5.793V5.793ZM19.452 14.193C19.452 13.9543 19.3572 13.7254 19.1884 13.5566C19.0196 13.3878 18.7907 13.293 18.552 13.293H15.052C14.8133 13.293 14.5844 13.3878 14.4156 13.5566C14.2468 13.7254 14.152 13.9543 14.152 14.193C14.152 14.4317 14.2468 14.6606 14.4156 14.8294C14.5844 14.9982 14.8133 15.093 15.052 15.093H18.552C18.7905 15.0927 19.0192 14.9978 19.1878 14.829C19.3563 14.6603 19.451 14.4315 19.451 14.193H19.452ZM12.399 14.193C12.399 13.9543 12.3042 13.7254 12.1354 13.5566C11.9666 13.3878 11.7377 13.293 11.499 13.293H8.04102C7.80233 13.293 7.57341 13.3878 7.40463 13.5566C7.23585 13.7254 7.14102 13.9543 7.14102 14.193C7.14102 14.4317 7.23585 14.6606 7.40463 14.8294C7.57341 14.9982 7.80233 15.093 8.04102 15.093H11.5C11.7387 15.093 11.9676 14.9982 12.1364 14.8294C12.3052 14.6606 12.4 14.4317 12.4 14.193H12.399ZM12.399 17.787C12.399 17.5483 12.3042 17.3194 12.1354 17.1506C11.9666 16.9818 11.7377 16.887 11.499 16.887H8.04102C7.80233 16.887 7.57341 16.9818 7.40463 17.1506C7.23585 17.3194 7.14102 17.5483 7.14102 17.787C7.14102 18.0257 7.23585 18.2546 7.40463 18.4234C7.57341 18.5922 7.80233 18.687 8.04102 18.687H11.5C11.7377 18.687 11.9657 18.593 12.1343 18.4255C12.3029 18.258 12.3984 18.0307 12.4 17.793L12.399 17.787ZM17.61 17.787C17.61 17.5483 17.5152 17.3194 17.3464 17.1506C17.1776 16.9818 16.9487 16.887 16.71 16.887H15.049C14.8103 16.887 14.5814 16.9818 14.4126 17.1506C14.2438 17.3194 14.149 17.5483 14.149 17.787C14.149 18.0257 14.2438 18.2546 14.4126 18.4234C14.5814 18.5922 14.8103 18.687 15.049 18.687H16.711C16.9485 18.6867 17.1763 18.5926 17.3447 18.4252C17.5131 18.2577 17.6084 18.0305 17.61 17.793V17.787ZM18.553 11.498H12.039C11.8003 11.498 11.5714 11.4032 11.4026 11.2344C11.2338 11.0656 11.139 10.8367 11.139 10.598C11.139 10.3593 11.2338 10.1304 11.4026 9.9616C11.5714 9.79282 11.8003 9.698 12.039 9.698H18.553C18.792 9.698 19.0212 9.79293 19.1901 9.9619C19.3591 10.1309 19.454 10.36 19.454 10.599C19.454 10.838 19.3591 11.0671 19.1901 11.2361C19.0212 11.4051 18.792 11.5 18.553 11.5V11.498ZM7.14302 10.51C7.14184 10.7324 7.20669 10.9501 7.32936 11.1355C7.45203 11.321 7.627 11.4659 7.8321 11.5518C8.03719 11.6377 8.26317 11.6608 8.48141 11.6181C8.69964 11.5755 8.9003 11.469 9.05796 11.3122C9.21561 11.1554 9.32317 10.9553 9.36699 10.7373C9.41081 10.5193 9.38892 10.2932 9.3041 10.0876C9.21928 9.88209 9.07535 9.70635 8.89055 9.58268C8.70574 9.45902 8.48839 9.393 8.26602 9.393C7.96888 9.393 7.68384 9.51076 7.47335 9.7205C7.26287 9.93024 7.14408 10.2149 7.14302 10.512V10.51Z" fill="black"/>
</g>
<defs>
<clipPath id="clip0_1350_230">
<rect width="23" height="23" fill="white"/>
</clipPath>
</defs>
</svg>
