<svg width="27" height="27" viewBox="0 0 27 27" fill="none" xmlns="http://www.w3.org/2000/svg">
<path d="M15.0771 26.6992C14.2301 26.6992 13.3831 26.6992 12.5361 26.6992C12.0346 26.5638 11.5874 26.3472 11.2283 25.9614C10.7268 25.4266 10.5507 24.7836 10.5574 24.0728C10.5574 23.8697 10.51 23.7411 10.2999 23.6734C10.0153 23.5854 9.74429 23.4636 9.47325 23.3485C8.97181 23.1319 8.97181 23.1252 8.56525 23.511C7.60304 24.418 6.17327 24.4316 5.21106 23.5313C4.78417 23.1319 4.37082 22.719 3.97103 22.2926C3.48315 21.7849 3.27309 21.1689 3.31375 20.4649C3.34763 19.7406 3.68643 19.1856 4.20142 18.7253C4.34372 18.5966 4.37082 18.4816 4.28273 18.3056C4.093 17.9536 3.94393 17.5881 3.82196 17.209C3.76097 17.0127 3.64578 16.945 3.44927 16.945C3.10369 16.945 2.75133 16.9247 2.4193 16.8096C1.5384 16.4915 1.02342 15.8552 0.799805 14.9684C0.799805 14.1223 0.799805 13.2762 0.799805 12.43C1.00309 11.6448 1.43676 11.0424 2.18213 10.6836C2.5616 10.5008 2.96139 10.4467 3.36796 10.4535C3.64578 10.4602 3.7813 10.3587 3.85584 10.0947C3.9236 9.851 4.03879 9.62085 4.14044 9.39071C4.37082 8.86272 4.3776 8.86272 3.97781 8.44304C3.09691 7.5089 3.06981 6.09417 3.93715 5.15327C4.35727 4.69297 4.8045 4.25298 5.26527 3.82653C5.91578 3.23085 6.68826 3.08193 7.53527 3.285C8.04348 3.40685 8.45005 3.71822 8.78886 4.10406C8.9176 4.25298 9.0328 4.25975 9.20898 4.17852C9.54101 4.01606 9.88659 3.86037 10.2322 3.7453C10.4693 3.66407 10.5642 3.549 10.5642 3.29177C10.5574 2.88563 10.6049 2.48625 10.781 2.10719C11.1334 1.34905 11.7432 0.902291 12.5361 0.699219C13.3831 0.699219 14.2301 0.699219 15.0771 0.699219C16.0867 0.963213 16.7644 1.5792 16.9947 2.61487C17.049 2.85855 17.049 3.11578 17.0557 3.373C17.0625 3.549 17.1235 3.65053 17.2929 3.71146C17.5639 3.80622 17.835 3.91453 18.0925 4.0296C18.6413 4.26652 18.6346 4.27329 19.0615 3.87391C19.9966 3.0007 21.4196 2.97363 22.3614 3.84007C22.8154 4.25975 23.2559 4.69297 23.6692 5.15327C24.2588 5.78956 24.4214 6.56123 24.2249 7.39383C24.1097 7.89474 23.8251 8.30765 23.4388 8.63934C23.2627 8.79503 23.2356 8.92364 23.344 9.14025C23.5066 9.45163 23.6489 9.78331 23.7573 10.1218C23.8386 10.379 23.9742 10.4602 24.2317 10.4535C24.916 10.4399 25.5327 10.6294 26.0477 11.1033C26.4407 11.4688 26.6643 11.9223 26.7998 12.43C26.7998 13.2762 26.7998 14.1223 26.7998 14.9684C26.7727 15.0564 26.7456 15.1444 26.7185 15.2324C26.4136 16.1327 25.7902 16.6878 24.8618 16.8908C24.6382 16.9382 24.4078 16.9518 24.1774 16.945C23.9606 16.945 23.8386 17.0127 23.7709 17.2293C23.6828 17.5136 23.5608 17.7844 23.4388 18.0551C23.2288 18.5357 23.222 18.5289 23.5947 18.9216C24.523 19.8963 24.5366 21.3381 23.6082 22.3129C23.2152 22.7258 22.8154 23.1251 22.4021 23.5178C21.7516 24.1405 20.9723 24.3233 20.0982 24.127C19.5765 24.0051 19.1631 23.7005 18.8108 23.3079C18.682 23.1658 18.5668 23.1387 18.3906 23.2335C18.045 23.4162 17.6859 23.5719 17.3132 23.687C17.0964 23.7547 17.0286 23.8765 17.0286 24.0931C17.0286 24.506 16.988 24.919 16.8118 25.3048C16.4798 26.0494 15.8767 26.4894 15.0771 26.6992ZM15.4701 3.67761C15.4633 3.67761 15.4633 3.67761 15.4701 3.67761C15.4701 3.50838 15.4701 3.33916 15.4701 3.16993C15.4633 2.6284 15.1381 2.26287 14.596 2.24934C14.0742 2.2358 13.5457 2.22903 13.0239 2.24934C12.4954 2.26964 12.1634 2.62163 12.1566 3.14962C12.1498 3.49485 12.1566 3.84684 12.1498 4.19206C12.143 4.59143 11.9398 4.87574 11.5603 4.98404C10.7607 5.21419 9.99501 5.5188 9.26319 5.93171C8.87695 6.14832 8.54492 6.09417 8.22644 5.77602C7.98928 5.54587 7.75889 5.30896 7.52172 5.07881C7.12193 4.69297 6.66115 4.67943 6.26136 5.06527C5.88868 5.42403 5.52276 5.78956 5.16363 6.16186C4.78417 6.56123 4.79094 7.02153 5.18396 7.42091C5.42112 7.66459 5.66506 7.89474 5.90223 8.13843C6.1936 8.44304 6.25459 8.77472 6.04453 9.13348C5.62441 9.87131 5.30593 10.6362 5.08232 11.4485C4.9739 11.8343 4.6893 12.0306 4.28951 12.0374C3.9507 12.0442 3.6119 12.0374 3.27309 12.0374C2.731 12.0442 2.36509 12.3691 2.35154 12.9106C2.33799 13.4318 2.33799 13.9598 2.35154 14.481C2.37187 15.009 2.72422 15.3407 3.25276 15.3475C3.59157 15.3543 3.93038 15.3475 4.26918 15.3475C4.70285 15.3543 4.9739 15.5506 5.09587 15.9635C5.31948 16.7555 5.63118 17.5136 6.03775 18.2311C6.25459 18.6169 6.20038 18.9486 5.8819 19.2668C5.65151 19.5037 5.41435 19.7338 5.18396 19.9708C4.79772 20.3701 4.78417 20.8304 5.17041 21.2298C5.52954 21.6021 5.89545 21.9676 6.26814 22.3264C6.66793 22.7055 7.12871 22.6987 7.5285 22.3061C7.77244 22.0692 8.00283 21.8255 8.24677 21.5886C8.55169 21.2975 8.88372 21.2366 9.24286 21.4464C9.97468 21.8593 10.7472 22.1775 11.5603 22.4076C11.9465 22.5159 12.143 22.8002 12.1498 23.1996C12.1566 23.5381 12.1498 23.8765 12.1498 24.215C12.1566 24.7565 12.4818 25.122 13.0239 25.1356C13.5457 25.1559 14.0742 25.1559 14.596 25.1356C15.1313 25.1153 15.4633 24.7565 15.4633 24.2082C15.4633 23.8765 15.4633 23.5448 15.4633 23.2199C15.4701 22.7935 15.6666 22.5159 16.08 22.3941C16.8728 22.1707 17.6317 21.8593 18.35 21.4532C18.7362 21.2366 19.0615 21.2907 19.3867 21.6089C19.6239 21.839 19.8543 22.0759 20.0914 22.3061C20.4912 22.6919 20.952 22.7055 21.3518 22.3196C21.7245 21.9609 22.0904 21.5953 22.4495 21.223C22.829 20.8237 22.8222 20.3634 22.4292 19.964C22.192 19.7203 21.9481 19.4902 21.7109 19.2465C21.4196 18.9419 21.3586 18.6102 21.5686 18.2514C21.982 17.5204 22.3005 16.7487 22.5308 15.9364C22.6393 15.5573 22.9239 15.3543 23.3237 15.3475C23.6625 15.3407 24.0013 15.3475 24.3401 15.3475C24.8822 15.3407 25.2481 15.0158 25.2616 14.4743C25.282 13.9531 25.282 13.4251 25.2616 12.9039C25.2413 12.3691 24.8822 12.0374 24.3333 12.0374C23.9945 12.0374 23.6557 12.0374 23.3169 12.0374C22.9171 12.0306 22.6325 11.8276 22.5241 11.4485C22.2937 10.6498 21.9888 9.88485 21.5754 9.15379C21.3586 8.76795 21.4128 8.44304 21.7313 8.11812C21.9617 7.8812 22.1988 7.65105 22.4292 7.41414C22.8154 7.01476 22.829 6.55447 22.4428 6.15509C22.0836 5.78279 21.7177 5.41726 21.345 5.0585C20.9452 4.67943 20.4845 4.6862 20.0847 5.07881C19.8339 5.32249 19.5968 5.57295 19.3461 5.80987C19.0615 6.08063 18.7294 6.14155 18.3906 5.94525C17.6385 5.52557 16.8524 5.20065 16.0258 4.9705C15.6666 4.86897 15.4701 4.5779 15.4633 4.21237C15.4633 4.03637 15.4701 3.86037 15.4701 3.67761Z" fill="black"/>
<path d="M19.5088 13.7171C19.4953 16.8376 16.9068 19.4031 13.7898 19.3895C10.666 19.376 8.09783 16.7902 8.11138 13.6764C8.12493 10.5559 10.7134 7.99042 13.8304 8.00396C16.9475 8.0175 19.5224 10.6033 19.5088 13.7171ZM17.9097 13.6967C17.9097 11.4291 16.0801 9.60146 13.8101 9.60146C11.5401 9.60146 9.71055 11.4291 9.71055 13.6967C9.71055 15.9644 11.5401 17.792 13.8101 17.792C16.0801 17.7988 17.9097 15.9712 17.9097 13.6967Z" fill="black"/>
</svg>
