<svg width="24" height="24" viewBox="0 0 24 24" fill="none" xmlns="http://www.w3.org/2000/svg">
<g clip-path="url(#clip0_1350_200)">
<path d="M21.354 9.356L19.654 9.14C19.5155 8.71347 19.3437 8.29852 19.14 7.899L20.188 6.549C20.3928 6.28982 20.4949 5.9642 20.4746 5.63448C20.4543 5.30475 20.3131 4.99411 20.078 4.762L18.659 3.342C18.4268 3.10564 18.1156 2.96322 17.785 2.942C17.4543 2.92078 17.1275 3.02226 16.867 3.227L15.519 4.275C15.1186 4.07105 14.7026 3.89918 14.275 3.761L14.059 2.066C14.0197 1.73824 13.8618 1.43618 13.6152 1.21679C13.3685 0.997396 13.0501 0.875825 12.72 0.875L10.698 0.875C10.3677 0.875034 10.0488 0.995995 9.80156 1.21505C9.55432 1.4341 9.39582 1.73609 9.356 2.064L9.14 3.764C8.71337 3.90096 8.29838 4.07184 7.899 4.275L6.55 3.227C6.29073 3.02239 5.96515 2.92049 5.6355 2.94079C5.30584 2.96108 4.99522 3.10214 4.763 3.337L3.342 4.758C3.10537 4.99023 2.96277 5.30163 2.94155 5.6325C2.92033 5.96338 3.02197 6.29044 3.227 6.551L4.275 7.9C4.07094 8.29934 3.89906 8.71432 3.761 9.141L2.066 9.357C1.7379 9.39635 1.43557 9.55451 1.21613 9.80158C0.996689 10.0487 0.875337 10.3675 0.875 10.698V12.72C0.875034 13.0503 0.995995 13.3692 1.21505 13.6164C1.4341 13.8637 1.73609 14.0222 2.064 14.062L3.764 14.278C3.90153 14.7041 4.07239 15.1187 4.275 15.518L3.227 16.868C3.02218 17.1272 2.92015 17.4528 2.94044 17.7825C2.96074 18.1122 3.10194 18.4229 3.337 18.655L4.759 20.075C4.99142 20.311 5.30266 20.4531 5.63323 20.4741C5.96381 20.4952 6.29054 20.3937 6.551 20.189L7.9 19.141C8.29916 19.3454 8.71418 19.5173 9.141 19.655L9.357 21.349C9.39569 21.6778 9.55369 21.981 9.80105 22.2011C10.0484 22.4212 10.3679 22.5428 10.699 22.543H12.721C13.0513 22.543 13.3702 22.422 13.6174 22.203C13.8647 21.9839 14.0232 21.6819 14.063 21.354L14.279 19.654C14.7055 19.5155 15.1205 19.3437 15.52 19.14L16.87 20.188C17.1292 20.3928 17.4548 20.4949 17.7845 20.4746C18.1142 20.4543 18.4249 20.3131 18.657 20.078L20.075 18.659C20.3116 18.4269 20.4541 18.1157 20.4753 17.785C20.4966 17.4543 20.395 17.1274 20.19 16.867L19.142 15.518C19.3464 15.1188 19.5183 14.7038 19.656 14.277L21.35 14.061C21.6785 14.0219 21.9812 13.8637 22.2008 13.6163C22.4205 13.369 22.5419 13.0498 22.542 12.719V10.698C22.5422 10.3678 22.4215 10.0489 22.2026 9.80164C21.9837 9.55437 21.6818 9.39584 21.354 9.356V9.356ZM11.709 16.223C10.8162 16.223 9.94348 15.9583 9.20116 15.4623C8.45883 14.9662 7.88026 14.2613 7.53861 13.4364C7.19695 12.6116 7.10756 11.704 7.28174 10.8284C7.45591 9.95273 7.88583 9.14841 8.51712 8.51712C9.14841 7.88583 9.95273 7.45591 10.8284 7.28174C11.704 7.10756 12.6116 7.19695 13.4364 7.53861C14.2613 7.88026 14.9662 8.45883 15.4623 9.20116C15.9583 9.94348 16.223 10.8162 16.223 11.709C16.2217 12.9058 15.7457 14.0532 14.8994 14.8994C14.0532 15.7457 12.9058 16.2217 11.709 16.223V16.223Z" stroke="black" stroke-width="1.75"/>
</g>
<defs>
<clipPath id="clip0_1350_200">
<rect width="23.417" height="23.418" fill="white"/>
</clipPath>
</defs>
</svg>
