<svg width="26" height="26" viewBox="0 0 26 26" fill="none" xmlns="http://www.w3.org/2000/svg">
<path d="M25.5001 11.6803C25.5001 12.3292 25.5001 13.0708 25.5001 13.7197C25.4074 14.2759 25.4074 14.9248 25.222 15.481C24.0169 20.3015 20.9578 23.4533 16.23 24.9365C15.4884 25.2146 14.6541 25.3073 13.8198 25.4C13.1709 25.4 12.4293 25.4 11.7804 25.4C11.2242 25.3073 10.5753 25.3073 10.0191 25.1219C5.19864 23.9168 2.04681 20.8577 0.563601 16.1299C0.285499 15.3883 0.192798 14.554 0.100098 13.7197C0.100098 13.0708 0.100098 12.3292 0.100098 11.6803C0.192798 11.1241 0.192798 10.4752 0.3782 9.91898C1.58331 5.09854 4.54973 1.94672 9.27747 0.463504C10.0191 0.185401 10.8534 0.0927007 11.6877 0C12.3366 0 13.0782 0 13.7271 0C14.2833 0.0927007 14.9322 0.0927007 15.4884 0.278102C20.4016 1.57591 23.5534 4.54234 25.0366 9.27007C25.222 10.1044 25.3147 10.9387 25.5001 11.6803ZM12.1512 20.765C14.8395 20.765 16.6935 20.0234 18.2694 18.7255C18.7329 18.262 19.1964 17.7985 19.5673 17.2423C19.9381 16.7788 19.8454 16.1299 19.2891 15.7591C18.8256 15.3883 18.1767 15.481 17.8059 15.9445C17.7132 16.0372 17.6205 16.1299 17.5278 16.3153C16.6008 17.5204 15.3957 18.262 13.9125 18.5401C12.0585 18.9109 10.4826 18.4474 8.99937 17.4277C8.44316 17.0569 8.07236 16.5007 7.60886 16.0372C7.05265 15.3883 6.03294 15.5737 5.75484 16.3153C5.56944 16.6861 5.66214 17.0569 5.94024 17.4277C7.70156 19.5599 9.92638 20.6723 12.1512 20.765ZM17.4351 8.52847C16.5081 8.52847 15.6738 9.27007 15.5811 10.2898C15.5811 11.2168 16.3227 12.0511 17.3424 12.0511C18.3621 12.0511 19.1037 11.3095 19.1037 10.2898C19.2891 9.36277 18.4548 8.52847 17.4351 8.52847ZM9.83367 10.2898C9.83367 9.36277 8.99937 8.52847 8.07236 8.52847C7.14535 8.52847 6.31105 9.36277 6.31105 10.2898C6.31105 11.2168 7.14535 12.0511 8.07236 12.0511C8.99937 12.1438 9.83367 11.3095 9.83367 10.2898Z" fill="white"/>
</svg>
