<svg width="29" height="29" viewBox="0 0 29 29" fill="none" xmlns="http://www.w3.org/2000/svg">
<g clip-path="url(#clip0_1350_147)">
<path d="M25.3499 11.3454H24.7899C24.7899 -0.117631 11.2659 -3.52263 5.4899 4.62537C4.08329 6.57423 3.38471 8.94517 3.5099 11.3454H2.9499C2.2073 11.3454 1.4951 11.6404 0.970003 12.1655C0.444901 12.6906 0.149902 13.4028 0.149902 14.1454V17.5054C0.149902 18.248 0.444901 18.9602 0.970003 19.4853C1.23001 19.7453 1.53868 19.9515 1.87839 20.0922C2.2181 20.2329 2.5822 20.3054 2.9499 20.3054H3.6109C3.74539 20.6756 4.00568 20.9868 4.34632 21.1846C4.68695 21.3824 5.08626 21.4542 5.47447 21.3875C5.86268 21.3208 6.2151 21.1198 6.47017 20.8197C6.72524 20.5195 6.86672 20.1393 6.8699 19.7454V11.9054C6.87008 11.6365 6.80572 11.3715 6.68224 11.1327C6.55876 10.8939 6.37976 10.6882 6.16029 10.5329C5.94082 10.3776 5.68728 10.2772 5.42098 10.2403C5.15467 10.2033 4.88338 10.2307 4.6299 10.3204C4.71316 8.69543 5.21469 7.11954 6.0859 5.74537C6.56881 6.04398 7.1362 6.17631 7.70139 6.12214C8.26658 6.06797 8.7985 5.83028 9.2159 5.44537C10.5602 4.20653 12.3213 3.51878 14.1494 3.51878C15.9775 3.51878 17.7386 4.20653 19.0829 5.44537C19.5011 5.82878 20.0329 6.06548 20.5977 6.11961C21.1624 6.17374 21.7295 6.04236 22.2129 5.74537C23.0841 7.11954 23.5856 8.69543 23.6689 10.3204C23.4154 10.2307 23.1441 10.2033 22.8778 10.2403C22.6115 10.2772 22.358 10.3776 22.1385 10.5329C21.919 10.6882 21.74 10.8939 21.6166 11.1327C21.4931 11.3715 21.4287 11.6365 21.4289 11.9054V19.7454C21.4291 19.9939 21.4844 20.2392 21.5909 20.4638C21.6973 20.6883 21.8522 20.8864 22.0445 21.0439C22.2368 21.2013 22.4615 21.3142 22.7027 21.3742C22.9438 21.4343 23.1952 21.4402 23.4389 21.3914C23.0793 22.6883 22.3048 23.8317 21.234 24.6469C20.1631 25.462 18.8547 25.9041 17.5089 25.9054H16.2889C16.1734 25.5786 15.9596 25.2956 15.6769 25.0951C15.3943 24.8946 15.0565 24.7864 14.7099 24.7854H13.5899C13.1443 24.7854 12.717 24.9624 12.402 25.2774C12.0869 25.5925 11.9099 26.0198 11.9099 26.4654C11.9099 26.9109 12.0869 27.3382 12.402 27.6533C12.717 27.9684 13.1443 28.1454 13.5899 28.1454H14.7099C15.0565 28.1444 15.3943 28.0362 15.6769 27.8357C15.9596 27.6352 16.1734 27.3521 16.2889 27.0254H17.5099C19.3475 27.0308 21.1191 26.3412 22.4693 25.0948C23.8196 23.8484 24.6486 22.1375 24.7899 20.3054H25.3499C26.0925 20.3054 26.8047 20.0104 27.3298 19.4853C27.8549 18.9602 28.1499 18.248 28.1499 17.5054V14.1454C28.1499 13.4028 27.8549 12.6906 27.3298 12.1655C26.8047 11.6404 26.0925 11.3454 25.3499 11.3454ZM1.2699 17.5074V14.1454C1.2699 13.6998 1.4469 13.2725 1.76196 12.9574C2.07702 12.6424 2.50434 12.4654 2.9499 12.4654H3.5099V19.1854H2.9499C2.50469 19.1854 2.07767 19.0086 1.76267 18.694C1.44767 18.3794 1.27043 17.9526 1.2699 17.5074V17.5074ZM5.7499 11.9074V19.7454C5.7499 19.8939 5.6909 20.0363 5.58588 20.1413C5.48086 20.2464 5.33842 20.3054 5.1899 20.3054C5.04138 20.3054 4.89894 20.2464 4.79392 20.1413C4.6889 20.0363 4.6299 19.8939 4.6299 19.7454V11.9054C4.6299 11.7568 4.6889 11.6144 4.79392 11.5094C4.89894 11.4044 5.04138 11.3454 5.1899 11.3454C5.33842 11.3454 5.48086 11.4044 5.58588 11.5094C5.6909 11.6144 5.7499 11.7568 5.7499 11.9054V11.9074ZM19.8499 4.62737C18.2985 3.19652 16.2654 2.40207 14.1549 2.40207C12.0444 2.40207 10.0113 3.19652 8.4599 4.62737C8.228 4.83381 7.93875 4.96477 7.63061 5.00281C7.32247 5.04086 7.01005 4.9842 6.7349 4.84037C7.62704 3.73051 8.75679 2.83491 10.0409 2.21956C11.3251 1.60421 12.7309 1.28476 14.1549 1.28476C15.5789 1.28476 16.9847 1.60421 18.2689 2.21956C19.553 2.83491 20.6828 3.73051 21.5749 4.84037C21.2997 4.9842 20.9873 5.04086 20.6792 5.00281C20.3711 4.96477 20.0818 4.83381 19.8499 4.62737V4.62737ZM14.7149 27.0274H13.5899C13.4414 27.0274 13.2989 26.9684 13.1939 26.8633C13.0889 26.7583 13.0299 26.6159 13.0299 26.4674C13.0299 26.3188 13.0889 26.1764 13.1939 26.0714C13.2989 25.9664 13.4414 25.9074 13.5899 25.9074H14.7099C14.8584 25.9074 15.0009 25.9664 15.1059 26.0714C15.2109 26.1764 15.2699 26.3188 15.2699 26.4674C15.2699 26.6159 15.2109 26.7583 15.1059 26.8633C15.0009 26.9684 14.8584 27.0274 14.7099 27.0274H14.7149ZM22.5499 19.7454V11.9054C22.5499 11.7568 22.6089 11.6144 22.7139 11.5094C22.8189 11.4044 22.9614 11.3454 23.1099 11.3454C23.2584 11.3454 23.4009 11.4044 23.5059 11.5094C23.6109 11.6144 23.6699 11.7568 23.6699 11.9054V19.7454C23.6699 19.8939 23.6109 20.0363 23.5059 20.1413C23.4009 20.2464 23.2584 20.3054 23.1099 20.3054C22.9614 20.3054 22.8189 20.2464 22.7139 20.1413C22.6089 20.0363 22.5499 19.8939 22.5499 19.7454ZM27.0299 17.5054C27.0299 17.9509 26.8529 18.3782 26.5378 18.6933C26.2228 19.0084 25.7955 19.1854 25.3499 19.1854H24.7899V12.4654H25.3499C25.7955 12.4654 26.2228 12.6424 26.5378 12.9574C26.8529 13.2725 27.0299 13.6998 27.0299 14.1454V17.5054Z" fill="black"/>
<path d="M14.103 7.78151e-05C15.4698 -0.00130451 16.8248 0.253073 18.098 0.750078C19.3873 1.24959 20.5662 1.99702 21.568 2.95008C22.6633 4.022 23.5274 5.30695 24.107 6.72568C24.6866 8.14441 24.9694 9.66684 24.938 11.1991H25.35C26.1315 11.1999 26.8807 11.5104 27.4337 12.0626C27.9866 12.6148 28.2981 13.3636 28.3 14.1451V17.5051C28.2992 18.2872 27.9881 19.0371 27.4351 19.5902C26.882 20.1432 26.1321 20.4543 25.35 20.4551H24.928C24.7514 22.295 23.8953 24.0029 22.527 25.2455C21.1587 26.4881 19.3763 27.1761 17.528 27.1751H16.388C16.2482 27.5058 16.0144 27.7883 15.7156 27.9874C15.4168 28.1865 15.0661 28.2935 14.707 28.2951H13.59C13.1047 28.2951 12.6392 28.1023 12.296 27.7591C11.9528 27.4159 11.76 26.9504 11.76 26.4651C11.76 25.9797 11.9528 25.5143 12.296 25.1711C12.6392 24.8279 13.1047 24.6351 13.59 24.6351H14.71C15.0692 24.6365 15.4201 24.7434 15.7192 24.9425C16.0182 25.1416 16.2521 25.4242 16.392 25.7551H17.51C18.7833 25.7509 20.0226 25.3437 21.0503 24.5919C22.0781 23.8402 22.8414 22.7823 23.231 21.5701C22.9811 21.5866 22.7305 21.5517 22.4947 21.4675C22.2588 21.3833 22.0428 21.2516 21.8599 21.0805C21.677 20.9094 21.5312 20.7027 21.4314 20.4729C21.3317 20.2432 21.2801 19.9955 21.28 19.7451V11.9051C21.2799 11.631 21.3414 11.3604 21.4599 11.1132C21.5784 10.8661 21.7509 10.6487 21.9647 10.4772C22.1785 10.3057 22.428 10.1843 22.695 10.1222C22.9619 10.06 23.2394 10.0586 23.507 10.1181C23.3968 8.64101 22.9361 7.2115 22.163 5.94808C21.6578 6.22184 21.0797 6.33103 20.5094 6.26039C19.9391 6.18976 19.4052 5.94283 18.982 5.55408C17.6654 4.34068 15.9405 3.66704 14.15 3.66704C12.3595 3.66704 10.6346 4.34068 9.318 5.55408C8.89569 5.94469 8.36146 6.19292 7.79058 6.26378C7.21971 6.33465 6.64099 6.22457 6.136 5.94908C5.36329 7.21259 4.9029 8.6421 4.793 10.1191C5.06056 10.0596 5.33806 10.061 5.60501 10.1232C5.87195 10.1853 6.12153 10.3067 6.3353 10.4782C6.54907 10.6497 6.72159 10.8671 6.8401 11.1142C6.95861 11.3614 7.02009 11.632 7.02 11.9061V19.7451C7.01698 20.1652 6.8695 20.5715 6.60232 20.8957C6.33515 21.2199 5.96456 21.4423 5.55277 21.5256C5.14099 21.6089 4.71309 21.5479 4.34093 21.353C3.96878 21.1581 3.67502 20.841 3.509 20.4551H2.95C2.16786 20.4543 1.41797 20.1432 0.864912 19.5902C0.311852 19.0371 0.000794191 18.2872 0 17.5051V14.1451C0.000794191 13.3629 0.311852 12.613 0.864912 12.06C1.41797 11.5069 2.16786 11.1959 2.95 11.1951H3.361C3.26502 8.8134 3.97298 6.46866 5.371 4.53808C6.35068 3.13159 7.65706 1.98386 9.17799 1.19344C10.6989 0.403014 12.389 -0.00649179 14.103 7.78151e-05V7.78151e-05ZM25.35 20.1571C26.0526 20.1563 26.7262 19.8768 27.223 19.38C27.7198 18.8832 27.9992 18.2097 28 17.5071V14.1451C27.9992 13.4425 27.7198 12.7689 27.223 12.2721C26.7262 11.7753 26.0526 11.4959 25.35 11.4951H24.64V11.3451C24.64 4.17008 19.212 0.298078 14.104 0.298078C12.4375 0.292182 10.7944 0.690743 9.31586 1.45956C7.83728 2.22837 6.56733 3.34447 5.615 4.71208C4.22773 6.63629 3.53811 8.97606 3.66 11.3451V11.4951H2.95C2.24742 11.4959 1.57384 11.7753 1.07704 12.2721C0.580245 12.7689 0.300794 13.4425 0.3 14.1451V17.5051C0.300794 18.2077 0.580245 18.8812 1.07704 19.378C1.57384 19.8748 2.24742 20.1543 2.95 20.1551H3.716L3.752 20.2551C3.87448 20.5922 4.11154 20.8756 4.42176 21.0558C4.73197 21.2359 5.09562 21.3013 5.44916 21.2406C5.8027 21.1798 6.12365 20.9968 6.35594 20.7234C6.58823 20.4501 6.71709 20.1038 6.72 19.7451V11.9071C6.72008 11.6623 6.66141 11.421 6.54893 11.2036C6.43644 10.9861 6.27342 10.7989 6.07355 10.6575C5.87369 10.5161 5.64281 10.4248 5.40032 10.3911C5.15784 10.3574 4.91081 10.3825 4.68 10.4641L4.469 10.5391L4.48 10.3151C4.56533 8.66438 5.07472 7.06355 5.959 5.66708L6.038 5.54208L6.164 5.62008C6.61925 5.90163 7.15423 6.02621 7.68703 5.97473C8.21983 5.92326 8.72107 5.69857 9.114 5.33508C10.486 4.07051 12.2836 3.36847 14.1495 3.36847C16.0154 3.36847 17.813 4.07051 19.185 5.33508C19.5788 5.69693 20.0799 5.92051 20.6122 5.97194C21.1446 6.02337 21.6792 5.89984 22.135 5.62008L22.261 5.54308L22.34 5.66808C23.2245 7.06416 23.7342 8.66463 23.82 10.3151L23.831 10.5391L23.62 10.4641C23.3892 10.3825 23.1422 10.3574 22.8997 10.3911C22.6572 10.4248 22.4263 10.5161 22.2264 10.6575C22.0266 10.7989 21.8636 10.9861 21.7511 11.2036C21.6386 11.421 21.5799 11.6623 21.58 11.9071V19.7451C21.58 19.9715 21.6303 20.1951 21.7272 20.3998C21.8241 20.6044 21.9652 20.785 22.1404 20.9285C22.3156 21.072 22.5204 21.1749 22.7401 21.2296C22.9599 21.2843 23.189 21.2896 23.411 21.2451L23.65 21.1971L23.585 21.4321C23.2136 22.7589 22.4194 23.9283 21.323 24.7626C20.2265 25.597 18.8878 26.0508 17.51 26.0551H16.183L16.148 25.9551C16.0424 25.6577 15.8477 25.4002 15.5903 25.2177C15.3329 25.0351 15.0255 24.9364 14.71 24.9351H13.59C13.1842 24.9351 12.7951 25.0963 12.5081 25.3832C12.2212 25.6701 12.06 26.0593 12.06 26.4651C12.06 26.8709 12.2212 27.26 12.5081 27.547C12.7951 27.8339 13.1842 27.9951 13.59 27.9951H14.71C15.0256 27.9943 15.3333 27.8961 15.591 27.7139C15.8488 27.5317 16.044 27.2744 16.15 26.9771L16.185 26.8771H17.534C19.3277 26.8692 21.0533 26.1886 22.3694 24.9699C23.6855 23.7511 24.4965 22.0829 24.642 20.2951L24.653 20.1571H25.35ZM14.15 1.13508C15.5968 1.13163 17.0258 1.4544 18.3307 2.07941C19.6356 2.70441 20.7828 3.61556 21.687 4.74508L21.801 4.88708L21.639 4.97208C21.3369 5.12996 20.9938 5.19213 20.6555 5.15033C20.3172 5.10853 19.9996 4.96474 19.745 4.73808C18.2212 3.33209 16.2239 2.55142 14.1505 2.55142C12.0771 2.55142 10.0798 3.33209 8.556 4.73808C8.30097 4.96618 7.98234 5.11092 7.64278 5.15292C7.30321 5.19491 6.95892 5.13217 6.656 4.97308L6.494 4.88808L6.608 4.74608C7.51261 3.61571 8.66056 2.70398 9.96638 2.07877C11.2722 1.45356 12.7022 1.13099 14.15 1.13508V1.13508ZM21.329 4.78308C20.4495 3.73471 19.3511 2.89171 18.1109 2.31332C16.8707 1.73493 15.5189 1.43521 14.1505 1.43521C12.7821 1.43521 11.4303 1.73493 10.1901 2.31332C8.94992 2.89171 7.85149 3.73471 6.972 4.78308C7.20536 4.86728 7.45713 4.88692 7.70072 4.83992C7.94432 4.79293 8.17071 4.68104 8.356 4.51608C9.935 3.06007 12.0042 2.25169 14.152 2.25169C16.2998 2.25169 18.369 3.06007 19.948 4.51608C20.1333 4.68035 20.3594 4.79165 20.6026 4.83828C20.8458 4.88491 21.0971 4.86515 21.33 4.78108L21.329 4.78308ZM5.19 11.1971C5.37822 11.1973 5.55866 11.2722 5.69175 11.4053C5.82485 11.5384 5.89974 11.7189 5.9 11.9071V19.7451C5.9 19.8383 5.88164 19.9306 5.84595 20.0168C5.81027 20.1029 5.75798 20.1812 5.69205 20.2471C5.62612 20.3131 5.54785 20.3654 5.46171 20.401C5.37556 20.4367 5.28324 20.4551 5.19 20.4551C5.09676 20.4551 5.00444 20.4367 4.91829 20.401C4.83215 20.3654 4.75388 20.3131 4.68795 20.2471C4.62202 20.1812 4.56973 20.1029 4.53405 20.0168C4.49836 19.9306 4.48 19.8383 4.48 19.7451V11.9051C4.48079 11.7172 4.55591 11.5373 4.68895 11.4046C4.82199 11.272 5.00212 11.1973 5.19 11.1971ZM5.19 20.1571C5.29874 20.1571 5.40302 20.1139 5.47991 20.037C5.5568 19.9601 5.6 19.8558 5.6 19.7471V11.9071C5.6 11.7983 5.5568 11.6941 5.47991 11.6172C5.40302 11.5403 5.29874 11.4971 5.19 11.4971C5.08126 11.4971 4.97698 11.5403 4.90009 11.6172C4.8232 11.6941 4.78 11.7983 4.78 11.9071V19.7451C4.77974 19.7991 4.79015 19.8526 4.81063 19.9026C4.83112 19.9526 4.86128 19.998 4.89938 20.0363C4.93748 20.0746 4.98276 20.1049 5.03264 20.1257C5.08251 20.1464 5.13599 20.1571 5.19 20.1571V20.1571ZM23.11 11.1971C23.2982 11.1973 23.4787 11.2722 23.6118 11.4053C23.7448 11.5384 23.8197 11.7189 23.82 11.9071V19.7451C23.82 19.9334 23.7452 20.114 23.612 20.2471C23.4789 20.3803 23.2983 20.4551 23.11 20.4551C22.9217 20.4551 22.7411 20.3803 22.608 20.2471C22.4748 20.114 22.4 19.9334 22.4 19.7451V11.9051C22.4008 11.7172 22.4759 11.5373 22.6089 11.4046C22.742 11.272 22.9221 11.1973 23.11 11.1971ZM23.11 20.1571C23.2187 20.1571 23.323 20.1139 23.3999 20.037C23.4768 19.9601 23.52 19.8558 23.52 19.7471V11.9071C23.52 11.7983 23.4768 11.6941 23.3999 11.6172C23.323 11.5403 23.2187 11.4971 23.11 11.4971C23.0013 11.4971 22.897 11.5403 22.8201 11.6172C22.7432 11.6941 22.7 11.7983 22.7 11.9071V19.7451C22.6997 19.7991 22.7101 19.8526 22.7306 19.9026C22.7511 19.9526 22.7813 19.998 22.8194 20.0363C22.8575 20.0746 22.9028 20.1049 22.9526 20.1257C23.0025 20.1464 23.056 20.1571 23.11 20.1571V20.1571ZM2.95 12.3171H3.66V19.3371H2.95C2.46482 19.3365 1.99966 19.1436 1.65658 18.8005C1.3135 18.4574 1.12053 17.9923 1.12 17.5071V14.1451C1.12106 13.6602 1.31426 13.1956 1.65728 12.8529C2.0003 12.5103 2.46516 12.3176 2.95 12.3171V12.3171ZM3.36 12.6171H2.95C2.54473 12.6176 2.15617 12.7787 1.86942 13.0651C1.58266 13.3515 1.42106 13.7398 1.42 14.1451V17.5051C1.42053 17.9107 1.58189 18.2996 1.86871 18.5864C2.15553 18.8732 2.54438 19.0345 2.95 19.0351H3.36V12.6171ZM24.64 12.3171H25.35C25.8348 12.3176 26.2997 12.5103 26.6427 12.8529C26.9857 13.1956 27.1789 13.6602 27.18 14.1451V17.5051C27.1795 17.9903 26.9865 18.4554 26.6434 18.7985C26.3003 19.1416 25.8352 19.3345 25.35 19.3351H24.64V12.3171ZM25.35 19.0371C25.7556 19.0365 26.1445 18.8752 26.4313 18.5884C26.7181 18.3016 26.8795 17.9127 26.88 17.5071V14.1451C26.8795 13.7395 26.7181 13.3506 26.4313 13.0638C26.1445 12.777 25.7556 12.6156 25.35 12.6151H24.94V19.0351L25.35 19.0371ZM13.59 25.7571H14.71C14.8983 25.7571 15.0789 25.8319 15.212 25.965C15.3452 26.0982 15.42 26.2788 15.42 26.4671C15.42 26.6554 15.3452 26.836 15.212 26.9691C15.0789 27.1023 14.8983 27.1771 14.71 27.1771H13.59C13.4017 27.1771 13.2211 27.1023 13.088 26.9691C12.9548 26.836 12.88 26.6554 12.88 26.4671C12.88 26.2788 12.9548 26.0982 13.088 25.965C13.2211 25.8319 13.4017 25.7571 13.59 25.7571V25.7571ZM14.71 26.8771C14.8187 26.8771 14.923 26.8339 14.9999 26.757C15.0768 26.6801 15.12 26.5758 15.12 26.4671C15.12 26.3583 15.0768 26.2541 14.9999 26.1772C14.923 26.1003 14.8187 26.0571 14.71 26.0571H13.59C13.4813 26.0571 13.377 26.1003 13.3001 26.1772C13.2232 26.2541 13.18 26.3583 13.18 26.4671C13.18 26.5758 13.2232 26.6801 13.3001 26.757C13.377 26.8339 13.4813 26.8771 13.59 26.8771H14.71Z" fill="black"/>
<path d="M14.3012 22.5479C15.8682 22.1024 17.2475 21.1588 18.2306 19.8598C19.2137 18.5608 19.7471 16.977 19.7502 15.3479V10.5479C19.7548 10.4222 19.717 10.2986 19.6428 10.197C19.5686 10.0954 19.4624 10.0218 19.3412 9.98793C13.8642 8.43093 14.2112 8.49793 13.9992 8.55993L8.95919 9.98793C8.83802 10.0218 8.73177 10.0954 8.65758 10.197C8.58338 10.2986 8.54555 10.4222 8.55019 10.5479V15.3479C8.55325 16.977 9.08666 18.5608 10.0698 19.8598C11.0529 21.1588 12.4322 22.1024 13.9992 22.5479C14.098 22.5756 14.2024 22.5756 14.3012 22.5479V22.5479ZM9.67019 15.3479V10.9629L14.1502 9.66893L18.6302 10.9399V15.3249C18.6316 16.6865 18.1976 18.0129 17.3916 19.1104C16.5856 20.2078 15.4498 21.0188 14.1502 21.4249C12.854 21.0199 11.7207 20.2121 10.915 19.1189C10.1093 18.0256 9.67326 16.704 9.67019 15.3459V15.3479Z" fill="black"/>
<path d="M14.1499 22.7179C14.085 22.718 14.0204 22.7093 13.9579 22.6919C12.3595 22.2368 10.9527 21.2739 9.95003 19.9486C8.94733 18.6233 8.4032 17.0077 8.39985 15.3459V10.5459C8.39427 10.387 8.44233 10.2308 8.5363 10.1026C8.63027 9.97432 8.76466 9.88143 8.91785 9.83886L13.9568 8.41086L13.9789 8.40386C14.0201 8.3885 14.0638 8.38071 14.1079 8.38086C14.9757 8.55256 15.8312 8.78139 16.6688 9.06586C17.3608 9.26586 18.2459 9.51686 19.3819 9.83986C19.535 9.88243 19.6694 9.97532 19.7634 10.1036C19.8574 10.2318 19.9054 10.388 19.8998 10.5469V15.3469C19.8965 17.0087 19.3524 18.6243 18.3497 19.9496C17.347 21.2749 15.9402 22.2378 14.3418 22.6929C14.2793 22.7099 14.2147 22.7183 14.1499 22.7179V22.7179ZM14.1089 8.67786C14.0975 8.67782 14.0862 8.68021 14.0758 8.68486L14.0408 8.69586L8.99985 10.1239C8.91095 10.1484 8.83293 10.2022 8.77847 10.2766C8.72401 10.3511 8.69631 10.4417 8.69985 10.5339V15.3439C8.70865 16.939 9.23357 18.4885 10.1961 19.7605C11.1587 21.0326 12.5071 21.9588 14.0398 22.4009C14.1121 22.4209 14.1886 22.4209 14.2609 22.4009C15.7935 21.9588 17.1418 21.0325 18.1042 19.7604C19.0666 18.4884 19.5913 16.9389 19.5998 15.3439V10.5339C19.6034 10.4417 19.5757 10.3511 19.5212 10.2766C19.4668 10.2022 19.3888 10.1484 19.2999 10.1239C18.1629 9.80086 17.2778 9.54786 16.5858 9.34986C14.7298 8.82086 14.2309 8.67786 14.1079 8.67786H14.1089ZM14.1499 21.5839L14.1049 21.5699C12.7779 21.1552 11.6177 20.328 10.7932 19.2087C9.96857 18.0893 9.52252 16.7361 9.51985 15.3459V10.8459L14.1499 9.50886L18.7799 10.8229V15.3229C18.7821 16.7171 18.3383 18.0754 17.5134 19.1994C16.6884 20.3234 15.5256 21.154 14.1949 21.5699L14.1499 21.5839ZM9.81985 11.0729V15.3449C9.81855 16.6642 10.2376 17.9497 11.0161 19.0149C11.7947 20.0801 12.8923 20.8696 14.1499 21.2689C15.4117 20.8697 16.5127 20.0772 17.2919 19.0073C18.071 17.9375 18.4873 16.6463 18.4799 15.3229V11.0519L14.1499 9.82286L9.81985 11.0729Z" fill="black"/>
<path d="M15.9931 13.7497L13.5931 16.1577L12.5931 15.1497C12.5406 15.0971 12.4782 15.0555 12.4096 15.027C12.341 14.9986 12.2674 14.984 12.1931 14.984C12.1188 14.984 12.0453 14.9986 11.9767 15.027C11.908 15.0555 11.8457 15.0971 11.7931 15.1497C11.7406 15.2022 11.6989 15.2646 11.6705 15.3332C11.6421 15.4018 11.6274 15.4754 11.6274 15.5497C11.6274 15.624 11.6421 15.6975 11.6705 15.7661C11.6989 15.8348 11.7406 15.8971 11.7931 15.9497L13.1931 17.3497C13.2453 17.4029 13.3075 17.4452 13.3762 17.474C13.4449 17.5029 13.5186 17.5178 13.5931 17.5178C13.6676 17.5178 13.7414 17.5029 13.8101 17.474C13.8788 17.4452 13.941 17.4029 13.9931 17.3497L16.7931 14.5497C16.8457 14.4971 16.8873 14.4348 16.9158 14.3661C16.9442 14.2975 16.9588 14.224 16.9588 14.1497C16.9588 14.0754 16.9442 14.0018 16.9158 13.9332C16.8873 13.8646 16.8457 13.8022 16.7931 13.7497C16.7406 13.6971 16.6782 13.6555 16.6096 13.627C16.541 13.5986 16.4674 13.584 16.3931 13.584C16.3188 13.584 16.2453 13.5986 16.1766 13.627C16.108 13.6555 16.0457 13.6971 15.9931 13.7497V13.7497Z" fill="black"/>
<path d="M16.3902 13.4355C16.5308 13.4361 16.6681 13.4783 16.7848 13.5569C16.9015 13.6354 16.9923 13.7467 17.0458 13.8768C17.0993 14.0068 17.113 14.1498 17.0853 14.2877C17.0576 14.4256 16.9897 14.5522 16.8902 14.6515L14.0902 17.4515C14.0242 17.5181 13.9457 17.5709 13.8592 17.6069C13.7727 17.6429 13.6799 17.6615 13.5862 17.6615C13.4925 17.6615 13.3997 17.6429 13.3132 17.6069C13.2267 17.5709 13.1482 17.5181 13.0822 17.4515L11.6822 16.0515C11.6161 15.9854 11.5636 15.9069 11.5278 15.8205C11.492 15.7341 11.4736 15.6416 11.4736 15.548C11.4736 15.4545 11.492 15.3619 11.5278 15.2756C11.5636 15.1892 11.6161 15.1107 11.6822 15.0445C11.7483 14.9784 11.8268 14.926 11.9132 14.8902C11.9996 14.8544 12.0922 14.836 12.1857 14.836C12.2792 14.836 12.3718 14.8544 12.4582 14.8902C12.5446 14.926 12.6231 14.9784 12.6892 15.0445L13.5892 15.9445L15.8892 13.6445C15.9548 13.5785 16.0329 13.526 16.1189 13.4901C16.2048 13.4543 16.297 13.4357 16.3902 13.4355V13.4355ZM13.5902 17.3615C13.6994 17.3613 13.804 17.3178 13.8812 17.2405L16.6812 14.4405C16.7585 14.3632 16.8019 14.2584 16.8019 14.149C16.8019 14.0397 16.7585 13.9349 16.6812 13.8575C16.6039 13.7802 16.499 13.7368 16.3897 13.7368C16.2804 13.7368 16.1755 13.7802 16.0982 13.8575L13.5892 16.3715L12.4802 15.2565C12.4029 15.1792 12.298 15.1358 12.1887 15.1358C12.0794 15.1358 11.9745 15.1792 11.8972 15.2565C11.8199 15.3339 11.7764 15.4387 11.7764 15.548C11.7764 15.6574 11.8199 15.7622 11.8972 15.8395L13.2972 17.2395C13.3357 17.278 13.3813 17.3085 13.4316 17.3293C13.4819 17.35 13.5358 17.3607 13.5902 17.3605V17.3615Z" fill="black"/>
</g>
<defs>
<clipPath id="clip0_1350_147">
<rect width="28.3" height="28.297" fill="white"/>
</clipPath>
</defs>
</svg>
