<svg width="44" height="45" viewBox="0 0 44 45" fill="none" xmlns="http://www.w3.org/2000/svg">
<path d="M9.30388 13.4084C9.59488 11.3374 10.5419 10.5564 12.5209 10.5564H30.3599C30.6536 10.5696 30.9309 10.6956 31.1339 10.9081C31.337 11.1207 31.4502 11.4035 31.4499 11.6974V13.4084H9.30388ZM33.7309 13.4594V11.6964C33.731 10.7974 33.3774 9.93436 32.7464 9.29387C32.1155 8.65337 31.2579 8.28683 30.3589 8.27344H12.5209C7.55788 8.27344 6.99288 12.3184 6.92088 14.4174C6.9183 14.4384 6.9183 14.4595 6.92088 14.4804V32.8044C6.92088 33.7123 7.28152 34.5829 7.92346 35.2249C8.56539 35.8668 9.43605 36.2274 10.3439 36.2274H33.1609C33.6104 36.2274 34.0555 36.1389 34.4708 35.9669C34.8861 35.7949 35.2635 35.5427 35.5813 35.2249C35.8992 34.907 36.1513 34.5297 36.3233 34.1144C36.4953 33.6991 36.5839 33.254 36.5839 32.8044V16.8314C36.5829 16.0233 36.2961 15.2416 35.7741 14.6246C35.2521 14.0076 34.5287 13.5952 33.7319 13.4604L33.7309 13.4594ZM30.0229 27.6694C29.4306 27.668 28.8572 27.4614 28.4002 27.0847C27.9432 26.708 27.6309 26.1846 27.5164 25.6035C27.4019 25.0224 27.4923 24.4196 27.7723 23.8977C28.0523 23.3759 28.5045 22.9671 29.0519 22.7412C29.5994 22.5152 30.2082 22.486 30.7748 22.6584C31.3414 22.8309 31.8307 23.1944 32.1594 23.687C32.4881 24.1796 32.6359 24.771 32.5777 25.3603C32.5194 25.9497 32.2587 26.5007 31.8399 26.9194C31.6011 27.1577 31.3178 27.3466 31.006 27.4753C30.6942 27.6039 30.3602 27.6699 30.0229 27.6694V27.6694Z" fill="#EE6C4D"/>
</svg>
