<svg width="18" height="18" viewBox="0 0 18 18" fill="none" xmlns="http://www.w3.org/2000/svg">
<path d="M9.00003 1.04977L8.3182 2.41351L7.29943 4.45121C7.2994 4.45127 7.29937 4.45133 7.29934 4.45139C6.33898 6.37417 5.37862 8.29573 4.4183 10.2172L4.41487 10.2241L4.4127 10.2284C3.45192 12.1508 2.49117 14.0732 1.53043 15.9967L1.53035 15.9969C1.27976 16.4981 1.02697 16.9993 0.773745 17.5H0.795117H0.829321H0.863526H0.89773H0.931934H0.966138H1.00034H1.03455H1.06875H1.10295H1.13716H1.17136H1.20556H1.23977H1.27397H1.30817H1.34238H1.37658H1.41078H1.44498H1.47919H1.51339H1.54759H1.58179H1.616H1.6502H1.6844H1.7186H1.7528H1.78701H1.82121H1.85541H1.88961H1.92381H1.95801H1.99222H2.02642H2.06062H2.09482H2.12902H2.16322H2.19742H2.23162H2.26582H2.30002H2.33422H2.36842H2.40262H2.43682H2.47102H2.50522H2.53942H2.57362H2.60782H2.64202H2.67622H2.71042H2.74462H2.77882H2.81302H2.84722H2.88142H2.91562H2.94982H2.98402H3.01822H3.05242H3.08661H3.12081H3.15501H3.18921H3.22341H3.25761H3.29181H3.326H3.3602H3.3944H3.4286H3.4628H3.49699H3.53119H3.56539H3.59959H3.63379H3.66798H3.70218H3.73638H3.77058H3.80477H3.83897H3.87317H3.90737H3.94156H3.97576H4.00996H4.04415H4.07835H4.11255H4.14674H4.18094H4.21514H4.24933H4.28353H4.31773H4.35192H4.38612H4.42032H4.45451H4.48871H4.52291H4.5571H4.5913H4.62549H4.65969H4.69389H4.72808H4.76228H4.79647H4.83067H4.86486H4.89906H4.93326H4.96745H5.00165H5.03584H5.07004H5.10423H5.13843H5.17262H5.20682H5.24101H5.27521H5.3094H5.3436H5.37779H5.41199H5.44618H5.48038H5.51457H5.54877H5.58296H5.61716H5.65135H5.68555H5.71974H5.75394H5.78813H5.82232H5.85652H5.89071H5.92491H5.9591H5.9933H6.02749H6.06168H6.09588H6.13007H6.16427H6.19846H6.23266H6.26685H6.30104H6.33524H6.36943H6.40362H6.43782H6.47201H6.50621H6.5404H6.57459H6.60879H6.64298H6.67717H6.71137H6.74556H6.77975H6.81395H6.84814H6.88234H6.91653H6.95072H6.98492H7.01911H7.0533H7.0875H7.12169H7.15588H7.19007H7.22427H7.25846H7.29265H7.32685H7.36104H7.39523H7.42943H7.46362H7.49781H7.53201H7.5662H7.60039H7.63459H7.66878H7.70297H7.73716H7.77136H7.80555H7.83974H7.87394H7.90813H7.94232H7.97651H8.01071H8.0449H8.07909H8.11329H8.14748H8.18167H8.21586H8.25006H8.28425H8.31844H8.35263H8.38683H8.42102H8.45521H8.48941H8.5236H8.55779H8.59198H8.62618H8.66037H8.69456H8.72875H8.76295H8.79714H8.83133H8.86552H8.89972H8.93391H8.9681H9.0023H9.03649H9.07068H9.10487H9.13907H9.17326H9.20745H9.24164H9.27584H9.31003H9.34422H9.37841H9.41261H9.4468H9.48099H9.51519H9.54938H9.58357H9.61776H9.65196H9.68615H9.72034H9.75453H9.78873H9.82292H9.85711H9.8913H9.9255H9.95969H9.99388H10.0281H10.0623H10.0965H10.1307H10.1648H10.199H10.2332H10.2674H10.3016H10.3358H10.37H10.4042H10.4384H10.4726H10.5068H10.541H10.5752H10.6094H10.6435H10.6777H10.7119H10.7461H10.7803H10.8145H10.8487H10.8829H10.9171H10.9513H10.9855H11.0197H11.0539H11.0881H11.1223H11.1564H11.1906H11.2248H11.259H11.2932H11.3274H11.3616H11.3958H11.43H11.4642H11.4984H11.5326H11.5668H11.601H11.6352H11.6694H11.7035H11.7377H11.7719H11.8061H11.8403H11.8745H11.9087H11.9429H11.9771H12.0113H12.0455H12.0797H12.1139H12.1481H12.1823H12.2165H12.2507H12.2848H12.319H12.3532H12.3874H12.4216H12.4558H12.49H12.5242H12.5584H12.5926H12.6268H12.661H12.6952H12.7294H12.7636H12.7978H12.832H12.8662H12.9004H12.9346H12.9687H13.0029H13.0371H13.0713H13.1055H13.1397H13.1739H13.2081H13.2423H13.2765H13.3107H13.3449H13.3791H13.4133H13.4475H13.4817H13.5159H13.5501H13.5843H13.6185H13.6527H13.6869H13.7211H13.7553H13.7895H13.8236H13.8578H13.892H13.9262H13.9604H13.9946H14.0288H14.063H14.0972H14.1314H14.1656H14.1998H14.234H14.2682H14.3024H14.3366H14.3708H14.405H14.4392H14.4734H14.5076H14.5418H14.576H14.6102H14.6444H14.6786H14.7128H14.747H14.7812H14.8154H14.8496H14.8838H14.918H14.9522H14.9864H15.0206H15.0548H15.089H15.1232H15.1574H15.1916H15.2258H15.26H15.2942H15.3284H15.3626H15.3968H15.431H15.4652H15.4994H15.5336H15.5678H15.602H15.6362H15.6704H15.7046H15.7388H15.773H15.8072H15.8414H15.8756H15.9098H15.944H15.9782H16.0124H16.0466H16.0808H16.115H16.1492H16.1834H16.2176H16.2518H16.286H16.3202H16.3544H16.3886H16.4228H16.457H16.4912H16.5254H16.5596H16.5938H16.628H16.6622H16.6964H16.7306H16.7648H16.799H16.8332H16.8674H16.9016H16.9358H16.97H17.0042H17.0385H17.0727H17.1069H17.1411H17.1753H17.2095H17.2241C16.4711 15.9964 15.718 14.4891 14.9651 12.9821L14.9643 12.9806L9.00003 1.04977ZM9.00003 1.04977C9.93817 2.92591 10.8755 4.8012 11.8128 6.67653L11.8136 6.67804C12.8634 8.77839 13.9132 10.8788 14.9642 12.9804L9.00003 1.04977Z" fill="white" stroke="#E3E3E3"/>
<rect y="17" width="18" height="1" fill="white"/>
</svg>
