<svg width="12" height="7" viewBox="0 0 12 7" fill="none" xmlns="http://www.w3.org/2000/svg">
<path d="M12 6.31957C11.9204 6.55998 11.7977 6.76653 11.5689 6.89182C11.2174 7.08144 10.836 7.02049 10.5276 6.71913C10.4116 6.60739 10.3022 6.48887 10.1894 6.37375C8.83975 4.99221 7.48677 3.61407 6.13712 2.23254C6.01111 2.10386 6.01111 2.10386 5.88509 2.22915C4.43264 3.71227 2.97686 5.19538 1.52441 6.68188C1.32213 6.88843 1.09 7.02049 0.794865 6.99679C0.463254 6.9697 0.221177 6.79701 0.0819009 6.49226C-0.0507435 6.19428 -0.0208988 5.90308 0.161487 5.63219C0.204597 5.57124 0.254339 5.51367 0.307397 5.4595C1.98535 3.74274 3.66662 2.02937 5.34457 0.312614C5.67286 -0.0226109 6.06748 -0.0903335 6.42894 0.119605C6.51847 0.170397 6.59474 0.241505 6.66438 0.312614C8.34565 2.02598 10.0236 3.74274 11.7049 5.45611C11.8408 5.59494 11.937 5.75409 11.9967 5.93694C12 6.06561 12 6.1909 12 6.31957Z" fill="#F07355"/>
</svg>
