<svg width="12" height="7" viewBox="0 0 12 7" fill="none" xmlns="http://www.w3.org/2000/svg">
<path d="M0 0.680432C0.0795866 0.440019 0.202283 0.233466 0.431094 0.10818C0.782602 -0.081442 1.16395 -0.0204919 1.47235 0.280872C1.58842 0.392613 1.69785 0.511127 1.8106 0.626254C3.16025 2.00779 4.51323 3.38593 5.86288 4.76746C5.98889 4.89614 5.98889 4.89614 6.11491 4.77085C7.56736 3.28773 9.02314 1.80462 10.4756 0.318119C10.6779 0.111566 10.91 -0.0204921 11.2051 0.00321069C11.5367 0.0302995 11.7788 0.202991 11.9181 0.507741C12.0507 0.805718 12.0209 1.09692 11.8385 1.36781C11.7954 1.42876 11.7457 1.48633 11.6926 1.5405C10.0147 3.25726 8.33338 4.97063 6.65543 6.68739C6.32714 7.02261 5.93252 7.09033 5.57106 6.88039C5.48153 6.8296 5.40526 6.75849 5.33562 6.68739C3.65435 4.97402 1.9764 3.25726 0.295134 1.54389C0.159173 1.40506 0.0630061 1.24591 0.00331611 1.06306C7.41208e-10 0.93439 0 0.809104 0 0.680432Z" fill="#F07355"/>
</svg>
